<mxfile host="app.diagrams.net" modified="2021-03-26T03:03:19.338Z" agent="5.0 (Windows NT 6.1; Win64; x64) AppleWebKit/537.36 (KHTML, like Gecko) Chrome/70.0.3538.102 Safari/537.36" etag="zJrioiRmNfffbcTJJpaa" version="14.5.1" type="github">
  <diagram name="页-1" id="页-1">
    <mxGraphModel dx="1185" dy="662" grid="1" gridSize="10" guides="1" tooltips="1" connect="1" arrows="1" fold="1" page="1" pageScale="1" pageWidth="850" pageHeight="1100" math="0" shadow="0">
      <root>
        <mxCell id="0" />
        <mxCell id="1" value="连接线" parent="0" />
        <mxCell id="44" style="vsdxID=146;fillColor=none;gradientColor=none;shape=stencil(nZBLDoAgDERP0z3SIyjew0SURgSD+Lu9kMZoXLhwN9O+tukAlrNpJg1SzDH4QW/URgNYgZTkjA4UkwJUgGXng+6DX1zLfmoymdXo17xh5zmRJ6Q42BWCfc2oJfdAr+Yv+AP9Cb7OJ3H/2JG1HNGz/84klThPVCc=);strokeColor=#4bacc6;strokeWidth=3;labelBackgroundColor=none;rounded=0;html=1;whiteSpace=wrap;" parent="1" vertex="1">
          <mxGeometry x="10" y="130" width="780" height="507" as="geometry" />
        </mxCell>
        <mxCell id="3" style="vsdxID=138;fillColor=none;gradientColor=none;shape=stencil(nZBLDoAgDERP0z3SIyjew0SURgSD+Lu9kMZoXLhwN9O+tukAlrNpJg1SzDH4QW/URgNYgZTkjA4UkwJUgGXng+6DX1zLfmoymdXo17xh5zmRJ6Q42BWCfc2oJfdAr+Yv+AP9Cb7OJ3H/2JG1HNGz/84klThPVCc=);strokeColor=#4bacc6;strokeWidth=3;labelBackgroundColor=none;rounded=0;html=1;whiteSpace=wrap;" parent="1" vertex="1">
          <mxGeometry x="470" y="296" width="298" height="301" as="geometry" />
        </mxCell>
        <mxCell id="4" value="" style="verticalAlign=middle;align=center;vsdxID=118;fillColor=#ffffff;gradientColor=none;shape=stencil(nZFLDsIwDERP4y0KyQKxLuUCnCAihliEpEpL+ZyetANS6YJFs7JnXmxpTKZqvW2YtGq7nC58F9d5MjvSWqLnLF2pyNRkqlPKfM7pFh36xhZSq1Fhhz/rgdbK5uNBXgxts9r+PjAYck39sPwBVMF6foYp9HugQeIE/ZqL4D/oQnC2vhRjPAhOQkC6U38eZ5FwClO/AQ==);strokeColor=#404040;shadow=1;labelBackgroundColor=none;rounded=1;html=1;whiteSpace=wrap;" parent="1" vertex="1">
          <mxGeometry x="575" y="483" width="74" height="64" as="geometry" />
        </mxCell>
        <mxCell id="5" value="" style="verticalAlign=middle;align=center;vsdxID=1;fillColor=none;gradientColor=none;shape=stencil(nZExDsIwDEVP4xWl8cRcygU4QUQNiQhJlQYKnJ60H6TSgaGZ7P9fbOmbuO6t6YS06nOKFxlcmy3xjrR2wUpyuVTEDXF9iknOKd5Ci74zhdRqUqTFn2qktTLpeHAvgcbVZvvzGBCmXON93P4Aq2A9P9MU+j1Q78IM/Zqr4D/oSnCxvhRTPkjOeY945/4yzyLhFty8AQ==);strokeColor=#00b0f0;strokeWidth=2;shadow=1;labelBackgroundColor=none;rounded=1;html=1;whiteSpace=wrap;" parent="1" vertex="1">
          <mxGeometry x="146" y="305" width="274" height="301" as="geometry" />
        </mxCell>
        <mxCell id="6" value="&lt;font style=&quot;font-size:11px;font-family:Calibri;color:#000000;direction:ltr;letter-spacing:0px;line-height:120%;opacity:1&quot;&gt;ADC&lt;br/&gt;&lt;/font&gt;" style="verticalAlign=middle;align=center;vsdxID=2;fillColor=#f0f0f0;gradientColor=#ffffff;gradientDirection=north;shape=stencil(nZFLDsIwDERP4y0KyQKxLuUCnCAihliEpEpL+ZyetANS6YJFs7JnXmxpTKZqvW2YtGq7nC58F9d5MjvSWqLnLF2pyNRkqlPKfM7pFh36xhZSq1Fhhz/rgdbK5uNBXgxts9r+PjAYck39sPwBVMF6foYp9HugQeIE/ZqL4D/oQnC2vhRjPAhOQkC6U38eZ5FwClO/AQ==);strokeColor=#00b0f0;shadow=1;labelBackgroundColor=none;rounded=1;html=1;whiteSpace=wrap;" parent="1" vertex="1">
          <mxGeometry x="165" y="354" width="54" height="31" as="geometry" />
        </mxCell>
        <mxCell id="7" value="&lt;font style=&quot;font-size: 11px ; font-family: &amp;#34;calibri&amp;#34; ; color: #000000 ; direction: ltr ; letter-spacing: 0px ; line-height: 120% ; opacity: 1&quot;&gt;NS-LINK&lt;br&gt;&lt;/font&gt;" style="verticalAlign=middle;align=center;vsdxID=3;gradientColor=#d8d8d8;gradientDirection=north;shape=stencil(nZFLDsIwDERP4y0KyQKxLuUCnCAihliEpEpL+ZyetANS6YJFs7JnXmxpTKZqvW2YtGq7nC58F9d5MjvSWqLnLF2pyNRkqlPKfM7pFh36xhZSq1Fhhz/rgdbK5uNBXgxts9r+PjAYck39sPwBVMF6foYp9HugQeIE/ZqL4D/oQnC2vhRjPAhOQkC6U38eZ5FwClO/AQ==);shadow=1;labelBackgroundColor=none;rounded=1;html=1;whiteSpace=wrap;fillColor=none;strokeColor=#0CBFF5;" parent="1" vertex="1">
          <mxGeometry x="236" y="169" width="146" height="83" as="geometry" />
        </mxCell>
        <mxCell id="10" style="vsdxID=9;fillColor=none;gradientColor=none;image;aspect=fixed;image=data:image/png,iVBORw0KGgoAAAANSUhEUgAAAc8AAACaCAIAAABALlSMAABlRUlEQVR4nO39eZhl110f/H7OPNU8dVfPs1pSqyW15tEDno0NeMIQQggOgRfyhuRCILmX5M3wkudeQkjgSZ6bPAQCl4TZNhg8YNmWLcmWJduyWlJrbrXU81Rdc535nPvHOutUyRosy6IZvL9/lI5O7b3X2mufPvVdv+H7TXW7XRHhdafTwaFDh/ChD30It9xyC37u534OhUIB4+PjvkWsHSjBXyFSqdS3eYVX+ChfyUB/rT4V3/7KvAxmZmb+8i6e4CLjV3/1V/Enf/In+K//9b/i5ptvRjqd9tIfpPRFm1+CBAkSfCcjtZbPhp+/+Zu/if/yX/4LfumXfgnXXnvtN5w2MTHxrY4UBvprxWW+0/Cac7eXf5rfmdz2pS5y/vz5b//iCf5a4amnnsJP//RP413vehf++T//58hkMiLPXYuE2yZIkCDBxUDybZsgQYIEFwOpED1ot9t4+OGH8cM//MP45Cc/KebEXojJyclvdaQwkBR0rdk/hpcvu4lLrTkw/Hf16O4LjnsF73fDW6nnvfXi473wdbyHePAL7uWbTGbNFV9qUC/x/jcuUphJWJDUNx78EuhtdV9ivV96Z78mm/qiA7xguVKp1b/lzxvteQvwEqv38uhf7hWf8rwDX/hoekuSEp/Pq4hwrL3qC+MJ586d+5avmOBvDn7wB38QP/VTP4V3vvOdXiyekHDbBAkSJLgYSLVaLdTrddx+++34d//u3+Gaa655mdOmpsbR0Qn/2+p0kJJGOp0VGUOn0xW/3VuaaGsgKxyzyitSMiK5aGkhHa4mg6YmMtLI9qbwPO4RLpXu0YsUunFu/YkFdLTRke4PF6/Q7r8O1wl31+52kEll+tdp6649N7OGqrW6LZHTZWT6F2xr9+8ovE51U0in0v07Wcvy0r0Jd/vvhzE63dWbWr3rVLo/t1RvedLodNrIpFen0Vkz817SMgzRhUwoXukN2u5PIOUbCXOz0+jNM53pL1Rkg11kUnnEZ5Vas0phGsTtVOCAqXSqv+wvJPFdzdUVeP5zX/vEVw+PTy2dWvt5gHZvqr7ht6tnPv9O02s+OV1pNONvw69yvU9vuFCg6x2rLKYjLvX583MS/O3F2bNn8d73vhd33nknpqamRIYbPucJt02QIEGCi4FUrVbDL/7iL2Jubg6/8Au/8E1Pm5gaQ7vbCv/b6oQXgemkkEnn0WiHAB6cnj2Kw0efQKvexujoKLLZPE6cPIV2q41t23dgbnYe83PzKJQK2L1zF86cPo65+dkw9PDwMDZv2ozjx49jZWUZ0xs2oJAr4PiJ46jXa9iza4/IU545cgS5bBq7d+/CufNncebMaQwODmLLpq04c/4szp+7gA0bN2FsZCxM4OizR1CrVbH7kt1o1Js4efwEcrkctu3YhvPnZzC/MIdKqYKN05tw4sxJLC4vYmJ8AsMDQ/1pNFtNbJ7ehFqjirNnz4Shw6Zh29ZtmJtbwNzsEgYHBjE2NtoftN3uYHRsFIV8HjMXLqBarWJyfEL883thbgbdVEfsYVleWkK9Ue+fOzo6HCYQLtLutDEwWBEJ8uLCErqdLMZGxsXN0/LSssjQJyYnsbC4gG67g1KphHyhgLnZOQRuWBkoIZvJYH5hAd3I8YeHRvqLX6vXkc/n+5+KUHTV7nRQGRxEvlzAhQsX6FHY8JRXlqtothr9dahUKqhVa2LKodWGwbFeX8+5mRlkWl1MDo9iYmQUxUwGum2ke7y5g/m5qgR/2/EHf/AH+NKXviSW0oYPZC+G+1c6twQJEiT4TkE2FOj+3u/9Hj772c96pQXnq1E/LC4tIp8vIpsvoJsispjAfJ89dhS//j9+E6eOnsI/+/mfRyqdwX/45f+ISqGMf/l//Vs89ugT+O//9b9g/4ED+Kc//3P4s7vuxJ/+2Z+God/2trfhgx/8IH7nzz6Khw8dwg//0N/F7l278Rsf+UPMzJzH//GhH0djsY5PfeLjGBoawAfe9z489MiDeODrX8PY6Bje//4P4At334OHDh7CG9/4Juy7/PIwgU98+tNYWJjDB0ofwNlz5/ClL96DwaEhvKv0Lnz9wa/j2LFjmJ6exjUHurjni/fg/Mx5XLX/KmzYsAH3fOke1Gp13H7LrSIVDaUjItPMF8t44IGv4eyZ45iamsSle/fi4MGDIjPdtHET1q1fj4ceOohGvYEr9+/H4vIynnzyCHKFCm668SY8cugRnDt7FuvXr8OBA1eHCXzms58VifPll1+KUqmIr3zlfpSLOVxxxT4cP35MJNrZbAbXXnMtHnr4YczPzfXvetPmzbjvvvtQq7Vw0w23IjCDu++5G/l8r1TmtltvxZNPPolDhx7Bps1bcMstN+Puu+7G0ePHcPW112Dr9m34yEc+isXFRXzf930f5hfm+8dXBir43nd/L+7/6ldw8OCD2LZjJ259wxvD0H/2sT/D6aMn8N1veTvedNvrMTE8gnw2i067LbL1bndFgr/t+MAHPoBf//Vfx1e/+lXccMMNkrhtggQJElxMJN+2CRIkSHAxkP3EJz6Bm266SQzovpJIQq/YJx5Yr9WQzWSxMFdDozWLdCaLlg7Ghsfxfe9+H5rNFrZu3SHuQ//Bh34C5WIZGzdsRrvdxf/5T/8ZNm/egsnxKdx8wy3YvGFrGHrX7l0YG57Abbe8HtceuB779l2BgUoF737799BL1u3csQe1hRV89zvejUq5jE0btqLeaGB4YBQbN27E6Mg49u6+HJs37MTu3XtQGSiHCVx95QGx3Gpqcj3Ssrju2htRKVcwPjqJrVu2o1QoY/36aQwPjmLDhk0YGR7DxunNGBoe6q9Dp9XBuvUbsLS4hKmJXsf90NAQJiemMT29Gdl0Gps3T2Pd1AaMj58Wt7TbtuxEsVTEunUb0aw3+lcoFBZQ3RwSVkNYN7EeM+tnkc8UsG56HcrloTCBMET4NITX6XQKU5MbMFgpYNOGLei0UshliyjkCxgbnsTw0CgKhVL/CmFNxscm0Wp2sX5qA6q1GtZNrkcumwsTmJpch9nZOWzauAVbN2/F2Og4hodHsCWVxs4du1AslTA1OYWd23di59adeOKpJ7Fz+y6sn16H9ZPrxVzoVVdchSuvOYCBocEw9KWX7MbuLdtw+eWXYXxiHNlQkBdKBlMZtNv8NVOESPCXine/+934oz/6Ixw4cECSJUuQIEGCi4nUm9/8ZrHtLGScXgkm149bLfxy9PhzyOSyOHbiBJaXq8gXQt4sjwvzFzAzewH7r7wS69atx8zMBSwvraDZbqFVb6HeaIpFTj2hslYTqVToFOgV1zSaTWRzWTSbTYSatkBl8/kcvXr6xeUlsRc5JPRazTD/DgaGKsjn01icXxSriCqDA2hUW2h3uhgdm0S73avwb7cayGTSYg1TmEC4eOC2hVIRy8tL9JhgvpAXK/ybzQZKxZKYXVxeWRbbFrLZXH8d6rU6spkesyuXy2i122KtUilfFHtPAxkM245ioYhcPieWlHU7XbH3IUxmeXkZ2VwGvZ7bVKq/qqFlI7wfyrn6swpcNZPN9C8SaNxAqYJUNy2mocqlsriFajQaYvVYuJFQqtWbRiaDSqWMdruJleoKisUiq7uqXDaP5eoyBgcGkM5k+ksa5lkoliAT7qUlNlOEHGMuk0e1XkU2l1szaFvMpA0MDCBfKmKxuhSGDgs7OjgKzQ66zQ469SaqyzXUVsLilzE6MiDBdwaCOPjP/MzPiJ0OoaAw4bYJEiRIcDGQDR0BmzZt8i2FlkKPYjy+21MhgSeeeBQPPPAARkbHsG7jNJaWV/Do449j9sIMLt17qVg91mg0RRLR6+bsptBpr6ripnWRS3VFkoJMOoXmymobaCkFuWwGnVYLoTt5JJcTA6zN2goyubxYx3bh/BmxXyMUWh0/dRTdoNrTgk7o+ExnxA4CVJcXRXoY/oIFWrS0tCTyuJGRkf77gdP12Fy7LVZEhdULXK9XvR+6e9fQz3breQ8om13t0w2HpdpplEsVrKysiEV4gRJmMlmxlUBvlXL9Y8LPTLaDVLqj37vc7qDVaiMX9hCtZu+5B4KcyfYXv7ddCI0SZy+IzC4w3zMLZ/u/DX0fYQJLiyv91QjPulQso7pyHs32shgRXl6Z6382+isQug+q1YX+61hwk8bcwoX+oGGjEFowzjfqyOdyyOQyYv9LuN98Li+y4/AoB4eH0E71OrzDTqVerWN8aBRDxUHopNBpdlCvNpAdy6DbrUjwnYHwdfrss8+K/97DP8CE2yZIkCDBxUDybZsgQYIEFwO9SMLmzZu/pdN60qVxXxsSKbl8Gg8dfBCf+otPYM8lu5F/rIBCqYRqvYY7Pvnn+MSffFTcyLe7bRRyeaQyaXHD2wnirek0Os12/8h+EKOXH6s3xQ142HR3uyEB1Ua3HTa8GTGzF3bqYbcYtqjh/Uajjk63vfo6iFrJIVvMot3qINWJPfCtthgBSGdTyGfyYs4niIeF95uNprinDr9tN9vIZNPIhCXNppDKdJHuZtBpd9DtiYKl+seLAZwQAQhppVQIdrS7/ffD39N8riAq8YYNe0hwhZ+d1Kra2Vrd3bAyPaGvVqe/wp0o6RuEx0IkIRyw9qHorUAKqeyqEJdeXGhN/rOzOuFwI+lUpv/ZCIGLMEo6l+5PA+luGulMmqDSobpcRbvR1m85y6zKivUGTdFXRUgHEa9Uf7hwdKabEmNQ4QPZG7EQF7/TEZvxQiyokCqIqnX1WhOLc0v4hz/243jPu94nwXcGQmnm/Py8GEkIAa6E2yZIkCDBxUA21LgEJaRXniXrcYHIZkLNUy6fwuyFOUyMj+G73nwbRsdGkCsUUCqXxWL70LwfqNbCwrxIpnL5Qv+YTqCiXWh121isr6Aai5BCskWPtbX6QzQbDc+vjgqEqFcx1k5jpDII6Z4YLxrNOupBUyqUW+VyIonL5YrIpAPD7WVLWs06/YxWCuVSSWTlIY2T6tVv1USKHf7WhXXL57NiDVkoUGu0Gv3XoeGi0W4gnU2LffdiYq2+JtuT7jTQbtatZsBWn2nPtCGV6k8jML4oNRvEdtNiPjDcaSa7Wl3Xo4WpnmZuyGHmc0VxQxD+foc7yudaaLdr/ScYcoZrfQ3CIwuLGThsaEAoF0tYqTaQlhc7ZcK6re5sMpn+ZyA82ZDX6lGJ1Cp9zhULVtl6WpQZS2cz/YkFutrLpGUzIjEJKxkIbL3Z++CFfVggyIEC5wL7lsXJ42fwhc/di1a36lv5x5XgbxPave+xhNsmSJAgwcVC9psf8nJ4nvlSu9MSi6iGRgawceMEhkeHRYp08OBDOH3qjPh9H8rp911xmVgBFkjEqVOn8Nijj6Beb4gxu807tmD71uneqN2uyO+eevJpPHdkTqQS69ZPYsf2bSJnabZaOHPiDA4ffhKt1mrQee+lu7Bx07hYCRQK8uv1pthM3O2mUYwyVEJ8ORxcKfeXZa11fGsNgwvEKpRSdXveFqv+BeHIYjEvMtmgexsIeIj/5gq5uPyhGK4ukuh0q4tciFC3W2JsOkwjMLUQhw01/IGUxUhuBoViQbRXCHK0oSciENhud7VHQNzcBLeOEBpeqdb6809poNtdHbTn4rEmDhu4bZh8rIfL9ieWSmWRy5XQarTi0vaoqD7jDqH/3um5/juBTYYtQmicCcQ5htKmxdLDUEcYOiPCBLq9BxdWooNKeUAMyK7efKqLerOBanUF2UxeLJ4bGQ+9Lav2GQm+07B2N5Zw2wQJEiS4GEi+bRMkSJDgYqAXSfjWQ/jP+5ruNfBYU0zTbaLZrqHZKuKRQw/jEx+/AxfOrYgFSaXBDObmZvD2t78N87Mz+NQn/wLPHTmBZiOFUiGD88eP4a1R0mFocBAH73sIDz/8EOYX6uI+78mw3b/tJlx77dU4fPQ07v/SfTh1eg6tegfdVBOLS7N485vfiEqlKG7zz584g099/E4sLC2LUk8oZAtigCKmlaDRaGNDkObKpnH48GExchJufqASwhRhxx2aoPR/G/wiu6ks3vyW1+HSK7aim+olajrdFrqZJroKaDXzmDm9LO6sxyeCRMMKFheXsGnjRpw8voDFxQUUiyWMj42KlXMr9TkUerV0LXS1MDOzgCOHT4YJrF83hal14zh26jym1k/i6HMnMHt+FtPr10FoTmt3cfr0GZQrJTGWEjQxLtm7R8w1nT+/gHXrxnH4uWdRKObFmrm+UMP2HVtx7uyM6AOUyawGcMKSHjlyGvPzC6gMDGDzlg1inrCQz4niDDMzM2InYXAJmpiYQDqdQ32ljvNnehZNoUCw2W2gPFDCwOCAGDOp1qr9n/VWeL5Jluw7EWufe8JtEyRIkOBi4FVz2+ch5D1S3aAFlRYzZo1GMNFr4N57vgytFH7yp35UrBP6/Bfuwv1ffhCvv/31YvXMkafO4Hve81ZMTo5h/twF/Okf/hlObD8ehh66dBee+NoRTE+sw/vfcX3/jj7xic/huUdP4NarrsHxJ07h6OFT+P6/+30YGR7G448/gXvvvR/XHZjDli1b+9dp1bt47KHj2LBxHLmBXpZsdqYu9iMszs/jltuux+LCMmZngodQHhs3bMXAYBlnz81gYmIMR48c799jKLCvNpYxNjGIw4ePY2FxSUz7hMwSOt0muqk2UtkMqlX4i0/cK2bJtu/YIhpKhpq2Xbtm8eyRI2JfwPT6abTbz2JyeghLtVO4+ebrkcsV0Gi2cOrkeXzsT+4IE7j66v3Yf9Ul+NMPfwrv++D34L77HsTxZ85icmIcw2MDqK7UcWFmDpu3rMcTTx7G1MR6bN20F/ONKj7yh3fgDW++GV/56v3IZDoYG53EU08/HSbwvg+8Gx//2B24/fZbcMmlO6GbwbNHjuM3f+N3Mb1hPY4+ewIf/DvvxvXXXydKLnzqz+7E7Pz5/vIW84P4vve+G2NjIzh9+jz+8Hf/JAwdWPxzx5/Fgeuuwi233yxmg2v1Fpo9XYushNsmSLhtggQJElwcvDbcNpTLhEL6EIkLBeGFYhaFYg4rK0GbdQBbN29HJptCu55FIVNCpTyI+bngj93C2PAYdu3YjQfOH8SREwtIVaIElxQW6jVsn9qO6R07xEjlXLWOytgUGrk8lkOANZsTLQY2bZrG4aePIt0pYbAyipTVsqROu9cYgD2XXIp1UxNhAk8++hxS2S4evvAICvlB1PNdtJpLSKVCrRsMlMcxvHMSwyPD6NTTuGzvpTh85DCWT9axeeMuHDz4jFh61enQb7GNgd1UJtQqtUVN25GxIgYGB3H69FFUBgZRruQxO3cOtUZQuW1jcmoCx44+hyNHzmH7rnX9FVhYWBFbaXft2o4D110WJnDTTdfisUefQnGgiNOnziHdDsVkXWTyoZar3V+HVquDiakJHD1+BJXBtFiE12i2UR7KYHBoUDSdfPqpp7Fjx04x8ovjR8/2P3jpTB6NGrF1+KnHj6NcGMYV+y7HkcPH8PTjJ3DDdbfizJnVjdT+q/eKm4/PffrLOHd6HqPDkzj23Dk0Vnr/ZOZmVnD8uRkMDZ3AG95UEUWQu6HVO1tEsVCRcNsECbdNkCBBgouDb6+7IbZg9hwWOh1RNj+8k83l0ai3MHNmEevWDYp+U0GtNWiAVspDaDdTmJmZs1r3XsLKShMX5qooDpQxODEShj63tIK5ehWdfE5kuzPLVZw4dwHbL9mLZjaDueUqhoZHUakMYHZ2SSRlsXs12EkFdde22LkbsvYjoxWUKz0p/rGJMdGfvLrSwOmT5zC3MIt2I/DQNBbmzyGTKmBwaEDUpjl5JkjrpkWiffT4SZw4eQaLC0sizZTKItVrPgh2BL24bWh0bnVqWKrPojSUw76r9uLwM4dFjdpMKotuqoGtuzZhZLKEuaUCjjz0OPZfsxe1emg6TIktu7l00IHtVfgvLC1h5sI8zp6Zw8OHHhXVacfWD6PZWEG12UEqn8YlV2zE4Ege+VIauy/dhmZ3GcMTJYxMlLFSX8KTTz+D0bExNFpttGJbzRNPPINjR8/h9Jmzood5aJVudlqoDA2Ice2NmzcgXyqjEzRwgzVGNouTp85iqDaAbDED2QzS+awoh9Tq9O692Vp11ggdDeHD0+k0UV2pod0M/ZpJd0MCEm6bIEGCBBcHybdtggQJElwMfFtZslD5L/b497JkPanQFHKZIpqNLhqNDqYmJjE8OILzF85jaWkZQ0Mj6HTTmDm/iGY9hcpAeD+HarWJgXIFpUKvU/78uVlUF2oYHhhGIewNuxk0ah0MDBZFqa+lhSUMDw8hm0uJLjjnz18QDSt7LjudJjrdGlrdFYyNh9RcB2fP9RI1IxODGB4f1K9mb4aejroYAcjkU2hVG5hfmkWr20ChksHwxBAq4xWcnjuLRmi1qC+J9fNhbVtrTG6QkhFNWYICVmjP37x1E/ZfuV/0y6m2VlAuDOHos8cxONzG7Pw5zMyNYmxiAhOTmzA8OolWiKgEieFUF7l0p3+kqEw2ur6C9+77bjz66GMol4rYvWsHnjtyRKwIDH4hO7ZvRSqdxYbNm7FzzzYsr6wg20mjMlzG+bkZHDl2BPNLg5hfnkE33Yul3P6mm7Bx+ySmNo6gm2mgmYJdl2/G0dPP4O777sL69VPYfcVm1DtVVMbK2L5nG+aXL6DeqWHjzgmMTFaw0lzAui1DGJzsEZRNm6ZQNY89l29BLh8iaU006stoNuoio0myZAkSbpsgQYIEFwOvmtt21/zsC/53xH7cIJKfWvNtPjpaQTrdwaFDD2N2/gJa7Rr2XbIX+UK2f53RqUE8ffgJ5PJ5zFw4i3Xrx1AsxMxDt4WR0QEsL83j4INfw8JcFdPrJjExPopWo4ZcLoVsrosHv/51ZDMFkZJs27YJ5XIJjday2IabzoTkzBLu/fKXEI0QjY6MiDpn3VQVM/MzWFmuYt3UNHK5Lmr1BVgIGb82MvkmFpYWsdxYFFtOz547jsXaGZTLGeTyobouJMQacdUD61xtmx4YrGDH7u2iYFipUsS27VtF68nJ6ZH+/YYcYOjQHRgYxPj6UVEJLJvPoFWri12wyysNXH/rvjCBubk5rNtwKTptmJi6CcVCCflsGhOTI6KSb6rn/xhcI9PYf/UlWFxZFFtpV+rL2Lf/sv4x23a8V198Nrcq0yW2z1517T7kslks1eZEn8eNmyfwve97Ky5cuICxsXEMDQ6j3amLlXNveOuNmJ+bR61excREWIc0Go0lTK0fxXs/8D1h6CAMfeNt12JsfNSqFnOHWKzX62gn4bYJEm6bIEGCBBcH32Z3Q/Tm6qwxtkKU0++JpXbhiiv34mv3P4Svfe1h5IopbN2+ATt2bxZ1/q++Zh9mPnMGf/onH+8PNDo+iFtvvQlSve7VyalR7N27G1+8537U2zXk0wUcOHAA27dv6l/8yqv34u577sNjHz6MVCqDHTs3Y9/+vWL9kB5zhOnpdXjXu98KncCFO/HeG6IvWViOwaEh0es7CKqGzuZW60Yxdlnr2UMER4asGHINlgGl0uvR6qmZtDE5OYp8JhQ2xWUPMwx/MtNElhqap+uNZZEGlko5UbFlfHxY7IPoObnl8yLbHR4eEDljvRq8DFZVjMOUUrGkaWiojFaQzU0FJ/aC2JkSulfD5iCVDlMNkf1O/3XYzYQNUSDp+WA011xlhcVikKxN91cj0zcKS2X7Mwy6Oe128G4IBm4FjI4OYXJirH/BZiPIDVfpGZIX80WMb9ssBtzrjRrS6S4azQaa7Q6Gh3ptNVNTU2JBWKh3DFo5obsn1C8Gp7We3VnCbb/jkXDbBAkSJLgYSL5tEyRIkOBi4Nt0yombo9RaZduwb+qI3jChyefhh57Eba+7GevWT+HEyeP4sz+/A5dcuhcTk8P4+gMPYWR0GDfeeq0oQPWVLz+Axx59EldcuS2MfPDg46KC1xvedCOGR4o4efw8Dj38NPZduRWlcgZ3fv7z2HvpXtx8+42iMNVX738Azx17DlMbRpHLhW17A0OjwxgYHEe3k7emnyqbXeNSnlk1fg/WLMGnPYQmMumMWC0XDArDFjX4PIaqqRCRCJGZkPJqt5qoVpfRajaQTfeeWiirCrvjYJLYs8vsWdGE/X6n/9vgcVmtrVi1oiGmd7LZEE+o04v+hIBAKDvrpjrIpLuo11bCBHrxony2v4zh3gv5AmrNFhq1BorFEH4JsZHgqJQSAx29SFSqbVU4uCuGO8J+PJctoNUOYr69UEbPnb5VR6lUQLW66voT7r2XvOqZpbfFFG6gGuEK3XYLZ8+c6q/S1NSEaPKYTadRKpSR6vRKD0NpXU/xrtsSYykr1RWxS7BnMp/EEBIg4bYJEiRIcHHw2mTJeqcH9dXg5Zte9eu+cGEG586dw65dO7D7kt2iefjZ0zMIhGZxaQnHTxzHJZfuwlVXXyVaDNzxF59DMVtEvWf/5/zZ82K9zWWXX4LR0TLOn/uyKDLQTXVxYXYBR587h9vecBuuuOIynD07I5pRt3se16G7oYFUJvgerjpdh+xYLh8JZjto+wZ5rlAw1BRlqIIXeCGfFxvtg6BByAt1tZFOrRLGYnAvz6TRqFZFv4PQib+8tIRSsRSGLhVKYgl9cKDIlbJiq0gwVM/25FbrGBoaxMryCnLZvEhOw89A1gLvC36IgthFWI1uC7lcRuTF/XsJTz+fKfSXKLwOzLkhI3L5bCaFUrBibDbFsq1QdBWmFMQcGo1gYRks5XPo9LTl8qz2d4TNRCazKsdRLFbiyL0PYTDorNZaKOQKonBBeGKhKu7xx5/CR//4U6LLw/u+/2248qp9ogt6sKHMZnoWnGs/4R0hd5cRE5U984jOqhllkiVLkHDbBAkSJLgYeG30bXtaYJ3ViG1nzQXPnlvVx6pUhsVK+IX5KgYHBkRv82otmIPVUShUREPpZrOL+fkVbN8auiR6Mw+hvdGxEWRzRXRkcPLkGTF+NzAwInK6Qr4kilQVCjmRMIYQ88jwkEhSgo13aCgI6/PYI4/i0ENHcdMtB8IEFpbm8ejDT+G6G67A7Nw8RkdHMDNzFjPnFnH+/Dx27tyCpYVl0Wp7z6WbUOqVYcG5czMIJHh8rIIzZ8/gdbe/vv9bPPzQQVyydxuOnTyKfLGMJ584hr37tmPf/ktF2bCP/NFnUK3WsG//Lpw5fQbLcy3suWwLTh47I/4Rnpocx8OPPIXBgQoGh7M4efJcmMDOnZtw3bXX4tlnnsVX7nsM23dtwZUHLsXDDz8ler/Xmit48rFnMTo2IAb+l+aCLO8Azp87j1Sui61bt/ZXqVwKD24AtZVamMCpE2fE4rnrb7wa0xsn+08zBFIX55fRWmli3WQFqXRGlAxenK+Jng6T4+v6P2fOLmD2/AImJsfpEep2z/Pc7Nwc8is5TG9cJ1pjhOMCtw18XFIBlgAJt02QIEGCi4Pk2zZBggQJLga+zQqwHkJupJcF6q7WvoTKp7kLK8jk0hgYGkGrnRYdcQYqgxgenhA1tIJ/YrE0IKqJd7tBoTyPqXXrUSwPh6EvzC6iXB5BvlCht+ObubCEbpBrSAeHmGUxkjAyOiYmshqtupicGR4ZESurQltXsPM5d24WDx18Evv2Xy5a2mBufh6XXLYH99//sJg7KpRyGBwqYv2GaZybmUEn1UG9VcfGLRtx7OgpTI6PYfbCCk4cP4XaSguj4yUcO34Ub3jd27G02EtSPXLwaTELdOzkMWzYuhEbt0zj0YeewZat2/qP6dSpGezcuRmHn34WiwuL2LJ5O5aXmzhx4jz27tqOmfPzWF5axK4dWzA6NozzZ+fCBTdOb0WrmcLpUzPYvHkDzpyYxZHhM/j6Vx/F5fsuw9Zdm/HkY89hamojnnjiCWxYtxmbt27E+XP3YnR4DPVqF089/ayYTytkK0jHNNmFc/M4cNM+MT+mk0U6lcXC3BI+/YkvYfbceVExI/hahohKt53GlVftx/Ydpf7jG58cw6c++Xn9ZGZQKI8WnEvLK+i20vixn/phjI4Pi8m6UO0X6vkymdfmX9nfXBw7dgwHDx7E+vXrX8UVnnrqKfzAD/zAyx/22GOPiX71rw6VSgWXXnrpq77CyyDhtgkSJEhwMfBtZsl6Z/XsZHIpseolm8mKHubtZhsTExO4cGFObMMP9V5B57TZ6mB2doFedVTIMJw6c1YsTsrnCsjni5i9MB+GrjfrGBmu4OSJ0+ik6qhVmygNBAM+YsnR0HAFi0uLOH7yhGhyI7PapBCIedAMy/fsTzpIZTLYf9WlePyxHrdttlq46sAVeOTQQxgYqIiCubnMOoztHcPUuglRB2ty/QSuv+E6PHzwIawsLqJYLOkrXRUamJ1bQLE4IDppFvoVYJUsjjx3XCw8KpcquGTvHpw6FQhyA6VSGe1GC7OzFzA+NoaV5bpYH7Zx0yZMTk7gzPkLKBWK9PYK2XxW3BNMrpsKExgZHUc61Huls9ixfQdqtadw6uRZLNeqmF2Yw97CXtE6fmx0Ap3Ok1iYXxLdy9dNb8RApSKywpAZW1paxELjLHbu2BEmcGF2DguLC8hkcuL+JnQozM0u49GHn8Txo6dELeNuk1h02G3A0NAkZs6fF5XALt+/F5/++Jew0kt/EUv6EBosBoYLePjgIdz2+hvFfwuBCK8KTHxnZ8lOnz6Nn/7pn37VV7jtttvwwQ9+8OUPu+uuu/BLv/RLr3qgn/u5n8PevXtf9RVeFEePHpVw2wQJEiS4OHiNHM7Xdjf0opZ5sVxmx57NeOyxJ/Grv/JfPb/P9dIrduMLn/sChsYGsffyXfjCXXfhzjshn81g995tmL0whzvu+HQYeveenXjk68/iyScfRSrVQqGcx/T6jfjsZ7+ADZtGUBku4aMf/oS+oFQuhV17t2JiahyZTNCUSvdvLUhV5XNtfPKTd2BocDRMIMhiff7OO8Ug7/jEmBgCPvbsKVFeK+h+bdgwjccfexqfWvwLUfXqwswFZNJZDI+NYPnUCqQzKJSzaLSbyPU0sQyODYgdHPlyQZTK/eznPif274bSq1azLQZDg17amTOnxX7WSqUkksfSQBHnTq6g1WijVBpApphHWwfVeq8Aa6m2gkKlTK8j40v3fwWtOgyNDGBichTnz1wQvREDla7XGyLTHxgpY3F5AYERBlZbrVaRz+VQKhXRarcwNtZb/NMnzogaZo1w2VoNUh1Mb5zCLa+/HieOncXG9evRbWXQbK4GVTdt3YjJ9VNo1KtiEPa9H/ze/mcgaIyVS71/MufmziNfzOPqa3uCv6LGW+C26fQqm3l1/8R+9Ed/FHfffTd+7/d+D9dee+0rP/3Xf/3X8fu///sivQp45zvfiR/6oR960Qvu3r375S+7ZcsW3HrrrfgH/+AfYPPmzS9z/DXXXNN/Hcjjj/3Yj73CWwgrEPBN1/D973//t3TxFyJINr/mG5GwYgm3TZAgQYKLgdequ2FVj6ZXjZDJol6r4/rrrxVDikefPSmqf1YGK9i5ZweOHzshsqHL9u/Eww8/ipWVZbFFddeencimsqg1LoShJyenMTI8heWVWVRri5icWofNG3fi/IWTWD89Iur2n5uZxdLKkthWu3vPHuR7grx1dHvtn5Av5XHFNZfg2NEZXHVgf5jA/PwMnn32CG5/3a1iq2vwHZhYN4byQAF7L9sj5mRDuDmIqO6/4go8e/hZNFtNbNy4Edvnt/RXNfgdBEXgdqpXYH/N9VeKsqqh+7barKI0k8GePXtQLIcH0cJ1t1yG9dNTGBopYnxiSAyjj4yWUa8vY+vOjdi0eQOOHX8W1foCMoUJ7Nq7PUwgX86gm25i5yVb0eo2Mb1+Wty73DxxLc6fm0E3VRd7IoaGh3HpZTuxtLQEqQa2bZ8Wu3tDecDoeFlkuCEU2u9dLuTTWFpZREcN9eYSQn91WJNbX38Nsqk8BsrDKJbKorlGsMv75Mf/Age/8ijSmRS2X7IB3/N978DGjRv6k+k2ezUJtWYd2VxaX1C4p28bNkar/6CiTtNrQ5de4XXe85734JFHHsHw8DB+8Ad/UORuH//4x/s/A2VeSz/X4p/9s3/Wf33ixInw4qGHHsLv/u7v9n/+p//0n0TK/PI4fvw4vvrVr76Su8Ds7CxGR0e9gnsPd/rtLPW3f4WXQcJtEyRIkOBiIPm2TZAgQYKLgdem7joUSGW7aVFaKShlBToeskD7r7wE+67YLUpqNdrBT6WGy/dvF+VEQwH5jbdcgXRmNVVVzJdExdhWN/6d6MBV1+5BOtMQ3RvbrTRK+UHkyyMI6lq7927Fju5WtDptNGrBCbGkb9XeJnY3BL+ZTDaH6Q0bsHPnZdYYXKZzQxgcuVRUhGr36oygMrwRzUYT45MbxW37/qv26KvZttrYuXerqJUVMDRaFjUowpGt7hLS+V4kYePWMTEtGZDJTqLT2SRu5Ku1OZTLRWzfub6/mNMbRrFp84SYxMvl8piaDgmoVZHZsXV7RVHaIMg7Uey5xeTy0E5VMTiSxzU3XI5cJq+fI+qksKkyJTo5hjxSEBK7Yv8l/cvmgkRvGD69Kj47NlGxKszWsUaEbN2G3f3Lhhq1nq6FUERYFZtu8vkMlpsLaHZr/Xvspru44dar0ek2xQqwt77z9SgP5XFh/qzYUhEiEqJ4mHSQzQ1RhTxqK/X+DHtKYP5StqUvhRAfCDGEffv24Td/8zcxMjLSP+bNb34z/uk//af4+Z//eXzmM5950au9TMYpDBQu8q//9b/G/v37fbOM2dr4wytHqAB7UYTWibNnz35LF3x5hNBWEG95qRjLq0DCbRMkSJDgYuBVZsl6xnap3lmpqHPb/xkoWvjZbgfF/sDIWqg3VtAM9Uz5HJaXl0SOky/m0FVHOmibhgun2v1rNqs9l++gbpXOFlFtLuu3+aayWK5eQLkS2ijraDSraLcyYiov1AA16kFsrIF8Li3SyWBDEGwpSkHIqtpcu2KpdBvt4NiYzYjdHEEKNtC7TCGNVquGdColitL2/BCDh2CjIe4MstkcSuWCaD0Q7AjDAodbE6mTTBedYDsYDBnTqwmlkEcKua9gPB48vQNTW1leWn1kAm0M65kVO5t765lJIdXqiEnR/lMLkq/hGWXC3HpuC3nRaSLV7SKTX12Hc2fP9pd9bHwci/Oz+p0yqRSGR4b6a1VvdFGulJBL99h9s7UsfvzymZL4mexdJBhN5kIHdpde40y71wieRTfVxoZNk3jvD3w3qtUVDA6W9b0gg9hvN42cXvldo94QTeDDCuRzebQynf5noPNtO5yvPesVZtt+4zd+o//6H//jf+zFMj/veMc78OEPf1jkvy912ZcZLlzk/vvvF1Ntf/RHfySy3ZdC6L5917ve9fJ30ce///f/3sve+5kzZ8Qc4GuLkCEMTrKvCRJumyBBggQXA98Wt40xWu1uU4yoBmWY6c3jSGWDKVYOqXYZd/zFnbjzC18Q9TsCBww2X6NjQ7jtu67Cjt0bxabbtDwWZ1v43B134+knDse5BP6cQirbxcaNE3jjW2/C2HgWjUawRRjCieNL+NwdX8b5CxfoBRZDdC8jg0uv2Imbb7schWIK6W4erVQWj3z9YXzlyw+G4YMfV6e1ylKD6Mntb7gZ+w/sgM4yuu0cGrUsPvuZO3H48DP0ekBDO6kW0SP9e973NqzbMEyP1zcbQf9lLgx95x13YebceXoMKtVjwClcec0+3HL7AX1WW02h08rjqSefwV2fvxsrtRV9w7RuGqVKATe97ipcccUe1KorGCiNoBY3Fg/ccwgHv/qEaLfebXeRzqWxbnoCt99+K3bu3Nq/yerKEu75zNdFH/jNW7bh8NPPYHRiECNjQygWwl4BRiYGsOeybUjlev2zrXoTmVD9Vm+gmAvuYVlkUwW0VhqicHDwpms2wiapg+riMjS6YkNKOldCfbGBlWpVbCMORhK5TDkMHdRs55aWxTaK0L0SvDaCKk34+GbSq/WR3w5eIbcNEduA22+//WVO+R//4398w8VfatCXwetf/3qR24ahX3jK1772tf7rcGT4+coROiledDKBez7++OPf9CLhfn/5l38Z//t//2+vLCb7GlaDJdw2QYIECS4Gkm/bBAkSJLgYeNUVYB2ria9otd1NYdfurdixZ4uYWml3Ozj57Bnc+ZkvodFqY3mlKm760tkcLswu4e677sPkurfoB/jbeRx66BAOP3EcOr1kxcpSTexhLxYqOHdmCY8/8jSuv+kSlIpFLM43cf+9D2FxoY56dVW+IJ8uIl/K4cGvPo7t2yew55ItKGaHcfips7jn81+Gbq/uqrrYRLuRQqsDoyPD+MoXD2HnzmkMDmeQTZXwta8fwlOPHsNKSNk12sinCv0nkkm18NV7H8S73/MGUfQg3Snivi88GIY+e3JBFAYLaaiQXBocGcHhJ05gev0E9l2xq3/xxbk2HvjK42g1ulhZrOkn6HrJvRQevP8QNq1fj5GRQWQ6OTzxyBNhAk8+ehTtRhrV5eBGHqTUMjjTmsPX7n0YG9dtwOBwnl60ZGlxRVQCa1a7WJprYPeu9Vi/fgoPPfR1DFTy2HXJNmTSedFxB9mgkNBsIpUKZukppBVw9+fvx3OHj6G6VMMtt1+PK6+8An/+J5/E4mJV9EY6cOBK7Ni5HR/58MfRbNVE3Yy3vuVtKJV6UZQ//IMPo5tuidrNH/jg92CgPIBMKo10L/34t1n9K5RJvTx27tzp+Zv90NIWEErTXvjOWnzhC1/4VicW4gZBxuHlES5+5ZVXvujQryESbpsgQYIEFwOvjU5CvpCHbkvMawWjvVDjncsWMD8/j6cOP42/96PvwQ03HEC7mcdytY3//Xu/h1Mnn+5PKViO57NZUb52YW4BP/Kh7w9DT28YR6PRxsy5JfzW//xfmJkZ7U+m3epCJ43HHn0S66c34Qf/3o+io46B0hju/eID+NiH/5S+eO9qWduFC7M4/PRRfPAHeiUs11x1GbpyqFZTuONTX8ShRw+ChljdFYrJFhfmcPbUafzoP/o+TE4OY6g8ifPnqvj93/1jzM6fRacb6FUHzUYNJ0/2xJwyafjJf/wjKJQgny3j0CNP46N//DEsXL0JXZvFpv7FpQs48syTuPKaXfjQW9+FdjONdKqMP/qDj+Ho08fEBGCwTgjO5ydPngwTOHH8NL7/g+/Hrp3bxdq+oN31P3/j97Awv4BsroNqdQHZbHiyLZw48RwGdleQK6+WalUqOdTrIX3XweTkuLidCiaPaIa+huC7HhTLBio4fuQU7rrzS7j2muvwzNwRfOwjd2JpoYWDDxzGVVfvx+DwIL5870EcOXwahx56Em97+9tw7tx5fOLjd2JyvKfte/bcGbz57a/DH//xR/CZOwbxgfe/z2pN5CouWpbsL2PQb+mAF74TXBt+8Rd/EX/wB3/Qf/+mm24SM2A/8RM/IcqSvf3tb8ev/MqviJK1oRjrP/yH/xBODNm/l8InPvEJMRv2qU99SixNe+Ekg1zDj//4j/enEVTT/pKQcNsECRIkuBh4rTp3u2i3Wjh06FGkC12s2zCOUjGHpaUVemxzcHAAQ0PDqK50xU6H2Zk5DA+NiGU3wQMiMNwLFy6gUMyjGGVGA68plSo4efwCzp+dxUBlCOle/0JOrHhfml9BaXsewyOhHj6DbivUAy2h1Ql1RT3fdtFku9XsiOKtQRMW5cGMSICLpSIWFmZQGQwNFA1ksm00msuYm70gWl2VylkMDReRz4TBalhcnMeOS8bREdatg+XlOlp6VgKh8ik0tnY6KyiXczg/cxb11jJyhQ7a3RVkUinML5xDvVrF4FABhVIK6XIerXoWtWpoLQlrWxZZbbGYt2rlLdNNY2S4jGI5h6HRUZw90xDVbFP5LrrpBnIFaNdb2LR1HFs2b8XCwjJSxxt48vCTqAznsHHzejEwffLUKTTbdazb2COYoWMlOJkXQh3YyhLm5udEe7Qz0zNo1jtYWlzGqVNnRceHILM7f/QEZs7OoZitYHm5iqNHj6NYKIpu6qEHGrv2bBPrF0u5ASwtVl30Pt2XRwiG/qXGIkNzwcsjNMIGgd1f+7Vfw7/6V/+q/9sbb7zxG46//PLL+69/53d+BwsLC/3rfFN89KMfxdDQkEiQXwqhAiw0XISitH/7b//tN0zvNUTCbRMkSJDgYiD5tk2QIEGCi4FvL0sWBatmZ+dRKITNZlEUcg6d451uF3NzsygUcygVQ7VTV6xtCnmVxcVFjATlYFAshsxSCwuL8yiVChgaqvRuIPTld9ti4iWgXKyIvfBB32tp8RyWF4ORYh6N1grSmWBJnRXFsEMdVdgk9uTNMhm0QkNSJ/y2t3TN5hIKpTKWluZRrS0jX0gjl08hWFx3go5Xuy4qJ4RKqRCsCMcsLMxipbqM0dEhpNOd/q1V60uiCDo2rF+vn0BrN0Q9hNmZWXTbKYyMDCDVk5hoYXFpVpSkGBsbRi6fRq1aQ7NBrKkKdkflSkVUD2iHh7XSW+fwjMqVQn+IdrspxlIa9Vp/GYN5YqgPCytw3Q1XoFAYxOJCDZu3bBa9QSsDebFHKwSCwoPIp/LWfFwHy4OigH2QjstmU5hevw47L9uIxfoCqo1l7L10Fw5ccwXm52axees0jh8/hgPXX46tW7bg3OxxrJsewcmTp3DzbddgbHwoDP3pOz6HbqqF8kAR1153oH+PL4wnXDQ18aB7ENq6vvjFL4qCBi/EP/yH/xCXXXYZfuRHfsSLxRy+6XBh2x7wpje96UVPCVmv//yf/7O4YQ/DvdQQ4Z1QmHXPPff0pxqu8zKz+sM//MP+KT/zMz+DTZs2eekEY3jnX/7LfylGXcL0wvuveTwh4bYJEiRIcDHwqrNkqTU/o6tzKovdey4RNS4DSQw5tFA+VciVMTA41D+r2WyJNT0rS1Xk80GGtYNqrYZmM4XFuWVsnJ5GKt37MxW8rHPZDBYXFtHuiUVVRH2AWq0hVvKHpoRQvV+rLaFQzKDdDr4pNRTLGZTLBX3B2W4XK9UV5AppkXSLGmaB+rVaaTSaNQyNVlAoFJEvtLAwXxer+gcHBjE6Mo52J2ikdUW7xiBEELx2gllhKN5qtdr0POQxUBkUM4StTrW/mD3Fg3RGlBML7xcrebSaPSUxUTQ2SotlUKkMoNvqohTKsGphTbIiI15a6DUXhIFCqioIAReKWdTqVXraDoNDJaR6zuBtlIoVlIpD6LSzKOSG9M1+qkFQGErlUpxdvyKwieVqj92vtKv9RxCaa0LRYalSwg//6Pfjnru+Alsm8c53vFmUpi0P3o7P3fl5bNu+Bbfdeo3oFV/vXC9awuy8ZAtuvulq5DK97Gin28KDDz0kKlpce+3VWJyf91eaKwu08Wd/9mfxq7/6q7j55ps9n7eGGqnAAZ977jn8k3/yT77VgdZeJKSk3vKWt7zM8cHhPEwsyI+9FIIlTyjGCldey4VfFE888YQosxvY/Yc+9KFXeCMBgeEGtdzgm/nd3/3dEg2wBAkSJPgbh1cdt121VMDAwCCy+VAHFvRJ06LDeTaTErVQQwlRJp1GrVYTyVeI2wbp1YGhskgqgw9CdaWNpV6TbkeflMU4XRC/CuVigXBncpn+DIPQapCbCmL7I+OjGBoaRDfVQH2lI5aYDA5WxHKuEJ8NMdDl0OWZTYvar2g2guFgEctLi1hYWMTmbRtE9bJWo4VOK4NGvYNSYVBsMA1dnu1WCufPLohNtBPjUyjkB9BuB15cw/JcNQw9MjSOatDbDapXmZxY7RRc2VOpPNKpIJWbwfJSU6xmG6iMQDeHQj6HhbmaqH01WMwhXyiIArshOBu8HlAo5TAwOCD6VnTadVRXlsV22JGRCWTSRVyYncXjTzyNM6fnsH3bZtFo4/Tps6IB+9Hjx7C4OIt9V1xGz7S8J2Wb7z39am0F27Zv7z/3Hv1PtTA8OoR3vutN6LZbKBSykG5hcnoEf/dH3i+KDof+71qjjksu347LrtjVf+K5dEZss8Ztt90sKr21Og1Rxzkw9J70cNz8eS30bf/8z/8cDzzwwAsPm56eFuOzIbgZ6vYDR3vb297W/21oMvrkJz/ZPzfw31eiE9YvwArh4EOHDonc87d+67d8MwvFMLH/+T//J66++upvuMcXnhX2x//oH/2jl79yiLeGXoYwmVDF9fJtFy8cNAwRzg09EWGSiQZYggQJEvwNw7dVk9APIIa/56lUB0eOPId0voup9aG7IY2zZ86jXK5gZGRY37cqExhfE+16iOuVrWrF5kRiFfTwhwaGxbAsup0mgjXXwsI8MvmuyHkD0Q6kY2FpNaBWzOfp1VSEaoQgQrq8vIzKQEWUKA2W46lOW7RQCxHbMEkUC4PI5YtIp1qoVzsYHpxAt5tDNl1Cs7GIublFrF+/GdlsGZl0Hbp5dNsZdFqBqpfQqEM2VxC5cDP2rQZ39yCbG+OJOXo9ykHuZ3RkCropdDs51JYbSLVD9HlIJJ4pOTTqiyI1Gx0ZQalURFcTKytLorWaWI0QnlGIwpcr5f4Mg0BMoVBGq51CqTQkBpGfffY5sZNlbnZJtJx45JGnxNaSc+dmkCsU8BefvgNTk6PYtGF9mEAoaNm+dQeqtR7lF/s+Ah3OBL+yVh4LC2F3khF9OrLZZvgYiRrH2WwaQ8ODolJw6AtP5UIHc08OaW5+Bp1URyxxqVQqqLVb9KzSAhMP/7a+fYoUiOqL4pZbbrEmZY9f+IVfwIYNG8S+1bWnB7YbPMf27NnzMtN70e6AwDq///u/H3//7/99z0/9BwQn82eeecbzlWuCDdpahCjt2mPCdX7qp35KXNW1Crkiyw79u4GT/vf//t/F6O3aOwqebPfdd5/YXhEwOTn5oncdzn35NXnVSLhtggQJElwMJN+2CRIkSHAx8G1qgMUKsFZXVG86d3oO6WwaN958bf+3ocAoZMDOnL6AVidkVDqYObeIgZESKoMlUXQq5NlCWc/w4KBYVXb4yeNxCm3ksiVx4zk6OoyhoQFRRSEYKYaE27r161BvtPDM0yfEBFS3mUVHB2PjY2LhUSFfxPkzC6ID9uj4kJiwwvFjbbRaXTxz+AwqA0MYHRvHo488hZNnjmDfZdciny1geHgEZ0/Pot1eFtNcC4vLouprMV9GNpMXLRpDKm9gYCQMvbi0gqefPopMJoQX0qg2GpicWIfFuRXcfdf9uOGG21AZHMTw6AiW5ut46oljCB+GhfkqCqUsptZNol6rI1dIiaoCpVLP5TvoFx995hTqzQZGRwcxM7OIoeFhjIyM959+qIe77LJLUV1pIJ8vYnS0gMsuuxyPPPJwf5HLAzmMjo+JLuIB/RBWubSaUC0VSmIbSL3VQqanW5ZFvdrFH/zun4ntNlNTk2i1QyQqeLxnxNKu17/+dnHLXGvU0MlksVRbDkM/+tghLC0vYGxyHPv3X4F6PcSFXpvuhv/23/7bKz/4hUOEbX74+crPevjhh1/5oC91kaCf8JM/+ZPf9Ny1qmBr33nh+32EyMkLbc9fGAEIqrUhHhKeZoifbNy48UWn/ZeKhNsmSJAgwcXAq+5uCF/TPW7baQdbbGL1UkroWw3VMG28+3u/W6yI/rf/+pdRq7XpsYAtWzfhTW99Aw5cc6loPN5uNsSUxVvf/Qbc9Zkv4bOfvicMHRy1s9ksLrt8N973/e8R/3bVajPI5/O4fN8lOHFiEXd86k7MzMz0J1ws5HHjLdfjlttvQKVcQa2+grGxMdx2+62o1T+L//JrvxUmUFuui38kA3F+43e9FVddeTW++sDncezoKVx7TQnf9/734JN/fgf+3//uc9aotWL3JTvxg3/vBzC9cQPanWUUchns2L0dt91+czj483d+HufOnBPzWkMjA7ju+mvx3vd+L2SW8OyRE7hiXxU33HAD5mbn8d/+v78himx1WzC9aRLX3XA1br75xv5DDu0b5fIArr/pyjCBe77wNfzKL/06uqkOvbbmPfs2441vux0bNq8Xu5mDFlqgn0FobXR8BI898iS+fvAB0RO+VM5jZqGFJx59GulgPLGwiNPxgxeU20aGRjC9cVoUEe6m6FuHdFrodPN4+GtPYu++S/Cud79XzI6GBpOBgTI+89k78OlP34kf/DsfFPtHwpFPHjkUhg4Vb1OTe3Hq/HM4fuI4Nq7bLCZjX4Ui7d8ahKaAV0GTXwnWGj38FU7jW0XCbRMkSJDgYuC18W4Ipf5pHTEoFpoCAuWs1xp44OsPiBTsHe98A5qNJprtFBYXazh+9AT2XbkFpYESPWJ1/twMnnrsCKY3bMSley8JQ680FsVg7sLcMo49exz7r9qBXD4riv8fO3oMp06cEuuWM/kO6vWq2FwwMzMrKplu2bJLNKwO1WMHDz4sNii/7vU9Uc5QNh/+bi2vNPD4Y49h157NuOb6fbj6+i2Yn13EV+5/EOumR7Fp53XoBDmVVBHnzi7g8ccexc4960RTrKBTc/zEKRw5ciQMfflle1E8sA+tVE3sS56bmcNzR5/FlQe244M/9D0YrEzg/nsOYWlpAW988y1o9BzOM/11OH3qjFgJPzQyCakcLszM4qknepU066c3YsOGHWLHSuioPn3+BA4/cQR79+1FoZxFu1tHJtfF5LqR/s9z50exvLyCXbt3i5274xOj6HZSos5/t9vC/MyFMIHlhSXMz85janJSbHvp9fJmU2i1O6jWl5EpZFBtrODkqaMoFnP0el4arbLo9z4xNQapBmr1FgYrFQwM9koPl5aWsbS8JHaZDw0OiRI53Vj2FX98hzLcvyS8fBvFX1sk3DZBggQJLgaSb9sECRIkuBh4bSIJ4exOz6GvJfYLhexZ2HPd+6X7sHPHdvzA33kvmu0aGvUsPvrhT+Gzn/ksbrh1L8Ymi2LS49TJU3jwgYfxnvd9L26+tSfMEyufMvj//PtfE33LFxcXMDjcEduc7r7nHpw/18YHfuD7MT41jJXaHGbPruCX/+9fxYbpdWhdtx35fAGzMwu45657sGfPXrzjXW8MEwid99I53HvPQfyv3/4IrrtpH7bv2Y1uqo3DTz2Duz53N37i//wRXHnDVqS00aim8bu//ed46OCDeONbrkWpkhfLmI4++xwef/TJMPT/42f/MbbtXIdsro0Tx8/iP//yr2NguISrrtmGqalxnDszh3u//EUx9vL3PvR9KJSDP/wAPveZL+OLv3c/Dly3D5u3hh16FvPzi3jggV7O4c1veQve/Oa3ip2BzWYN/+u3fx+HHn4C73r/m5DKdNFuVJEvwK7dW1HIZ3Hd9SHtFjKrQUNjGSNjFWTzJeRCcCHUGvZZQrslplJDyWAw3OwGVQep/s9svo33/MCbkM/lsLhyGnOLDVH7LagobNhYwY5dWyGzjFw+j2q9jm3btoSRnzn8DI6fOobNW7eK/k/t5ppm/DUWon/jtr0JXnMk3DZBggQJLgZeJbftqdtGH+dU+Bve6YhNAcHsINQDLc4voN3ooDJQFjWTQnqq2y2gWl3C4MAAhgaGkE3nkUkVMTuzJEoxVYayYieFqPm0HFIWi8uYnBpHrpATVQ6CikIQEgsqB+lsG53uCgYGijjx3Bmxkn94cBipVAmddlBaWEaz3UF5oEAvr4JcsRxv3YX5GRQG0hgeLaPd7qKbCuKwLbHvI0jrBumpoA3W7aYwuziLkYlB5ApZxPKwLOYXlzE41jMiDAaUjdYy2rpic8TyUlWU0E1ncqtPKg2NVhUbNqzrr0O4k+Xgnzg7J/LBgYEgL9vqP44LMytYXmiECYwMDyGVrolJttCDEPR5A9nM5brIZ9PotLJiJ8hAuYx6rSMqhwW9hW47i2wqI/Y+hA6XYM8R9jqFKMDWaqSQLub68++kO6JVRNCxDZ/tIDF84837kckEBbuONXJiYvFZK9jRF4J+cUoUMwsPom8PsnvXJdi0ZbOok5DLF8T2h3bIj4UVDwJjCbf9jkfCbRMkSJDgYuBVdzcEtdN4lUwG7U5brATq8ZpMVtT3CsHd4dFB5ItZtDppNOotzM9fEMt3grxWLl1Ep5nB8nwT2UwaA8MZyPToVVDsr7eCfUAL2XxG7NkNslKNehsr1ZRYo55K1dBsVZHNVlBvLCBfySBfyiGTHhTJWitIc7UhH2qGIiWq1psi2a+3aihUsqKbd6sVhFMLqNcCt+2iPJgXbSZSqQIarQYWlxawdesGUZKq2cz2b2F5qWWNWlKulKJnHp7O5tGod1GvBZngYTTbgV4Fk/kalmqLGJ3agVS2i+WVKnK5AlotSFnjXpFJiYH4cP1O7MYIMdZAG5utGlqththpHcTYBJG2RgbaWTSqwUqjjpSsuDUJjvdhXSvlYbEELYiQhazAwuwcBqK9fKjWGhocQLHSo/yiAtzS4pIYpS3mcqKpXaNRRToV7qUrst2MLDK5MupLLdFyIsRtw8NaHSIVhNZyaDdTyKTC0AWxW71X+9X/d5LgOxsJt02QIEGCi4Hk2zZBggQJLga+vSxZ/N/g8xgUlIPmd6cV5BJSmJufE02zJyemRNGmKLJVwNJyXTRtLBWL4m40pGsuXJgT62lCtCEVzdWLxRJq1XNixixsOUNeKJhj94x5llsYGx9GsVRCpheOSIu7ztB1NjhcEuUdwh4zbAzDdj6dDTGK3tKluquZkJlzMygXSqIKcqyNI+aOCsU0JiZHUSxW0GgQhbrnZ1dQ2lsWIwZh0LDCs+fnkM/0BK1jGio4WoZyukb/3kMfXcjyNbttNBpdLM42RE+d4CGUHcj37zE4ZqYz6f7aBsGtcGRaWhTBQDksYzYjel82Gg2s1JYxPFZEqRSkubr9E++796CYwNy5czs++5kv4OqrrxHNK6+//mrc/fn7sH79NIZHhnDfl+/HTbdcFybwpbvuxxvefCN27toppl5D++IX7/qKqBoxPFLGynID2aA13tWfUqPWwtDYML78pQfwsY98Dhs2jqM8MIBTR2cwNTUchg59g0GGraONyy7fiXe88630hOrX/qNKsmQJEm6bIEGCBBcDr013Q6BwQQOh53aezogVToE21mp15POhrCpYiKSwtFzF0kIVpcKq80o6HXz0uqLrdUhWVMqDq1egWg9pmdWsXblUWHNHHbHkvrHSQG59qIjKiayt2eyIHjm5YsiKpMQi/G43LcqYhhss5ivI58pr7z3QyVD8PzQ0Ivq7BFYbSPfc/Lyo8JsvBKueVP/c4BTZroZ6qWDdmBZzg0vNOuqtBqbX93xiCsUSWs0VfY4f8j95IhnMh2KpXutBE91UF8VCmP9q9i8MV68147L19GGDZVHYmgTtpVCKh6GRYdHBM6x3u9NBvdrAyMQAUqlgRER0RF+YreLU2RMYHBzE8WNnsWvXIhYXF1Eq5fSr4i4s4Oy5GbTaXTzx+OEwgfMzM3ji8eewYcM2fOX+g5ifm8PcwhI+9YnPYdee3aKW22OPPoFtWzfjiisuRSadQ6uZwcz5Bcycv4C3vPUtOHnyNMoDNYyPrgtDj452Mbc0i1Mnz+P48dP9D4xVmYREJyFBDwm3TZAgQYKLgdeG24YYXPiD3vN2RGSpywt1pGUwPjaJXL6EgVQXjeoKUp10/9zAjrvNBvLBwLzbwWCljEKhgm6nV4FVqQyi2TyKTLGLylCo9Smi0WxgYXEesi2UKyXRkSG4+wXKHGqJSsHWsADV2oIosxuaLwJPHBufQCbTqzdqd5pigVSt1kJ5PCuGjHPFAtrVNpaWV8SgYaiED9Xva83Yw5+/4KWYza02JoSgarP6vAqw8GaxXEI+n0Ott5hhZQoollabR4LIVthSlMoVtBrEDoggtRW4bWmggGwhh2w+h2q9huWVGgrlnndDvlREzzQiBMfrDVQbNYyObhaJc4izB324fDknEuTlpSWsWz8i9rbc/6UHRXniPbt34+CDj2NpZQHXXHPAGpfv6elNot9EUC977shJDAwOiubwoU/h8NNHMX3bFpw8dg6bN24VjThDu3mrGboeMhgMLTaZAhbml7Bl83Y8fuixMPSGjdOYmJrA7Mwyspls/04DK19LcRNumyDhtgkSJEhwMfBaqdKEPsXQNNlFoRd362K5VsX4ugnceecX8LE/P4euNsrl1X6H0dFRDI8MY7l6FvXmCioDOTQ7DfzRH30U3Xbv70Q2VUCxEk6vYHBoEA98/UHMzS1g144dGB0bESvb/3+//buoVWuigGwQTh2sDGJ0bADSDTSadbF0f9OOdfjKV7+Krz3Qs1xOdbti72ZgnePjE7gwM4e7vvAlXH/jVcjm06IUzkc/8kk0mm0x3ByK8DfvmkA618UjDz+KM2fmsX3LduRzRdSjwfhv/4/fR6YUtFcgrYup6VGxSOBTn/o0Nm3aIHq2r1s3KhpQ/6/fOopOKmwmMqL2yqatm8UQ6l1334GrrroWMm1Mb+zFLv/kjz6GVrqGdiONSqWEcrEsuquF4o3Q/NoMsek25LJlnDu9gJGhSTQbbbFDt7pSxfoNU7jr818Wmyw2b9mIu+76YpjAkaeOYWrDOBYXl/qnbNu2HYcOPYIdO3bikUMP48gzz2L9xkls37lNrOVIrWmuDVJK1Wpdn+kXyzh58hRuvvmmMHQ6l8GxE8+KO5tsKzyI1Vbg+O8i4bYJSLhtggQJElwcJN+2CRIkSHAx8NpEEnqZnE4HhWLQ6AqG2HVcf8MBzM1UcfCBh7G4PIdUJoVsKhg4Xo7bbg9uKB3kC1mxqv+a66/AJz9xDx4/dNiaAvuQ2xkeHcDuvVtx2WV78dk77sbSyiIOXH0lrjxwKb523yFcmJkPZ6PTbWN4YgA337pPtOkOyaZwI9t2bMZzz53Eo48cwdLCUphAaC4olorYtGUaB67bj4XFBTz8yCHs3LMFl19+Ke699yt48rEjaHSacRylcgZ7L9uOK/Zfivvu+xrmZ6u4ZM9uHLjhSjxysGdEeObsWTEOEEIJk5PDuOn2A6gMFPHwwcdEwYorrtqLbbs24bFHDotleSGl022msW37Ntz2utuwvFTDQw88g0t278P+q/bh3JnZMIHDzxxBs9lAJ9VFuVjBti27sGvPLrG4KoirhcaT4coQxkfGxMK70DASWk5uuvl6USU25Eu3bd/cv52V6hx27dkYJvCud78Zjxx6DLNz50X7yFDDF9TdwomjY0N49tlnMDe7jEcffRg33XS9+AHOZoO//SAKpTwe+MrXRafRuZl55FK9fzIhnjMzOyvapG/ftad/qYBQDZZKNMASIOG2CRIkSHBx0Ps7fP/9939Lp1173TVisT2+dN9daHaq+Jf/1/8T+6++FN/97reiUChj5lwNJ04cQ605g5QOup0SRkemxX7WdvcCWt05eiU07VYBx4+fR7VWRSbTK0KKBUYpjE0MYXS0jPMXzqDdbmL9uo2ilOqJYzOiaFMg0d1UU/Q+2LRlCtkckZiHgVIKWFqo48L5JaysrIQJ5IpZFIt5scVgrJeOq2N+YRGjo6Hds4u5uQtiSidwN93QHNzCxk3rMTY2jNOnz/SHnprcKArXnjp1qnfv3TpSmQZa7YbI9Ddv3iLWwAUZrVAfNjIyitnZeZw9PYNOKKTrlStlMTgwgqn1Y2h2ZjE7dxqTk+uQy47i5PEzYQKLyzPoWqb3UcqmBjE6sgmDAzmkMu34yx6/CwsbdgPtdktsku53Y4t7mlIpj1RqtXcm1JlVa7VwWKVcQqPRFJsIQs9xq9my2p+dEdVvQ39H6MYOFw/1YaEHutvuilpfQbAtJS92gjRD37Ze27RUF91M6P/tiAbpwVD9Ix/+GO7/4kH8y3/x/8Llu66W4DsJ119/PZ5++mlMTk5KuG2CBAkSXBy8an3b52PVfqlX7xK5zOqvN21ah3Xrh0Vuu7S8iEJuFOnuABYXZ1Fv10ROlM2mReWaLVs3IJsLHRA9Vh4q/EPZvFRQpaljfHxIJE0LC3OolMewa9cO1GpNFAo5pDMdNNvL6Hab6HRaokl74L+dTgODgwUMjwyKzQti6DMoswSzgOXlJRQDdSqNibI4YWWmN6zDhtT6/uLlMnlRGbbZaojODoHhptMFdDpNDA2FgHJvWYPATUcg+x1RXLXVDM3TML1hUpT4qdaWMDIyoO/skMr1F7NUGsDS0gqkA49rY2JqWFSMbTfrGJ8YCRNYv2EI6VwN7VYTmfQQ0t1BpDSxXF0Q+1yCDnLgqmF62bCPeN7nsLvmVQupdHgc4VwoZ3osodVaQT5sLAqhj6OBfD7w1tW2kaGh4EORF4WNeg4OnQ4y6Y7YpFMeKGNoaEBkuOGxBteGrN6mKjRAh6B5mECQQq6urHb6JEiwFgm3TZAgQYKLgeTbNkGCBAkuBl6bCrBQ2cOapqY1agmhx6zWWESrvYJWO2h6wVe//BXcecfXsLi8hIHRNL7rLftxyd7t4i47XLvVDuGCXiSh2er05x8aurK5LOr1Gmr1Ku656+t49OBJsZl9eusovuvNt2J8bETURS0Wi2g3W3G0Xo4lRBVSPc2GOr2oBU6fOYbPfOpLWFqso1TJ4vobD2Df/t3ohJmHFE02I25mQ46o1arT76ZviZ11Qaz2y196EPfd86gYURmbqoSh3/b2N2Bq/QiazWpvsfVCDaGyrVptIp1OIZcLal41ZLN5nDp5Bp/887uwcGEZ2TLcdMs12L13GtlUS3R6l25BOrp/poPvZwutTl3c2gfVi0y6jUMPP457vvC1/idhfN0g3vHO78K6qXHx8xMeYqyfWs0+tbtNZEL8JJVCOQo1PPvsaXz2M/fhzPHFuIpuf+NVuOW26/Ul5TKp/qXCZzO9RoBCuiMGf7JBL61Rx8GHHsWnP3kvGrU2piZ7+rbf9963Y+fu7eiGdKWgRNxanX8PSQVYAhJumyBBggQXB6+RTkJnTZpMCunMmm7xThvdTCi3qkEqFFdlcMXVl+DY0bP4xJ9/Fm+75kbs2r1VJGVBQbVcHkCjU0M3eEPEFolgoNDpBuP0uphMGyuP4JbbrsVjhz7av9RNN78B69YNiwX2YTKxRKlJjyEWi2mxhSGdDraMdTRavRXbtHUDtu6Zxqc/9iVcf/N+XLJvO9KBTjaaaIecT+BrKaLmfxCWDYQrpPXa7YZItfZftQcPfe0JzMyex1vfeUsYenRsWNRwCBm/4FoYiqV6W40ejyMaKwTD8KAOMTE1giuu2oE//fAd2Lf1Cuy9/BLky/X+OrS6DaQyORQLPf2zTqeKXCGFdC6PlcWQKwviajnsv3IvDj36BJ584im85R03YGR0QCxcS/fIcifOuseCe/piPeXcoKpREQu8RKmwm266Cr/9G3+GHTu24cqrLhclC0IirpvqiKRbT7gg3ELI7Ybh0iiEzUexgCv378PXv/YE7r/3a3jTm94dhg62Du1uTazky+XySKdXWfnafxEJt02QcNsECRIkuBh4LTXAAkJwM7M2btvtiOJb2UIb7VZdDKFWBgbwzu95Ky7ffwl27J5EJreCpaUFZHNBDTbUAwXi2Qublspl0RKiWl0RmV2YRrPVxeS6MfzIP3iv2NcwPllGu1tFeSAv1vcE+6xAonuEKxVkq+podRroaiKb7y1dqGp63etvFqPMGzdtEm3BeqQpldEvk+uEno5V+hyq3FK6yEiLBVvpDGzYMIUf/tB7UK22ML2+J8EVoo1hbqGsqlYPIeCU6PEeKreC3Fopm+9PI5sJXmRw/Y37sXX7RgwNjWFodAid1Lwo4NvjnB2rk9crFMsG4t/NIJPrisQurEA6ncf7v//tmJu7USzCC40Gof0k9bw/+quKWdlcaC1J9ccPxW2dTi+6G1RoL73sMvyTn53A8MgIJicmsbIc9L0C62+jFW0q+ivWW/ZMBtlU0AgO1YFZsaLuh37ofXjb22/D1k2TvVmm66uzajfQ6bZEX/oXVoAl3DZBwm0TJEiQ4GIg+bZNkCBBgouBV9lL9g2bonbYL/e0k9NIZUOPfB4yKbFdp90MFUI59Oqsuk10W13s2LYd3dYy6o0O0kqidnjIw+TSHaQzvUiCTg7dZgqZ0MMeturt0FyfQjPVxfTERlHKut1ZRn1lVU08RBhClilmzMLPsFtfI5ce8k6xCqqd6SDdzWLrpm1iHGC5uiKWGYULBtOdsIMO+tPhIr1GOKta2u2wE8+kUVupYWJ8HCmrumhi4ijEBMLi51IZ0WwxhDjCNOuNkHxroVQq64uopbrI5YvYtGEDPcGrIJEezI06nWDjuNr01Yl/pHPBCrNdRbvZRKVYRlYYgrheo8PDWD85IbZsZaREx6DwgUo9Lz/W6d9aEH8ImcawYumos9VtpVDMVUTB9eD6E0IdaVm06h2ks2lkU0VRVSOsTMh8ZtOh1S0nhgLavVK3DAYHKxgbH0OrtRiGzoRAUUp/AYMzaYihZcKD6KX8khhCAhJumyBBggQXB9nQUR6qpsLrV4K2Llo9GkI2i1q1gQvzSzh8+BSGxx/Tr/duNNCoraBeXxHdv7PpAqrLNWRSWXR75fSrdTOBnrQD4coRq6bQDYX0may+uXqodqo3kEpnke6mEbIXYdB6oGMa+j7eoda9l+HoikVsUfCh3btvUaYg0qt8vuz5rn+hHi4QzKhutcpxOms8AQOPC8Vq2XxgRqn+uZGCZUVC2vONjxnInoaZdn9SQSy4J1UR3uoG6eF2f7iwVmtbUeLVuv0bie0qrf5ZPZoms+Zme9uCdKYrUulsrohcZlbkoal0V7Sf6fZ6FtBLuHW6cY8SWWG4u1SPw6ZFitpb1eAJH1eg3Z0TyX42m0WhVBI3EMEFJzLLdP+uw0MJtxheBw2w0DiTy67y3JBxXV6piv0RhYH+djC1Oqtu6F5pY3mxhpnTC2Iqt9kTEU4Y7nc6Em6bIEGCBBcD2enpaZw8eRJbt259haf1OG26z+8KSOczeN3rvkt08Tt25DQ6mTYy7TTy6UANgq10Wyw7lyqg2QikMo9aPVS2d0WpqkCygldgLlPozSSQx2CuLo9mo4FMpvyC6a62YHQ7BaRSQT413b+VXsV7iPm21pKRnJdArb62jn0tAqeDVisIsL6wKgi66Sa66VVHyIAej+v9z4WXmsCa0bQb3zjQ2teBsYZlfymE/UGrtabq64VDdfoL2hXNJcMWId3jp6uNFc/T9Oox+t7/9C/V6wEIhV6pdH/g3vGN1c1Ez1Gxf8VenV9LbGvOBKf3er1/8XqzgWqtjkaz1b/I2sKyYMEZth3h87NWTjf0g5QqJTRj9VsgwoHVZmXEMHcIAS9emMdgeQClYknCbb+TENqIgnTyWiTcNkGCBAkuBrJjY2OYmZnBli1bXuFpvRhYZC+BCARr8R//P34ClcEKCqWCSKkWlxfFZHcIsQXZ0JAoD50OxXwBhWxOv9u1s6r8n0vnUW+2kCn0OoMDUwsZ9mwmjaXFZTHkF1RoC7mCqDbSkz4JoeTuah9EuJce61kT6eu+pFBpLAxovxxV7NkBBDIYSd03HNPurorIPO+3a16Gv5YxnPoiCLysvlLtv44XWX0dplFv1F5mwqlePPfl/gyHogv9FuHUmhNTaw8LRHuVva79T6fH/UNAeZWx9jhgt3dX1nRprx7z/Pk013yE6q0mjp88LkoPBzeHdDGLianJ/gVCO0aoQMgWs+JnJkT8O+Fz1Ws8Ce0brG7nenS41qgjn82Jn8+QJAjbqWK2iEt27cW5s3Mvs6QJ/jYhhApe+HWacNsECRIkuBhIvm0TJEiQ4GIge/XVV+PrX/86rrrqqld84vOKzAcHBjAyMoLB4UG0Oi2xVb/ZbSGTL2ClWkOrXkW6WML80qJYdlNoNDAxPIGFeg2NVkOsFR8q57HQrGJ5YTkMPVQZwsTIBJrtJgaGR8WGi55KQU/hNNTtQzmd9WKtHann5YVePEcU8YqSHvGCL7zUqjpUkKrqVRT19tRrEnpWGw1S32RKLznDtXN9+Yu8siG+pWl8I56XpHot0NTQD9ek4Mz5s5iZuSAWk+VHisgPFPrHhIKtoGgcPmYhQhKqwcJBS0tLyBdy6NZbyMTITKZXAdZBPug5hHaYVhcjQ6MYqQzTC+acPfOtGa0m+JuLQ4cO4cYbb9Sv/kTCbRMkSJDg4iD7hje8Af/m3/wb/MiP/MgrPC0Qk0z8sg7MK58tYGRgFMvVRVQbNbE26OmnD+NTd94hqpR+z7vejWefexZ3fu5z2L1zN97y5rfgri98Ho8/+hgCAb9y/9W4974v4dTJnst3+NXrbn89Mqk0ctk8Up3VBoFAHkObQKaX2VstM/pG5qf/btfLsbjUC168CLpr/rvWEzOquIZ0Tbc/yXCtdGrtFVazRt2XGWrNATHdtOZeuquDZlIv/yf2+SVWL4ZU/H2qx8df/MSXZq+rZ71wK/HCh5F+wfvPmyupbg5pHTFDODU+jZHBCTQ7Lax0avjsF+/EsaPPolwo401vewvuuvtuPPPMYRw4cA0uuWQv7r7rC2K27cD+K5GN9XOPPPQQxsfGcc3V12LLhi1Ih21TKoNmqy3uzJIKsO8c3HvvvXjrW9+q360TOpX+aqeVIEGCBN8hyO7bt0/UwP/sZz+LN77xja/w5D55GRoYRK1aE/saKsUBUTa/2WnjwrkLeOqxpzA4NITFuUWcP3UOjx58FBpdvOX1b8K50+fwtfu+iuHKMK7Zfy2effoIHnjggTD09k3bxBbJM2dP4/y586KgyYZ105gYmxAdrdNSYoS33SvPWts8utoa+zLlVi+6CC/x6zUB7u4LaWOocAo9xc3+kbE7YLX8qNds+tKksxtCwJngeb7m/ReUnbVfdr5rbepf8p5Wb3kNQ41tGP3DgqTL86695qq9DuYgwLPmrtOxIg/pnsHaNz6Ib5hcz3chOJa3u2i1Vtu0lxeXcaE6h8ULi7jns19EpVjCddfeiJkzs7j3C/ch2y1g15ZdOHP8LJ555hmUunns27M3DPrcM8dx9MgJ7Nq6FwPbB9FoB0HkttgmUyrkJdz2OwNPP/00FhYWcPvtt4u2eEGXKuG2CRIkSHAxkHzbJkiQIMHFQOqxxx5D+PmzP/uz+I//8T8i9Ji9FG65/Xb096y1Rg31Zl3sE+vJiaVS6Ojg1LmzuLA4L7b9jI+PYWV5BdXl5f5ZY2OjuDBzAY16HZVKBcPDQzh/7hxWqsHQ29TkOoyOjGJhcQHzc/PIpLMYGhzCYKWCXK6gn9jprO40n2/zs5pbe6X4Zhml/gVfbC/Z7U8jtZrH6q3bWp2Ezho9gZeYRWjQWn39EnORSn/jBv951+l2+sO9FPoiZHGhVpfreVmvEEnorvW6f/5/Y2zh+Xcd3gmvO0it0Qn7hhtbmxVM9T5sq5GEcBfVRh21Vh1L1apoIhk2d6GZPbS9NRut/juVgQrm5ub60wvZxUq5FIZenF8Qe+EmJqYwPjKq38jXExjriCVlX7z77hcsZIK/PQjdnuEr9Cd/8idxyy23YGpqCoODgxJumyBBggQXB6nnnnsOZ8+exR//8R/jwQcfxL/4F//iZU67/XWvs4ZDvbAaX///V1+v8qBQQtReI5yaWVPnE7S+0laTWpG4tfvv9xM1gTh3eqesSjHF4qTAMdZMIBYNicxobZrr5bNDfwkIFWDfPB33CnIsa7nti6P3AF6WuXefV6z2EteJF/hmHQqpF/x8iUNe6vwgZNGfWn+Szz8rfrS66KReMP/exiKk3dZ+Nro8TzY309PKIHLk9BoV4Ph+72Fl1hQRRu69ZpP0Ar5/9xe+8HK3muBvOH7nd34HQVLxne98J9atWycGCYImTMJtEyRIkOBiIFsqlTAQbMbf+U4cPHgQv/zLv4wf//Ef7//2hXgBtUmJKl9r8bzq99Qqj8s9j6KsspjUWh+EHvtDv+g/XKdfYN9FphuGXn3H2kt1VxnKmpl6IaV8DdtJXxFixNGLT2cVqW9OulPIpte2G7zYETEy+9KXeVkq2kP/kX6ToV7klG+40Mtz297Pl7731NqLh01SYLhEfho+FYGKpjuroeF+TH11coHn9ljtN077+a0cvU9yd60G8UssWmw2SSrA/nbi93//93Hq1Cl84AMfEKO0gc+GXFRP9/mvcJYJEiRI8J2D5Ns2QYIECS4GUouLi5ifn8f58+f7P//0T/8Un/jEJ/BjP/ZjuP766/8KJ5ogQYIEf01w9OhR/Mqv/Iqoh/C6171OzJJNTEyImoghVBvqYhNumyBBggQXA6ngbb6ysiLWcgfXnNnZWRw/fhy/9mu/Jn5J33rrrbjuuut8sw6IBAkSJPibjqBx/JWvfCX8b1BoCYWzP/RDP4QDBw5gdHRU/EoMryu9pqqcJEuWIEGCBBcTqaBX32w2RYYbYriB54bX4dv9y1/+Mr74xS+K4uTnzp37K5p2ggQJElwMDA0N4S1veUv439CJG4QSA4cdHh4Wo7ThdWC1a2u/En3bBAkSJLh4SAXhjPAzMNxqtYpQqxB+BrnG5eVl1Gq1/pF97ZKkcjtBggR/y9AjpOm0WFSgL1pUqYi0N/QyhJ8huRVYbZA9SnzJEiRIkOBiI/m2TZAgQYKLgexathyKFXp6SJmMSImDC3SIJIQ4Q4gkhAybJJKQIEGCv3VY+00YvhvFL8MQSQgCMkEPIUQY1tZ7vVBsL+G2CRIkSHAx8P8HO8Xjc0SOcOgAAAAASUVORK5CYII=;strokeColor=none;labelBackgroundColor=none;rounded=0;html=1;whiteSpace=wrap;" parent="1" vertex="1">
          <mxGeometry x="36" y="542" width="85" height="36" as="geometry" />
        </mxCell>
        <mxCell id="11" value="&lt;font style=&quot;font-size:11px;font-family:Calibri;color:#000000;direction:ltr;letter-spacing:0px;line-height:120%;opacity:1&quot;&gt;&lt;b&gt;电池电压监测&lt;br/&gt;&lt;/b&gt;&lt;/font&gt;" style="verticalAlign=middle;align=center;vsdxID=10;fillColor=#c9c9c9;gradientColor=#d8d8d8;gradientDirection=north;shape=stencil(nZFLDsIwDERP4y0KyQKxLuUCnCAihliEpEpL+ZyetANS6YJFs7JnXmxpTKZqvW2YtGq7nC58F9d5MjvSWqLnLF2pyNRkqlPKfM7pFh36xhZSq1Fhhz/rgdbK5uNBXgxts9r+PjAYck39sPwBVMF6foYp9HugQeIE/ZqL4D/oQnC2vhRjPAhOQkC6U38eZ5FwClO/AQ==);strokeColor=#000000;shadow=1;labelBackgroundColor=none;rounded=1;html=1;whiteSpace=wrap;" parent="1" vertex="1">
          <mxGeometry x="36" y="346" width="85" height="45" as="geometry" />
        </mxCell>
        <mxCell id="12" value="&lt;font style=&quot;font-size:11px;font-family:Calibri;color:#000000;direction:ltr;letter-spacing:0px;line-height:120%;opacity:1&quot;&gt;LCD&lt;br/&gt;&lt;/font&gt;" style="verticalAlign=middle;align=center;vsdxID=11;fillColor=#f0f0f0;gradientColor=#ffffff;gradientDirection=north;shape=stencil(nZFLDsIwDERP4y0KyQKxLuUCnCAihliEpEpL+ZyetANS6YJFs7JnXmxpTKZqvW2YtGq7nC58F9d5MjvSWqLnLF2pyNRkqlPKfM7pFh36xhZSq1Fhhz/rgdbK5uNBXgxts9r+PjAYck39sPwBVMF6foYp9HugQeIE/ZqL4D/oQnC2vhRjPAhOQkC6U38eZ5FwClO/AQ==);strokeColor=#00b0f0;shadow=1;labelBackgroundColor=none;rounded=1;html=1;whiteSpace=wrap;" parent="1" vertex="1">
          <mxGeometry x="166" y="547" width="53" height="31" as="geometry" />
        </mxCell>
        <mxCell id="13" value="&lt;font style=&quot;font-size: 11px ; font-family: &amp;#34;calibri&amp;#34; ; color: #000000 ; direction: ltr ; letter-spacing: 0px ; line-height: 120% ; opacity: 1&quot;&gt;UART&lt;br&gt;&lt;/font&gt;" style="verticalAlign=middle;align=center;vsdxID=12;fillColor=#f0f0f0;gradientColor=#ffffff;gradientDirection=north;shape=stencil(nZFLDsIwDERP4y0KyQKxLuUCnCAihliEpEpL+ZyetANS6YJFs7JnXmxpTKZqvW2YtGq7nC58F9d5MjvSWqLnLF2pyNRkqlPKfM7pFh36xhZSq1Fhhz/rgdbK5uNBXgxts9r+PjAYck39sPwBVMF6foYp9HugQeIE/ZqL4D/oQnC2vhRjPAhOQkC6U38eZ5FwClO/AQ==);strokeColor=#00b0f0;shadow=1;labelBackgroundColor=none;rounded=1;html=1;whiteSpace=wrap;" parent="1" vertex="1">
          <mxGeometry x="164" y="415" width="55" height="31" as="geometry" />
        </mxCell>
        <mxCell id="14" value="&lt;font style=&quot;font-size: 11px ; font-family: &amp;#34;calibri&amp;#34; ; color: #000000 ; direction: ltr ; letter-spacing: 0px ; line-height: 120% ; opacity: 1&quot;&gt;SWD&lt;br&gt;&lt;/font&gt;" style="verticalAlign=middle;align=center;vsdxID=18;fillColor=#f0f0f0;gradientColor=#ffffff;gradientDirection=north;shape=stencil(nZFLDsIwDERP4y0KyQKxLuUCnCAihliEpEpL+ZyetANS6YJFs7JnXmxpTKZqvW2YtGq7nC58F9d5MjvSWqLnLF2pyNRkqlPKfM7pFh36xhZSq1Fhhz/rgdbK5uNBXgxts9r+PjAYck39sPwBVMF6foYp9HugQeIE/ZqL4D/oQnC2vhRjPAhOQkC6U38eZ5FwClO/AQ==);strokeColor=#00b0f0;shadow=1;labelBackgroundColor=none;rounded=1;html=1;whiteSpace=wrap;" parent="1" vertex="1">
          <mxGeometry x="281" y="308" width="56" height="31" as="geometry" />
        </mxCell>
        <mxCell id="15" value="&lt;font style=&quot;font-size:11px;font-family:Calibri;color:#000000;direction:ltr;letter-spacing:0px;line-height:120%;opacity:1&quot;&gt;VDD&lt;br/&gt;&lt;/font&gt;" style="verticalAlign=middle;align=center;vsdxID=19;fillColor=#f0f0f0;gradientColor=#ffffff;gradientDirection=north;shape=stencil(nZFLDsIwDERP4y0KyQKxLuUCnCAihliEpEpL+ZyetANS6YJFs7JnXmxpTKZqvW2YtGq7nC58F9d5MjvSWqLnLF2pyNRkqlPKfM7pFh36xhZSq1Fhhz/rgdbK5uNBXgxts9r+PjAYck39sPwBVMF6foYp9HugQeIE/ZqL4D/oQnC2vhRjPAhOQkC6U38eZ5FwClO/AQ==);strokeColor=#00b0f0;shadow=1;labelBackgroundColor=none;rounded=1;html=1;whiteSpace=wrap;" parent="1" vertex="1">
          <mxGeometry x="185" y="308" width="56" height="31" as="geometry" />
        </mxCell>
        <mxCell id="16" value="&lt;font style=&quot;font-size: 11px ; font-family: &amp;#34;calibri&amp;#34; ; color: #000000 ; direction: ltr ; letter-spacing: 0px ; line-height: 120% ; opacity: 1&quot;&gt;3.0V&lt;br&gt;&lt;/font&gt;" style="verticalAlign=middle;align=center;vsdxID=24;fillColor=none;gradientColor=none;shape=stencil(nZBLDoAgDERP0z3SIyjew0SURgSD+Lu9kMZoXLhwN9O+tukAlrNpJg1SzDH4QW/URgNYgZTkjA4UkwJUgGXng+6DX1zLfmoymdXo17xh5zmRJ6Q42BWCfc2oJfdAr+Yv+AP9Cb7OJ3H/2JG1HNGz/84klThPVCc=);strokeColor=none;labelBackgroundColor=none;rounded=0;html=1;whiteSpace=wrap;" parent="1" vertex="1">
          <mxGeometry x="138" y="219" width="76" height="15" as="geometry" />
        </mxCell>
        <mxCell id="17" style="vsdxID=25;fillColor=none;gradientColor=none;image;aspect=fixed;image=data:image/png,iVBORw0KGgoAAAANSUhEUgAAAc8AAACECAIAAAB58jdnAAAYTUlEQVR4nO2deXhUVbbFb1USQkIIYdQwhSDzpCAgrWIzI+1TcQBURFrkk6FRROWzGxCkH4gKig9b5DW2tO0Dgac4oSIi2AqCDIY5QEggTIGQmZA5qfdHbu296lnVSYXiJK3r94/LS9WtW6dundxad529HS6XyyKEEHKVcVb3ARBCyK8CzraEEGICzraEEGKC4Oo+AELIr47cvCLRPxw6J7qgqET0bzo3Fd2oXrhoh+MqH9xVg9e2hBBiAs62hBBiAs62hBBiAvq2hBATnE7NET3xtY2iN+4+JbqkUP3cztc1Fv3Oc8NE9+wQLdr5b2Xi8tqWEEJMwNmWEEJMwNmWEEJM4GCdBELI1eN06qVy8ciCz2Xjdwc0Y1tWUvL/n2Oj14LXNY0UvXLWHaJ7ddRMbs33cHltSwghJuBsSwghJuBsSwghJqBvSwgJMCnpl0WPddu1m/eekY2lJcV+7lKvC9s2Vw/3/efvEt2j3bXlwlFTDVxe2xJCiAk42xJCiAnoJBBCAkBKeq7o37/0pehv4k6XC//dA1+gqxAlevXsO8tF97bXyMYa5Srw2pYQQkzA2ZYQQkzA2ZYQQkzwb+Db4gGWucpEoyNT8xftBYoyGA787ByWjgCOjF8DgzvEF3I6vO+c/MpBr/bRl74QvSmuwrAXnEXOIO97d5WC9jVN6XPbt4wqF++7DVzLsm64rom+ZHWfury2JYQQE3C2JYQQE3C2JYQQE/j0bXMuF4qes2Kb6ISzWeVi1sM3ycY+nZsF/MguuXsgP/PWFtm443CK6IaRtUXPGN1H9OCerQJ+MNWL1KyzLOulVT+K3uxOMlqWFRutyxmfvLe76Nt7t/7XO084k6E7X6k733ZYa+J1i9WeJc+O6iW6d0ftWUJ+JaRm5oke94rmar/anSy6pNirV6vXdpF1QkRjJ/P6dcNE7004LzrhrHbZKS2toEJjp9gGsun9Wf8humvravZweW1LCCEm4GxLCCEm4GxLCCEm8OhwjhHLLeAJvv6/u0U7gmzD5UjyRdn4xcsjRbdrUT8gR1ZSakdr9yfqCx1IVJOxXmSo6AuZWuHtl0d+obpgh5PTRR+B0cjJ18ecz9AUZIVkg0G/N0mH+uhx3XmZS/8q/7KHmnglLTtf9PiF4NXuAq/WVxkEl+2QdozVmWHp1MGi+17fQnSQU8+03ALtdj5z+Xeil68/KDq/QM9ey2HPGIdPZMq2B/78mei1c+4W3Tm2kT7PlIfLa1tCCDEBZ1tCCDEBZ1tCCDGBh29rQfQ2K7cAtsPa/DLbTDlxQTeOe1mXSH88/17Rjeppeq7qh+gEV6VMo3YOl0b2gpy/5MX76CsFB8EfyDJdSO6EDy84yMfCc284fZWbwCIMDqyZUPl9k18I8//nB9HfxJ0V7ZGr9XFiONwn7KJJ/WXjzV2ai160Zqfo+GS9WzDt/p6iX5nYT/TehFTRWw/qwZSVSREV/V7EJ2eLfvA/1cNdDbUUOrUy5OHy2pYQQkzA2ZYQQkzA2ZYQQkwQ7OsfnBX5c2WlatnsOKIrmqf810bRK2epOYJJuhpFUYlt9/x07IJs/OanE6KPu0tDWJ62aacYtXsG9GgpumNMQ9GX8zUzWAa2eGiIba1GhNXSIylWv6kQdE5eITzG+yLxUth7Lryo7AdDu5F1NKocGx0lesbDWm4i8VyW6GYNI0R3b3ut1wOoEDyqH6EIwz/3aS3UU6nqsoWFqi/fDaqUDr4xply0aVb1ZHd+oQ5jHowM2nZ1atsHcOai1qnY/JMmTOPAQLwM4dAWTeqK7nd9jOg+UBAgIkzfXc2koFhrSe+Br0ZenmZvfXm1FgS0O8TYH1PPdlpVY9Wmw6JfXh0nOjNLizCchWHHu0G3QT53V4ImxPPz3LeaPI5KP+iDJ9QUfmjeetGrn9dpqkMMerhWYKmhMyAhhPzC4GxLCCEm4GxLCCEm8Onb+kVpiZojH21Vx3Pm8n+KfmlCf6vGgKbkzLftJdjrvk+QjcUl4Nk4fPREgs2RYRpxxUoRqVlqcpVoHtAa6i7Cu3z6MNn45Y86dLgaPShIDyYrFxaGh+gRpGaoyTUDFpXPfXd7uWjTTIt+vjj+FtFNG6nJ+N7GQ6K3H1YvvkusOtHRDevAc9XP9coO8GdfWLFV9CaowlEK3ac8HTf4Hyhp2qRBeLn4wz09ZOPku7Skb6OoilPeC9/XSr5LP1HfMCRErz8a17Nf6EKGloY4lw6upcetCJdXuWClhkkHgbk/d9ytovt0Uj+35lALzrq6tfXuggNuXbjglPaFWuEY5vZ8BP6PqDIfpbddlq8eZRWip9p+qDHyIHi4a2ZrPdx2LQLs4fLalhBCTMDZlhBCTMDZlhBCTBAY31bXQltWUZEGD5es2ycac50TwGUzxqGTGs0b8+LnouOOuSvGOnw5iL7+JqlplZOnz9197CI8xrvHdMHd3An7wuXmqyebdl6Tp1a4xmOxfIGHsQkOWuYl8HbddS0iwtXNLIC0aSEEeJMvaPen8+dUR9ZR2w5js17ZsDNJ9LQ3tafckSStzGsFe7fqPDW8U0h/p2bazumcd7RdXvJ5Pdp5j6klGt3Qu7OccUnLgFyAXKcVrN+IM2nu7KcPA9HXh4vb0XzcuFOzuokp+vkufWpQuRjSK9bHDq8ieOZ4FM2AMX9kaBfRcYlpolMgH+3xLXHoPo+csh3SOAjtPjCgo+4kXW3x+FN6kjx1342iJftsWVbCGS1fW1wCxrF/1qqe9vuO64s+OE9nBszhtm2utz2q7OHy2pYQQkzA2ZYQQkzgt5PgdNpRpw4tNecUFqr72QO/o/ML9VfnrL9pACjm2nqiK2zBfSWkZetCwBf+rlXj4uL1R43lzm6FBMNS0daaeerbTavD4eLa7/frktMDsIjT8qh3iD/8sXCil18jTjBkPP4OunyGpHwAP6/cr++wsIKi7sQBOwzC30hQztHzN733Azjg7rKzcI32VTpyHIYlWN9SWC0d6t4drhHds70uC86Emp/fxp0SnXTW/esVAljvfqXdU66L1rPrTw//RjQeuM+F6TjUZe79l+p4tmoWJbp/d010NYisLXoPLGTfeVRHIA+cosSTmkBasMpOiTVvrGk8LAMYKHLcXZGWfrJXNm7YqbnDiHC1jJ64R+2+UQM6iM7M1QzcrHf0O5WOLZQgNFlWYuvp/6220rJpQ0T/8aGbROPnkgvNn1xwRs8eq/nFY+Aq7HNbHC48dSuFugpxMH2NhgqNa+beJTo22p76/HUUeG1LCCEm4GxLCCEm4GxLCCEm8D8B5jZWmsOKz0WTdVXuHX/8QPTpVG21nZajNtzk1zeJ/nT+PaK7xDb2+3gsy/JtoPxwUFeOfrD5iP4D/JWJCLcdt6n36krQ58eq3xca4n2ULkJ1uAUrd4hevGaX1xdCJHWD4aJhfdTC3v3ueNHJkAZbsEqXnO4+oP5g4ya6oHbK8OtFD+/b/ucv1B7WFh+BzE1l8NVKZOMu2/7bvEt9QLRWoxtHip4xurfox++8QXStYO89fpJgpfWf3OuS126Ol42lBfr2Pt6WKHqguzyjZVk3VWqBrEeqrvy/94FrOe+x20R3aKmpIKQMql8uA4d0HpwkKakaWft2p33AG3dfJxvbQOSoVnDVr4ou5em9k8mL7Wqoa7/TISr2qOGpb/87qIS5dOoA0RMhvuly6eNnQSAvI0u/+JbTHo0DiXqmDXl2regNC0eIbt9S75fcPfMj0R1a6GgseXKg6DXQtPz+2R+Xi4PQbsdV6r1CqW+8RzkfmPup6LUvDC8XreD+U2XgtS0hhJiAsy0hhJiAsy0hhJjAf9/WbUmVQKita2v1W5dPv130fW4nxbKsy/m4QlRtnfELN4hev+A+0SE+LDyvoJlYUKQv9CWsIsUQanCo7nxgD7vxxrzxuuKzMlm6xlHhop8e2Us0rixc//1xfQL0RpGqcbhyNypCV+je2E6Tp/WgsU39uvqi6MWGQoIViyt2a12BFY4mY2XAXkEXIGK5I95tIhfpQDugEOXDg9T9nHKPLsqsDK2bRol+ZqTd+Pp0qq643f6TBnIPJGnEdR8EftG39YzbwgiUqL6xi/34Z0fph+vLq0UwNDoZUqtJ4L+/sW6P6KJc+0W/P6C3GYbf2la0v/4g8sY6jT+v32mPUnEhrO32caZfytXPcfJivdHiBC9+0t03iMYVwLNXaA43M8t9kjj1AZez9QAKoSVPFtzdOZWqZ9d2KNGJyfElUweLXj3HXmg7aq7mZA+dVLPY/xyuPn5XvHq48/5hv7u/TB0kG2uHVtz6iNe2hBBiAs62hBBiAs62hBBigqpXXPRVhW5gD004Lp6iMb0Jr34tGruj70lQY+XxRerhvjVtqH2IfoYNsTd4fLJWh8N18nXraPnB390kZe6q3g1DuqpYlnVHH01Nrv8WQr4hVWxqjUNd5tGbxAGP0QeVuiruX+LvIYjC7jBp0AfolARIodpDbFMN9t7cuVlADkW6nfdqrwUWtu9V37YAGsKfvqixViQI3wYmiEv05LnZ3ZC8A4RAr4TboODGx9vU0E/Mtc/S42c0KIo1If31bfGEQec6J9edEK/MmQ5VEy/l6Rd2wmsb9SGwnynQuAiZ7a6lkJkNIVxw/0PhC16Kh46nMZTofOez/XCQuv2NJ20XFSslPgi1Dg5eiYcLoyH9n/LhFhF9W0IIqSlwtiWEEBNwtiWEEBMEqFMO7hEcmUeGaIONpLNZol96b7voEktdtg27NVU3w90d3d+GxuhgFhZ5dzCD4CDr163t9TF+gU3I64TBqKKzVeXGzDWVEuhOXlTsZajDwMyKCKv18wdUAQli1wkDpwzrBUP3lCLQHncafHTkwcsPiTnXrhWYr0lDqIFbJxRPEvu/2IWouNjfcCjsD95d4ygtoFHLfeegsKDivK3nHnUYc8HDnbRYb8bgFx893BJ3uYkX3tUyEdnp6qfXCtFQNtaP9giC44fn4eFqLy4J6L8+RUO4q8DDvR/i/8dgOqqch6sHGd3IHtJQf9YEWLy2JYQQM3C2JYQQE3C2JYQQEwTet0VCwZGZOUYrxp6CTtqrvtZEan6+ZgxXbDhQLjxqnjoqTpJilLJJfawqoDK/UL2nfQn2CugR/bTrsr/kFegOj57WOgke5lPV47wV46tLeMB3jwYaWrFgf+sjzqdrKYMT57MCcijSa+7kBehMjgZ9bT2rG0RqsNqj6ZrPpuWm8GUcB5rH79RixzviU8oFdk7z/+V1qLMvqf/7+Kuaww2CShFP3W/XtSiG9m6vrt4pGmcJz0Px3tPPAzCL//qR7eFif7/FU7QY7toXtLfYSKhXe+ysTkeeHq4eWGS46ukj7erMlcnYIry2JYQQE3C2JYQQE3C2JYQQE1xd3xZBj+81MFOSoUHTtv1a39PltocKi71XBkDQhQuvrWbKrbAy/VPoS3b5si7w/3DrsXIxor8WYL2+TRMf78M7e49fEL3iywP6D4GIagZDmDQMdwhvuwCCilngpgWcUnCimzfR3nSdYuySCFu26eLx9HQtUbpuq1YG6HdDS9FtoQFXZfh8u12zeNPuZN0aBHHIhnpU7ZppoQakrNSQn17tSFkJC+qxToRaB/vg1PUbhw5jVo6edeNe+Uq0nKRPDNcQ7sjfthfdFDochkDNhOXPDBE9belm0cc9orIwOYTYz132UZzXg0UP98O5w0XP+bt2VNufqGUlohtGiJ45po/ogT1alQun079Th9e2hBBiAs62hBBiAs62hBBiAnO+LdIEOnote1rdmTtnrBN9MkXSlBWvYsZaCpj1G9pLatdai5tpkdCUNPVtJR47ev562fj8mJtF39pNC7OWQN+qr3Zp07OFa3aJPgf9sgLy56xuuPYlaxUNpU6hAGhapr7oqm/iRbePsWuzdm+jjc4a1dMF+w5fSUYflEJqMjREz5/+bit27bfHZONF8G037EgUPQHyztjSrWf7aNFYNGDtFvXc3/p0n3vnMM5QseGWrtp/rHdH3SFS3Wnb6qGPuzPbm09pJYFJr2mtA2zp5vcgQRY+Gzzcue9uLRe94LPAIPx7Xx8SHQm1L4b3bSf6VVd/0Y+CKZyeCTVz5YDhPseyj/aKjqqr36M5Y7UJ4Qdz7xadkaMzQ2QdvdUUHORfSQSv8NqWEEJMwNmWEEJMwNmWEEJMUD2+LVqFHWMaiV7+7FDR9z7/Sbm4lId5W+9eksvHsvd2zTVuOXvsLaInLdK8octl/8nB1vOj538uOipCvaQySJtmYqwVlmYH/E9Yo3q62H/ADS1Ev71+r+iCQh2l7YfOih46/YNygQ7moom3icZKAlfCoJ6tysWjt2tR41dW/QgP0XHZEndG9LZDKaIjoTQwljrNydcML5wDehq1a6fvDg+gWWPNchLhli56K+KtaerhYs+xQ0kX9QkOPz1c+Mp2b2t/NHi3ZubfvtMD+ExvM+RnqRf/9oxhoscO6yq6HdyA2ZGjNwZcZd4OEjzcJR/uET1mcGfRnVo1Fh2or4NXeG1LCCEm4GxLCCEmqB4nAcHA1m+v15/JS560l9mNe+VL2ejCMBj4EUEO7382sMcJ/nbIztXSjnNW2B2YcYlwKawITM/xsRDWV3TKoztOgLNG/aGB/HMP6WrCP/9Dmw+5XFDCzt0qJj1HA1X5BfrD3BkZmIWr0lfm6RE9ZWNhkX5gS93JLcuyikuwxY7qNI/2MD4K7hXb29vEqE20YLwGen4HHeZJhdzSVV2FZU+jq6DJsMMnwFWoTDIMsokN3P2BQiBElXQuS3RRkZ6ZllMfcxKSlLhGNgJSYg744ru8RkXhxMkDP+pitia90B70dzGuX/DalhBCTMDZlhBCTMDZlhBCTODTt/VYzwlehtisQVfB4AiBpjij3PUPz6WpfTN/pTbY6BKjlfr6guHrizpQifHpEbpatJd7teibH2uhtq37NaIkrVksz9bo1zbQgmwDumsJQQyRLPlwt2gX/G0Lco+vv7ZuVISuPpz+QG/RHVrqaPwV2j7vOmrX03PCwkoHfnYgsU+71w/dqsRK32saaEvtFx/vKxoXQC9fv1+P8IiW2cy6rBZ5CAx1MyiieOfNti2LPWA6x2qIpzJ4nL3QWgk/D9kcqBPd6WNIZaiDPcY5QK/qD7d21Qqlb07V+oQTX9sk+uipNHiGj/MXPrtd8fbnm3FJrdJpI/TUzcgphufpDscM6ST6XJomvZJSskWXwQ0AH5+THknzJhpBi71WY2RX1av1fiiEEEKuHpxtCSHEBJxtCSHEBA5fa16zIJF68rw2sxHbLjJcy5HFYhnAQIPR17MXtcAaHkCUtte+khfSoUjNVJ8Io3lOsNOugapxjWFVYh6UEzx2OkM0ZgPrRdgHH9MkEh4QGP+oCMys8+6ahwUQfY1uqNZqLegvfRq6FuXkaQoSLe9m0NcEk4/+HSHkai/AUGfk6FkXAgfWFHqWoHNdZVIy9EXxs8boZdNG9os2qa/DdSWfUB7EnM+k6VBfdudAw6E3e0s4McJCqzkXv/mnU6InLtYcbgKc3h7LdXGc3EP6wjhdOv/MKPVtI2rrFxmfVwgnyYRXtcri+1u0pGdRodcsvH7RMHH/znNaGGBEP22LFRxk6KKT17aEEGICzraEEGICzraEEGICn74tIYT8nM171MOdAB7u8TMVerg61QzuqeU+hvRsLboE+jB9si1B9O5jWqihpETvi3hiv1DtUL2d8Na0QaJHD9IAL0b7jcFrW0IIMQFnW0IIMQFnW0IIMQF9W0JIFflq1wnRkxdrLQUsX+vp4bpxoG2KU5DD+3aXt51YFl4vhoTYetlT6tU+PFTbJtWqDq8W4bUtIYSYgLMtIYSYgLMtIYSYgL4tISQAbNiJHq7mcE+kZLlloKYa9XaxmMabU227dix6tSHV7NUivLYlhBATcLYlhBATcLYlhBAT0LclhAQY9HAnuT3ck9BPzHsI91+hXi1asUueGCD698O6lYvQmuTVIry2JYQQE3C2JYQQE3C2JYQQE9C3JYRcRb74MalcTH5dCykkawjX8p3D9Z6r/cuTA0WPvb2r6Bpr1wq8tiWEEBNwtiWEEBPQSSCEmOCzHxJFT1mirsKp1MvwKHUPgp06Nb3+h36iH7ujm2hsYF7z4bUtIYSYgLMtIYSYgLMtIYSYgL4tIcQ0O+PPiV69+ajonLxC0ff1bSt64I2tRNeoIop+wWtbQggxAWdbQggxAWdbQggxAX1bQggxAa9tCSHEBJxtCSHEBJxtCSHEBJxtCSHEBJxtCSHEBJxtCSHEBJxtCSHEBP8H2aCD84vnlnAAAAAASUVORK5CYII=;strokeColor=none;labelBackgroundColor=none;rounded=0;html=1;whiteSpace=wrap;" parent="1" vertex="1">
          <mxGeometry x="246" y="431" width="83" height="23" as="geometry" />
        </mxCell>
        <mxCell id="18" value="&lt;font style=&quot;font-size:14px;font-family:Calibri;color:#000000;direction:ltr;letter-spacing:0px;line-height:120%;opacity:1&quot;&gt;NS3602&lt;br/&gt;&lt;/font&gt;" style="verticalAlign=middle;align=center;vsdxID=76;fillColor=none;gradientColor=none;shape=stencil(nZBLDoAgDERP0z3SIyjew0SURgSD+Lu9kMZoXLhwN9O+tukAlrNpJg1SzDH4QW/URgNYgZTkjA4UkwJUgGXng+6DX1zLfmoymdXo17xh5zmRJ6Q42BWCfc2oJfdAr+Yv+AP9Cb7OJ3H/2JG1HNGz/84klThPVCc=);strokeColor=none;labelBackgroundColor=none;rounded=0;html=1;whiteSpace=wrap;" parent="1" vertex="1">
          <mxGeometry x="250" y="459" width="58" height="20" as="geometry" />
        </mxCell>
        <mxCell id="19" value="&lt;font style=&quot;font-size:11px;font-family:Calibri;color:#000000;direction:ltr;letter-spacing:0px;line-height:120%;opacity:1&quot;&gt;TIMER&lt;br/&gt;&lt;/font&gt;" style="verticalAlign=middle;align=center;vsdxID=78;fillColor=#0099d2;gradientColor=#00b0f0;gradientDirection=north;shape=stencil(nZFLDsIwDERP4y0KyQKxLuUCnCAihliEpEpL+ZyetANS6YJFs7JnXmxpTKZqvW2YtGq7nC58F9d5MjvSWqLnLF2pyNRkqlPKfM7pFh36xhZSq1Fhhz/rgdbK5uNBXgxts9r+PjAYck39sPwBVMF6foYp9HugQeIE/ZqL4D/oQnC2vhRjPAhOQkC6U38eZ5FwClO/AQ==);strokeColor=#00b0f0;shadow=1;labelBackgroundColor=none;rounded=1;html=1;whiteSpace=wrap;" parent="1" vertex="1">
          <mxGeometry x="292" y="529" width="53" height="25" as="geometry" />
        </mxCell>
        <mxCell id="20" value="&lt;font style=&quot;font-size: 11px ; font-family: &amp;#34;calibri&amp;#34; ; color: #000000 ; direction: ltr ; letter-spacing: 0px ; line-height: 120% ; opacity: 1&quot;&gt;&lt;b&gt;预留接口&lt;br&gt;&lt;/b&gt;&lt;/font&gt;" style="verticalAlign=middle;align=center;vsdxID=85;fillColor=#c9c9c9;gradientColor=#d8d8d8;gradientDirection=north;shape=stencil(nZFLDsIwDERP4y0KyQKxLuUCnCAihliEpEpL+ZyetANS6YJFs7JnXmxpTKZqvW2YtGq7nC58F9d5MjvSWqLnLF2pyNRkqlPKfM7pFh36xhZSq1Fhhz/rgdbK5uNBXgxts9r+PjAYck39sPwBVMF6foYp9HugQeIE/ZqL4D/oQnC2vhRjPAhOQkC6U38eZ5FwClO/AQ==);strokeColor=#000000;shadow=1;labelBackgroundColor=none;rounded=1;html=1;whiteSpace=wrap;" parent="1" vertex="1">
          <mxGeometry x="36" y="407" width="85" height="45" as="geometry" />
        </mxCell>
        <mxCell id="21" style="vsdxID=95;fillColor=none;gradientColor=none;labelBackgroundColor=none;rounded=0;strokeColor=none;html=1;whiteSpace=wrap;" parent="1" vertex="1">
          <mxGeometry x="679" y="407" width="81" height="81" as="geometry" />
        </mxCell>
        <mxCell id="22" style="vsdxID=90;fillColor=#FFFFFF;gradientColor=none;shape=stencil(rVFBDsIwDHtNj5VCK14wxj8ilm0VZZ3SAuX3tAoIBhwQ4mbHjhMlyjZxxJmUgZg47OnsujQqu1HGuGkkdqkgZVtlmz4wDRyOUyd8xuqs6BBONSFLH9QOAxdha6FbcSLvisR5oQEvvfegFXyMgqwxu6g5JEwuTIupHnkgXcbo3uNwyxEpnonmt/Ivi/1nLfhirQIeZ+6d9/KlZ/31LaUkL7XtFQ==);labelBackgroundColor=none;rounded=0;html=1;whiteSpace=wrap;" parent="21" vertex="1">
          <mxGeometry width="81" height="81" as="geometry" />
        </mxCell>
        <mxCell id="23" style="vsdxID=91;fillColor=#FFFFFF;gradientColor=none;shape=stencil(rVFBDsIwDHtNj5VCK14wxj8ilm0VZZ3SAuX3tAoIBhwQ4mbHjhMlyjZxxJmUgZg47OnsujQqu1HGuGkkdqkgZVtlmz4wDRyOUyd8xuqs6BBONSFLH9QOAxdha6FbcSLvisR5oQEvvfegFXyMgqwxu6g5JEwuTIupHnkgXcbo3uNwyxEpnonmt/Ivi/1nLfhirQIeZ+6d9/KlZ/31LaUkL7XtFQ==);labelBackgroundColor=none;rounded=0;html=1;whiteSpace=wrap;" parent="21" vertex="1">
          <mxGeometry x="27" y="6" width="26" height="26" as="geometry" />
        </mxCell>
        <mxCell id="24" value="&lt;font style=&quot;font-size:14px;font-family:SimSun;color:#000000;direction:ltr;letter-spacing:0px;line-height:120%;opacity:1&quot;&gt;1&lt;br/&gt;&lt;/font&gt;" style="text;vsdxID=91;fillColor=none;gradientColor=none;labelBackgroundColor=none;rounded=0;html=1;whiteSpace=wrap;verticalAlign=middle;align=center;strokeColor=none;;html=1;" parent="23" vertex="1">
          <mxGeometry x="1.62" y="3.25" width="22.75" height="19.5" as="geometry" />
        </mxCell>
        <mxCell id="25" style="vsdxID=92;fillColor=#FFFFFF;gradientColor=none;shape=stencil(rVFBDsIwDHtNj5VCK14wxj8ilm0VZZ3SAuX3tAoIBhwQ4mbHjhMlyjZxxJmUgZg47OnsujQqu1HGuGkkdqkgZVtlmz4wDRyOUyd8xuqs6BBONSFLH9QOAxdha6FbcSLvisR5oQEvvfegFXyMgqwxu6g5JEwuTIupHnkgXcbo3uNwyxEpnonmt/Ivi/1nLfhirQIeZ+6d9/KlZ/31LaUkL7XtFQ==);labelBackgroundColor=none;rounded=0;html=1;whiteSpace=wrap;" parent="21" vertex="1">
          <mxGeometry x="27" y="51" width="26" height="26" as="geometry" />
        </mxCell>
        <mxCell id="26" value="&lt;font style=&quot;font-size:14px;font-family:SimSun;color:#000000;direction:ltr;letter-spacing:0px;line-height:120%;opacity:1&quot;&gt;3&lt;br/&gt;&lt;/font&gt;" style="text;vsdxID=92;fillColor=none;gradientColor=none;labelBackgroundColor=none;rounded=0;html=1;whiteSpace=wrap;verticalAlign=middle;align=center;strokeColor=none;;html=1;" parent="25" vertex="1">
          <mxGeometry x="1.62" y="3.25" width="22.75" height="19.5" as="geometry" />
        </mxCell>
        <mxCell id="27" style="vsdxID=93;fillColor=#FFFFFF;gradientColor=none;shape=stencil(rVFBDsIwDHtNj5VCK14wxj8ilm0VZZ3SAuX3tAoIBhwQ4mbHjhMlyjZxxJmUgZg47OnsujQqu1HGuGkkdqkgZVtlmz4wDRyOUyd8xuqs6BBONSFLH9QOAxdha6FbcSLvisR5oQEvvfegFXyMgqwxu6g5JEwuTIupHnkgXcbo3uNwyxEpnonmt/Ivi/1nLfhirQIeZ+6d9/KlZ/31LaUkL7XtFQ==);labelBackgroundColor=none;rounded=0;html=1;whiteSpace=wrap;" parent="21" vertex="1">
          <mxGeometry x="5" y="29" width="26" height="26" as="geometry" />
        </mxCell>
        <mxCell id="28" value="&lt;font style=&quot;font-size:14px;font-family:SimSun;color:#000000;direction:ltr;letter-spacing:0px;line-height:120%;opacity:1&quot;&gt;2&lt;br/&gt;&lt;/font&gt;" style="text;vsdxID=93;fillColor=none;gradientColor=none;labelBackgroundColor=none;rounded=0;html=1;whiteSpace=wrap;verticalAlign=middle;align=center;strokeColor=none;;html=1;" parent="27" vertex="1">
          <mxGeometry x="1.62" y="3.25" width="22.75" height="19.5" as="geometry" />
        </mxCell>
        <mxCell id="29" style="vsdxID=94;fillColor=#FFFFFF;gradientColor=none;shape=stencil(rVFBDsIwDHtNj5VCK14wxj8ilm0VZZ3SAuX3tAoIBhwQ4mbHjhMlyjZxxJmUgZg47OnsujQqu1HGuGkkdqkgZVtlmz4wDRyOUyd8xuqs6BBONSFLH9QOAxdha6FbcSLvisR5oQEvvfegFXyMgqwxu6g5JEwuTIupHnkgXcbo3uNwyxEpnonmt/Ivi/1nLfhirQIeZ+6d9/KlZ/31LaUkL7XtFQ==);labelBackgroundColor=none;rounded=0;html=1;whiteSpace=wrap;" parent="21" vertex="1">
          <mxGeometry x="52" y="29" width="26" height="26" as="geometry" />
        </mxCell>
        <mxCell id="30" value="&lt;font style=&quot;font-size:14px;font-family:SimSun;color:#000000;direction:ltr;letter-spacing:0px;line-height:120%;opacity:1&quot;&gt;4&lt;br/&gt;&lt;/font&gt;" style="text;vsdxID=94;fillColor=none;gradientColor=none;labelBackgroundColor=none;rounded=0;html=1;whiteSpace=wrap;verticalAlign=middle;align=center;strokeColor=none;;html=1;" parent="29" vertex="1">
          <mxGeometry x="1.62" y="3.25" width="22.75" height="19.5" as="geometry" />
        </mxCell>
        <mxCell id="31" value="&lt;font style=&quot;font-size:11px;font-family:Calibri;color:#000000;direction:ltr;letter-spacing:0px;line-height:120%;opacity:1&quot;&gt;激励电路&lt;br/&gt;&lt;/font&gt;" style="verticalAlign=middle;align=center;vsdxID=96;fillColor=#c9c9c9;gradientColor=#d8d8d8;gradientDirection=north;shape=stencil(nZFLDsIwDERP4y0KyQKxLuUCnCAihliEpEpL+ZyetANS6YJFs7JnXmxpTKZqvW2YtGq7nC58F9d5MjvSWqLnLF2pyNRkqlPKfM7pFh36xhZSq1Fhhz/rgdbK5uNBXgxts9r+PjAYck39sPwBVMF6foYp9HugQeIE/ZqL4D/oQnC2vhRjPAhOQkC6U38eZ5FwClO/AQ==);strokeColor=#404040;shadow=1;labelBackgroundColor=none;rounded=1;html=1;whiteSpace=wrap;" parent="1" vertex="1">
          <mxGeometry x="606" y="339" width="63" height="31" as="geometry" />
        </mxCell>
        <mxCell id="32" value="" style="verticalAlign=middle;align=center;vsdxID=97;fillColor=#ffffff;gradientColor=none;shape=stencil(nZFLDsIwDERP4y0KyQKxLuUCnCAihliEpEpL+ZyetANS6YJFs7JnXmxpTKZqvW2YtGq7nC58F9d5MjvSWqLnLF2pyNRkqlPKfM7pFh36xhZSq1Fhhz/rgdbK5uNBXgxts9r+PjAYck39sPwBVMF6foYp9HugQeIE/ZqL4D/oQnC2vhRjPAhOQkC6U38eZ5FwClO/AQ==);strokeColor=#404040;shadow=1;labelBackgroundColor=none;rounded=1;html=1;whiteSpace=wrap;" parent="1" vertex="1">
          <mxGeometry x="575" y="406" width="74" height="64" as="geometry" />
        </mxCell>
        <mxCell id="33" value="&lt;font style=&quot;font-size:11px;font-family:Calibri;color:#000000;direction:ltr;letter-spacing:0px;line-height:120%;opacity:1&quot;&gt;逻辑控制电路&lt;br/&gt;&lt;/font&gt;" style="verticalAlign=middle;align=center;vsdxID=105;fillColor=#c9c9c9;gradientColor=#d8d8d8;gradientDirection=north;shape=stencil(nZFLDsIwDERP4y0KyQKxLuUCnCAihliEpEpL+ZyetANS6YJFs7JnXmxpTKZqvW2YtGq7nC58F9d5MjvSWqLnLF2pyNRkqlPKfM7pFh36xhZSq1Fhhz/rgdbK5uNBXgxts9r+PjAYck39sPwBVMF6foYp9HugQeIE/ZqL4D/oQnC2vhRjPAhOQkC6U38eZ5FwClO/AQ==);strokeColor=#404040;shadow=1;labelBackgroundColor=none;rounded=1;html=1;whiteSpace=wrap;" parent="1" vertex="1">
          <mxGeometry x="514" y="339" width="63" height="31" as="geometry" />
        </mxCell>
        <mxCell id="34" value="&lt;font style=&quot;font-size:11px;font-family:Calibri;color:#000000;direction:ltr;letter-spacing:0px;line-height:120%;opacity:1&quot;&gt;放电电路1&lt;br/&gt;&lt;/font&gt;" style="verticalAlign=middle;align=center;vsdxID=106;fillColor=#c9c9c9;gradientColor=#d8d8d8;gradientDirection=north;shape=stencil(nZFLDsIwDERP4y0KyQKxLuUCnCAihliEpEpL+ZyetANS6YJFs7JnXmxpTKZqvW2YtGq7nC58F9d5MjvSWqLnLF2pyNRkqlPKfM7pFh36xhZSq1Fhhz/rgdbK5uNBXgxts9r+PjAYck39sPwBVMF6foYp9HugQeIE/ZqL4D/oQnC2vhRjPAhOQkC6U38eZ5FwClO/AQ==);strokeColor=#404040;shadow=1;labelBackgroundColor=none;rounded=1;html=1;whiteSpace=wrap;" parent="1" vertex="1">
          <mxGeometry x="481" y="423" width="63" height="31" as="geometry" />
        </mxCell>
        <mxCell id="35" value="&lt;font style=&quot;font-size:11px;font-family:Calibri;color:#000000;direction:ltr;letter-spacing:0px;line-height:120%;opacity:1&quot;&gt;放电电路2&lt;br/&gt;&lt;/font&gt;" style="verticalAlign=middle;align=center;vsdxID=107;fillColor=#c9c9c9;gradientColor=#d8d8d8;gradientDirection=north;shape=stencil(nZFLDsIwDERP4y0KyQKxLuUCnCAihliEpEpL+ZyetANS6YJFs7JnXmxpTKZqvW2YtGq7nC58F9d5MjvSWqLnLF2pyNRkqlPKfM7pFh36xhZSq1Fhhz/rgdbK5uNBXgxts9r+PjAYck39sPwBVMF6foYp9HugQeIE/ZqL4D/oQnC2vhRjPAhOQkC6U38eZ5FwClO/AQ==);strokeColor=#404040;shadow=1;labelBackgroundColor=none;rounded=1;html=1;whiteSpace=wrap;" parent="1" vertex="1">
          <mxGeometry x="481" y="499" width="63" height="31" as="geometry" />
        </mxCell>
        <mxCell id="36" value="&lt;font style=&quot;font-size:11px;font-family:Calibri;color:#000000;direction:ltr;letter-spacing:0px;line-height:120%;opacity:1&quot;&gt;放大电路1&lt;br/&gt;&lt;/font&gt;" style="verticalAlign=middle;align=center;vsdxID=116;fillColor=#c9c9c9;gradientColor=#d8d8d8;gradientDirection=north;shape=stencil(nZFLDsIwDERP4y0KyQKxLuUCnCAihliEpEpL+ZyetANS6YJFs7JnXmxpTKZqvW2YtGq7nC58F9d5MjvSWqLnLF2pyNRkqlPKfM7pFh36xhZSq1Fhhz/rgdbK5uNBXgxts9r+PjAYck39sPwBVMF6foYp9HugQeIE/ZqL4D/oQnC2vhRjPAhOQkC6U38eZ5FwClO/AQ==);strokeColor=#404040;shadow=1;labelBackgroundColor=none;rounded=1;html=1;whiteSpace=wrap;" parent="1" vertex="1">
          <mxGeometry x="578" y="417" width="63" height="21" as="geometry" />
        </mxCell>
        <mxCell id="37" value="&lt;font style=&quot;font-size:11px;font-family:Calibri;color:#000000;direction:ltr;letter-spacing:0px;line-height:120%;opacity:1&quot;&gt;放大电路2&lt;br/&gt;&lt;/font&gt;" style="verticalAlign=middle;align=center;vsdxID=117;fillColor=#c9c9c9;gradientColor=#d8d8d8;gradientDirection=north;shape=stencil(nZFLDsIwDERP4y0KyQKxLuUCnCAihliEpEpL+ZyetANS6YJFs7JnXmxpTKZqvW2YtGq7nC58F9d5MjvSWqLnLF2pyNRkqlPKfM7pFh36xhZSq1Fhhz/rgdbK5uNBXgxts9r+PjAYck39sPwBVMF6foYp9HugQeIE/ZqL4D/oQnC2vhRjPAhOQkC6U38eZ5FwClO/AQ==);strokeColor=#404040;shadow=1;labelBackgroundColor=none;rounded=1;html=1;whiteSpace=wrap;" parent="1" vertex="1">
          <mxGeometry x="578" y="439" width="63" height="21" as="geometry" />
        </mxCell>
        <mxCell id="38" value="&lt;font style=&quot;font-size:11px;font-family:Calibri;color:#000000;direction:ltr;letter-spacing:0px;line-height:120%;opacity:1&quot;&gt;放大电路3&lt;br/&gt;&lt;/font&gt;" style="verticalAlign=middle;align=center;vsdxID=120;fillColor=#c9c9c9;gradientColor=#d8d8d8;gradientDirection=north;shape=stencil(nZFLDsIwDERP4y0KyQKxLuUCnCAihliEpEpL+ZyetANS6YJFs7JnXmxpTKZqvW2YtGq7nC58F9d5MjvSWqLnLF2pyNRkqlPKfM7pFh36xhZSq1Fhhz/rgdbK5uNBXgxts9r+PjAYck39sPwBVMF6foYp9HugQeIE/ZqL4D/oQnC2vhRjPAhOQkC6U38eZ5FwClO/AQ==);strokeColor=#404040;shadow=1;labelBackgroundColor=none;rounded=1;html=1;whiteSpace=wrap;" parent="1" vertex="1">
          <mxGeometry x="578" y="492" width="63" height="21" as="geometry" />
        </mxCell>
        <mxCell id="39" value="&lt;font style=&quot;font-size:11px;font-family:Calibri;color:#000000;direction:ltr;letter-spacing:0px;line-height:120%;opacity:1&quot;&gt;放大电路4&lt;br/&gt;&lt;/font&gt;" style="verticalAlign=middle;align=center;vsdxID=121;fillColor=#c9c9c9;gradientColor=#d8d8d8;gradientDirection=north;shape=stencil(nZFLDsIwDERP4y0KyQKxLuUCnCAihliEpEpL+ZyetANS6YJFs7JnXmxpTKZqvW2YtGq7nC58F9d5MjvSWqLnLF2pyNRkqlPKfM7pFh36xhZSq1Fhhz/rgdbK5uNBXgxts9r+PjAYck39sPwBVMF6foYp9HugQeIE/ZqL4D/oQnC2vhRjPAhOQkC6U38eZ5FwClO/AQ==);strokeColor=#404040;shadow=1;labelBackgroundColor=none;rounded=1;html=1;whiteSpace=wrap;" parent="1" vertex="1">
          <mxGeometry x="578" y="514" width="63" height="21" as="geometry" />
        </mxCell>
        <mxCell id="40" value="&lt;font style=&quot;font-size:11px;font-family:Calibri;color:#000000;direction:ltr;letter-spacing:0px;line-height:120%;opacity:1&quot;&gt;GPIO X3&lt;br/&gt;&lt;/font&gt;" style="verticalAlign=middle;align=center;vsdxID=126;fillColor=#f0f0f0;gradientColor=#ffffff;gradientDirection=north;shape=stencil(nZFLDsIwDERP4y0KyQKxLuUCnCAihliEpEpL+ZyetANS6YJFs7JnXmxpTKZqvW2YtGq7nC58F9d5MjvSWqLnLF2pyNRkqlPKfM7pFh36xhZSq1Fhhz/rgdbK5uNBXgxts9r+PjAYck39sPwBVMF6foYp9HugQeIE/ZqL4D/oQnC2vhRjPAhOQkC6U38eZ5FwClO/AQ==);strokeColor=#00b0f0;shadow=1;labelBackgroundColor=none;rounded=1;html=1;whiteSpace=wrap;" parent="1" vertex="1">
          <mxGeometry x="348" y="339" width="56" height="31" as="geometry" />
        </mxCell>
        <mxCell id="41" value="&lt;font style=&quot;font-size:11px;font-family:Calibri;color:#000000;direction:ltr;letter-spacing:0px;line-height:120%;opacity:1&quot;&gt;GPIO X2&lt;br/&gt;&lt;/font&gt;" style="verticalAlign=middle;align=center;vsdxID=127;fillColor=#f0f0f0;gradientColor=#ffffff;gradientDirection=north;shape=stencil(nZFLDsIwDERP4y0KyQKxLuUCnCAihliEpEpL+ZyetANS6YJFs7JnXmxpTKZqvW2YtGq7nC58F9d5MjvSWqLnLF2pyNRkqlPKfM7pFh36xhZSq1Fhhz/rgdbK5uNBXgxts9r+PjAYck39sPwBVMF6foYp9HugQeIE/ZqL4D/oQnC2vhRjPAhOQkC6U38eZ5FwClO/AQ==);strokeColor=#00b0f0;shadow=1;labelBackgroundColor=none;rounded=1;html=1;whiteSpace=wrap;" parent="1" vertex="1">
          <mxGeometry x="348" y="393" width="56" height="31" as="geometry" />
        </mxCell>
        <mxCell id="42" style="vsdxID=128;rotation=270;fillColor=#FFFFFF;gradientColor=none;shape=stencil(UzV2Ls5ILEhVNTIoLinKz04tz0wpyVA1dlE1MsrMy0gtyiwBslSNXVWNndPyi1LTi/JL81Ig/IJEkEoQKze/DGRCBUSfoYEBSI+RQSUq3w2iOCczD0mxKapaPCpJMJSAC4AMhNvTMnNyIF5Hlkf3K1AIEk7GrgA=);labelBackgroundColor=none;rounded=0;html=1;whiteSpace=wrap;" parent="1" vertex="1">
          <mxGeometry x="356" y="453" width="50" height="50" as="geometry" />
        </mxCell>
        <mxCell id="43" value="&lt;font style=&quot;font-size:8px;font-family:SimSun;color:#000000;direction:ltr;letter-spacing:0px;line-height:120%;opacity:1&quot;&gt;COMP1&lt;br/&gt;&lt;/font&gt;" style="text;vsdxID=128;rotation=89.43;fillColor=none;gradientColor=none;labelBackgroundColor=none;rounded=0;html=1;whiteSpace=wrap;verticalAlign=middle;align=center;strokeColor=none;horizontal=0;;html=1;" parent="42" vertex="1">
          <mxGeometry x="8" y="8" width="50.36" height="33.58" as="geometry" />
        </mxCell>
        <mxCell id="45" value="&lt;font style=&quot;font-size: 20px; font-family: simsun; color: rgb(255, 0, 0); direction: ltr; letter-spacing: 0px; line-height: 120%; opacity: 1;&quot;&gt;评估板&lt;br style=&quot;font-size: 20px;&quot;&gt;&lt;/font&gt;" style="verticalAlign=middle;align=center;vsdxID=148;fillColor=none;gradientColor=none;shape=stencil(nZBLDoAgDERP0z3SIyjew0SURgSD+Lu9kMZoXLhwN9O+tukAlrNpJg1SzDH4QW/URgNYgZTkjA4UkwJUgGXng+6DX1zLfmoymdXo17xh5zmRJ6Q42BWCfc2oJfdAr+Yv+AP9Cb7OJ3H/2JG1HNGz/84klThPVCc=);strokeColor=none;labelBackgroundColor=none;rounded=0;html=1;whiteSpace=wrap;fontSize=20;" parent="1" vertex="1">
          <mxGeometry x="470" y="170" width="214" height="28" as="geometry" />
        </mxCell>
        <mxCell id="47" style="vsdxID=4;edgeStyle=none;startArrow=classic;endArrow=classic;strokeColor=#404040;spacingTop=0;spacingBottom=0;spacingLeft=0;spacingRight=0;verticalAlign=middle;html=1;labelBackgroundColor=#ffffff;rounded=0;exitX=0.5045871559633027;exitY=1;exitDx=0;exitDy=0;exitPerimeter=0;entryX=0.5;entryY=0;entryDx=0;entryDy=0;entryPerimeter=0;startFill=1;endFill=1;" parent="1" source="7" target="14" edge="1">
          <mxGeometry relative="1" as="geometry">
            <mxPoint x="9" as="offset" />
            <Array as="points" />
          </mxGeometry>
        </mxCell>
        <mxCell id="48" style="vsdxID=14;edgeStyle=none;startArrow=block;endArrow=block;startSize=5;endSize=5;strokeColor=#404040;spacingTop=0;spacingBottom=0;spacingLeft=0;spacingRight=0;verticalAlign=middle;html=1;labelBackgroundColor=#ffffff;rounded=0;exitX=1.011764705882353;exitY=0.5111111111111111;exitDx=0;exitDy=0;exitPerimeter=0;entryX=0;entryY=0.4838709677419355;entryDx=0;entryDy=0;entryPerimeter=0;" parent="1" source="11" target="6" edge="1">
          <mxGeometry relative="1" as="geometry">
            <mxPoint as="offset" />
            <Array as="points" />
          </mxGeometry>
        </mxCell>
        <mxCell id="49" style="vsdxID=15;edgeStyle=none;startArrow=block;endArrow=block;startSize=5;endSize=5;strokeColor=#404040;spacingTop=0;spacingBottom=0;spacingLeft=0;spacingRight=0;verticalAlign=middle;html=1;labelBackgroundColor=#ffffff;rounded=0;exitX=1.011764705882353;exitY=0.5111111111111111;exitDx=0;exitDy=0;exitPerimeter=0;entryX=0;entryY=0.4838709677419355;entryDx=0;entryDy=0;entryPerimeter=0;" parent="1" source="20" target="13" edge="1">
          <mxGeometry relative="1" as="geometry">
            <mxPoint as="offset" />
            <Array as="points" />
          </mxGeometry>
        </mxCell>
        <mxCell id="51" style="vsdxID=135;edgeStyle=none;startArrow=none;endArrow=blockThin;startSize=5;endSize=5;strokeColor=#000000;spacingTop=0;spacingBottom=0;spacingLeft=0;spacingRight=0;verticalAlign=middle;html=1;labelBackgroundColor=#ffffff;rounded=0;exitX=0;exitY=0.5161290322580645;exitDx=0;exitDy=0;exitPerimeter=0;" parent="1" source="35" target="42" edge="1">
          <mxGeometry relative="1" as="geometry">
            <mxPoint as="offset" />
            <Array as="points">
              <mxPoint x="447.3" y="515" />
              <mxPoint x="447.3" y="486.8" />
              <mxPoint x="406.06" y="486.8" />
            </Array>
          </mxGeometry>
        </mxCell>
        <mxCell id="52" style="vsdxID=134;edgeStyle=none;startArrow=none;endArrow=blockThin;startSize=5;endSize=5;strokeColor=#000000;spacingTop=0;spacingBottom=0;spacingLeft=0;spacingRight=0;verticalAlign=middle;html=1;labelBackgroundColor=#ffffff;rounded=0;exitX=0;exitY=0.4838709677419355;exitDx=0;exitDy=0;exitPerimeter=0;" parent="1" source="34" target="42" edge="1">
          <mxGeometry relative="1" as="geometry">
            <mxPoint y="-1" as="offset" />
            <Array as="points">
              <mxPoint x="462.64" y="438" />
              <mxPoint x="447.3" y="438" />
              <mxPoint x="447.3" y="472.2" />
              <mxPoint x="406.06" y="472.2" />
            </Array>
          </mxGeometry>
        </mxCell>
        <mxCell id="53" style="vsdxID=133;edgeStyle=none;startArrow=none;endArrow=blockThin;startSize=5;endSize=5;strokeColor=#000000;spacingTop=0;spacingBottom=0;spacingLeft=0;spacingRight=0;verticalAlign=middle;html=1;labelBackgroundColor=#ffffff;rounded=0;exitX=1;exitY=0.7096774193548387;exitDx=0;exitDy=0;exitPerimeter=0;entryX=0.5079365079365079;entryY=0;entryDx=0;entryDy=0;entryPerimeter=0;" parent="1" source="41" target="35" edge="1">
          <mxGeometry relative="1" as="geometry">
            <mxPoint y="-1" as="offset" />
            <Array as="points">
              <mxPoint x="459.26" y="415" />
              <mxPoint x="459.26" y="484.4" />
              <mxPoint x="512.78" y="484.4" />
            </Array>
          </mxGeometry>
        </mxCell>
        <mxCell id="54" style="vsdxID=132;edgeStyle=none;startArrow=none;endArrow=blockThin;startSize=5;endSize=5;strokeColor=#000000;spacingTop=0;spacingBottom=0;spacingLeft=0;spacingRight=0;verticalAlign=middle;html=1;labelBackgroundColor=#ffffff;rounded=0;exitX=1;exitY=0.3225806451612903;exitDx=0;exitDy=0;exitPerimeter=0;entryX=0.5079365079365079;entryY=0;entryDx=0;entryDy=0;entryPerimeter=0;" parent="1" source="41" target="34" edge="1">
          <mxGeometry relative="1" as="geometry">
            <mxPoint as="offset" />
            <Array as="points">
              <mxPoint x="512.78" y="403" />
            </Array>
          </mxGeometry>
        </mxCell>
        <mxCell id="55" style="vsdxID=130;edgeStyle=none;startArrow=none;endArrow=none;startSize=5;endSize=5;strokeColor=#000000;spacingTop=0;spacingBottom=0;spacingLeft=0;spacingRight=0;verticalAlign=middle;html=1;labelBackgroundColor=#ffffff;rounded=0;exitX=1;exitY=0.4838709677419355;exitDx=0;exitDy=0;exitPerimeter=0;entryX=0;entryY=0.4838709677419355;entryDx=0;entryDy=0;entryPerimeter=0;" parent="1" source="40" target="33" edge="1">
          <mxGeometry relative="1" as="geometry">
            <mxPoint x="-1" as="offset" />
            <Array as="points">
              <mxPoint x="419" y="354" />
              <mxPoint x="419" y="354.25" />
            </Array>
          </mxGeometry>
        </mxCell>
        <mxCell id="56" style="vsdxID=124;edgeStyle=none;startArrow=none;endArrow=blockThin;startSize=5;endSize=5;strokeColor=#000000;spacingTop=0;spacingBottom=0;spacingLeft=0;spacingRight=0;verticalAlign=middle;html=1;labelBackgroundColor=#ffffff;rounded=0;exitX=0;exitY=0.5;exitDx=0;exitDy=0;exitPerimeter=0;entryX=1.0158730158730158;entryY=0.5161290322580645;entryDx=0;entryDy=0;entryPerimeter=0;" parent="1" source="4" target="35" edge="1">
          <mxGeometry relative="1" as="geometry">
            <mxPoint x="-1" as="offset" />
            <Array as="points">
              <mxPoint x="560" y="515" />
              <mxPoint x="560" y="514.98" />
            </Array>
          </mxGeometry>
        </mxCell>
        <mxCell id="57" style="vsdxID=123;edgeStyle=none;startArrow=none;endArrow=blockThin;startSize=5;endSize=5;strokeColor=#000000;spacingTop=0;spacingBottom=0;spacingLeft=0;spacingRight=0;verticalAlign=middle;html=1;labelBackgroundColor=#ffffff;rounded=0;exitX=0.5;exitY=1;exitDx=0;exitDy=0;exitPerimeter=0;entryX=1.0158730158730158;entryY=0.5238095238095238;entryDx=0;entryDy=0;entryPerimeter=0;" parent="1" source="29" target="39" edge="1">
          <mxGeometry relative="1" as="geometry">
            <mxPoint x="-1" as="offset" />
            <Array as="points">
              <mxPoint x="744" y="524.15" />
            </Array>
          </mxGeometry>
        </mxCell>
        <mxCell id="58" style="vsdxID=122;edgeStyle=none;startArrow=none;endArrow=blockThin;startSize=5;endSize=5;strokeColor=#000000;spacingTop=0;spacingBottom=0;spacingLeft=0;spacingRight=0;verticalAlign=middle;html=1;labelBackgroundColor=#ffffff;rounded=0;exitX=0.5;exitY=1.0384615384615385;exitDx=0;exitDy=0;exitPerimeter=0;entryX=1.0158730158730158;entryY=0.47619047619047616;entryDx=0;entryDy=0;entryPerimeter=0;" parent="1" source="25" target="38" edge="1">
          <mxGeometry relative="1" as="geometry">
            <mxPoint x="-1" as="offset" />
            <Array as="points">
              <mxPoint x="719" y="502.68" />
            </Array>
          </mxGeometry>
        </mxCell>
        <mxCell id="59" style="vsdxID=113;edgeStyle=none;startArrow=none;endArrow=blockThin;startSize=5;endSize=5;strokeColor=#000000;spacingTop=0;spacingBottom=0;spacingLeft=0;spacingRight=0;verticalAlign=middle;html=1;labelBackgroundColor=#ffffff;rounded=0;exitX=0.6190476190476191;exitY=1;exitDx=0;exitDy=0;exitPerimeter=0;entryX=0.5;entryY=0;entryDx=0;entryDy=0;entryPerimeter=0;" parent="1" source="33" target="32" edge="1">
          <mxGeometry relative="1" as="geometry">
            <mxPoint as="offset" />
            <Array as="points">
              <mxPoint x="553" y="386.4" />
              <mxPoint x="611.73" y="386.4" />
            </Array>
          </mxGeometry>
        </mxCell>
        <mxCell id="60" style="vsdxID=112;edgeStyle=none;startArrow=none;endArrow=blockThin;startSize=5;endSize=5;strokeColor=#000000;spacingTop=0;spacingBottom=0;spacingLeft=0;spacingRight=0;verticalAlign=middle;html=1;labelBackgroundColor=#ffffff;rounded=0;exitX=0.5079365079365079;exitY=1;exitDx=0;exitDy=0;exitPerimeter=0;entryX=0.5;entryY=0;entryDx=0;entryDy=0;entryPerimeter=0;" parent="1" source="33" target="4" edge="1">
          <mxGeometry relative="1" as="geometry">
            <mxPoint as="offset" />
            <Array as="points">
              <mxPoint x="546" y="394.4" />
              <mxPoint x="561.83" y="394.4" />
              <mxPoint x="561.83" y="474.4" />
              <mxPoint x="612.5" y="474.4" />
            </Array>
          </mxGeometry>
        </mxCell>
        <mxCell id="61" style="vsdxID=111;edgeStyle=none;startArrow=none;endArrow=blockThin;startSize=5;endSize=5;strokeColor=#000000;spacingTop=0;spacingBottom=0;spacingLeft=0;spacingRight=0;verticalAlign=middle;html=1;labelBackgroundColor=#ffffff;rounded=0;exitX=1.0158730158730158;exitY=0.4838709677419355;exitDx=0;exitDy=0;exitPerimeter=0;entryX=0;entryY=0.4838709677419355;entryDx=0;entryDy=0;entryPerimeter=0;" parent="1" source="33" target="31" edge="1">
          <mxGeometry relative="1" as="geometry">
            <mxPoint as="offset" />
            <Array as="points" />
          </mxGeometry>
        </mxCell>
        <mxCell id="62" style="vsdxID=109;edgeStyle=none;startArrow=none;endArrow=blockThin;startSize=5;endSize=5;strokeColor=#000000;spacingTop=0;spacingBottom=0;spacingLeft=0;spacingRight=0;verticalAlign=middle;html=1;labelBackgroundColor=#ffffff;rounded=0;exitX=0;exitY=0.5;exitDx=0;exitDy=0;exitPerimeter=0;entryX=1.0158730158730158;entryY=0.4838709677419355;entryDx=0;entryDy=0;entryPerimeter=0;" parent="1" source="32" target="34" edge="1">
          <mxGeometry relative="1" as="geometry">
            <mxPoint x="-1" y="-1" as="offset" />
            <Array as="points">
              <mxPoint x="560" y="438" />
              <mxPoint x="560" y="438.02" />
            </Array>
          </mxGeometry>
        </mxCell>
        <mxCell id="63" style="vsdxID=102;edgeStyle=none;startArrow=none;endArrow=blockThin;startSize=5;endSize=5;strokeColor=#000000;spacingTop=0;spacingBottom=0;spacingLeft=0;spacingRight=0;verticalAlign=middle;html=1;labelBackgroundColor=#ffffff;rounded=0;exitX=0;exitY=0.5;exitDx=0;exitDy=0;exitPerimeter=0;entryX=1;entryY=0.47619047619047616;entryDx=0;entryDy=0;entryPerimeter=0;" parent="1" source="27" target="37" edge="1">
          <mxGeometry relative="1" as="geometry">
            <mxPoint x="-1" as="offset" />
            <Array as="points">
              <mxPoint x="669" y="449" />
              <mxPoint x="669" y="448.96" />
            </Array>
          </mxGeometry>
        </mxCell>
        <mxCell id="64" style="vsdxID=101;edgeStyle=none;startArrow=none;endArrow=blockThin;startSize=5;endSize=5;strokeColor=#000000;spacingTop=0;spacingBottom=0;spacingLeft=0;spacingRight=0;verticalAlign=middle;html=1;labelBackgroundColor=#ffffff;rounded=0;exitX=0;exitY=0.5384615384615384;exitDx=0;exitDy=0;exitPerimeter=0;entryX=1.0158730158730158;entryY=0.47619047619047616;entryDx=0;entryDy=0;entryPerimeter=0;" parent="1" source="23" target="36" edge="1">
          <mxGeometry relative="1" as="geometry">
            <mxPoint x="-1" as="offset" />
            <Array as="points">
              <mxPoint x="663.5" y="427" />
              <mxPoint x="663.5" y="426.98" />
            </Array>
          </mxGeometry>
        </mxCell>
        <mxCell id="65" style="vsdxID=99;edgeStyle=none;startArrow=none;endArrow=blockThin;startSize=5;endSize=5;strokeColor=#000000;spacingTop=0;spacingBottom=0;spacingLeft=0;spacingRight=0;verticalAlign=middle;html=1;labelBackgroundColor=#ffffff;rounded=0;exitX=1.0158730158730158;exitY=0.4838709677419355;exitDx=0;exitDy=0;exitPerimeter=0;entryX=0.49382716049382713;entryY=0;entryDx=0;entryDy=0;entryPerimeter=0;" parent="1" source="31" target="22" edge="1">
          <mxGeometry relative="1" as="geometry">
            <mxPoint as="offset" />
            <Array as="points">
              <mxPoint x="719.5" y="354" />
            </Array>
          </mxGeometry>
        </mxCell>
        <mxCell id="66" style="vsdxID=79;edgeStyle=none;startArrow=block;endArrow=none;startSize=3;endSize=3;strokeColor=#404040;spacingTop=-2;spacingBottom=-2;spacingLeft=-2;spacingRight=-2;verticalAlign=middle;html=1;labelBackgroundColor=none;rounded=0;exitX=0.5094339622641509;exitY=0;exitDx=0;exitDy=0;exitPerimeter=0;" parent="1" source="19" target="42" edge="1">
          <mxGeometry relative="1" as="geometry">
            <mxPoint as="offset" />
            <Array as="points">
              <mxPoint x="319" y="478.9" />
              <mxPoint x="355.97" y="478.9" />
            </Array>
          </mxGeometry>
        </mxCell>
        <mxCell id="67" style="vsdxID=21;edgeStyle=none;startArrow=none;endArrow=block;startSize=5;endSize=5;strokeColor=#404040;spacingTop=0;spacingBottom=0;spacingLeft=0;spacingRight=0;verticalAlign=middle;html=1;labelBackgroundColor=#ffffff;rounded=0;entryX=0.5178571428571429;entryY=0;entryDx=0;entryDy=0;entryPerimeter=0;" parent="1" target="15" edge="1">
          <mxGeometry relative="1" as="geometry">
            <mxPoint x="-10" y="-1" as="offset" />
            <Array as="points">
              <mxPoint x="214" y="294" />
              <mxPoint x="213.82" y="294" />
            </Array>
            <mxPoint x="214" y="277" as="sourcePoint" />
          </mxGeometry>
        </mxCell>
        <mxCell id="68" parent="1" vertex="1">
          <mxGeometry x="136" y="218" as="geometry" />
        </mxCell>
        <mxCell id="70" parent="1" vertex="1">
          <mxGeometry x="123" y="562" as="geometry" />
        </mxCell>
        <mxCell id="71" style="vsdxID=17;edgeStyle=none;startArrow=block;endArrow=block;startSize=5;endSize=5;strokeColor=#404040;spacingTop=0;spacingBottom=0;spacingLeft=0;spacingRight=0;verticalAlign=middle;html=1;labelBackgroundColor=#ffffff;rounded=0;entryX=0;entryY=0.5161290322580645;entryDx=0;entryDy=0;entryPerimeter=0;" parent="1" source="70" target="12" edge="1">
          <mxGeometry relative="1" as="geometry">
            <mxPoint as="offset" />
            <Array as="points" />
          </mxGeometry>
        </mxCell>
        <mxCell id="72" parent="1" vertex="1">
          <mxGeometry x="214" y="219" as="geometry" />
        </mxCell>
        <mxCell id="T1u4JHc62lBeNg_8yhFu-73" value="&lt;font style=&quot;font-size: 11px ; font-family: &amp;#34;calibri&amp;#34; ; color: #000000 ; direction: ltr ; letter-spacing: 0px ; line-height: 120% ; opacity: 1&quot;&gt;DEBUG USB&lt;br&gt;&lt;/font&gt;" style="verticalAlign=middle;align=center;vsdxID=3;fillColor=#c9c9c9;gradientColor=#d8d8d8;gradientDirection=north;shape=stencil(nZFLDsIwDERP4y0KyQKxLuUCnCAihliEpEpL+ZyetANS6YJFs7JnXmxpTKZqvW2YtGq7nC58F9d5MjvSWqLnLF2pyNRkqlPKfM7pFh36xhZSq1Fhhz/rgdbK5uNBXgxts9r+PjAYck39sPwBVMF6foYp9HugQeIE/ZqL4D/oQnC2vhRjPAhOQkC6U38eZ5FwClO/AQ==);strokeColor=#404040;shadow=1;labelBackgroundColor=none;rounded=1;html=1;whiteSpace=wrap;" parent="1" vertex="1">
          <mxGeometry x="78" y="137" width="68" height="46" as="geometry" />
        </mxCell>
        <mxCell id="T1u4JHc62lBeNg_8yhFu-75" value="" style="endArrow=classic;html=1;entryX=0.426;entryY=0.009;entryDx=0;entryDy=0;entryPerimeter=0;exitX=0.213;exitY=1.004;exitDx=0;exitDy=0;exitPerimeter=0;" parent="1" source="T1u4JHc62lBeNg_8yhFu-73" target="T1u4JHc62lBeNg_8yhFu-76" edge="1">
          <mxGeometry width="50" height="50" relative="1" as="geometry">
            <mxPoint x="390" y="154" as="sourcePoint" />
            <mxPoint x="94.17100000000005" y="217.84399999999982" as="targetPoint" />
          </mxGeometry>
        </mxCell>
        <mxCell id="T1u4JHc62lBeNg_8yhFu-76" value="&lt;font style=&quot;font-size: 11px ; font-family: &amp;#34;calibri&amp;#34; ; color: #000000 ; direction: ltr ; letter-spacing: 0px ; line-height: 120% ; opacity: 1&quot;&gt;LDO&lt;br&gt;3.0V&lt;br&gt;&lt;/font&gt;" style="verticalAlign=middle;align=center;vsdxID=5;fillColor=#c9c9c9;gradientColor=#d8d8d8;gradientDirection=north;shape=stencil(nZFLDsIwDERP4y0KyQKxLuUCnCAihliEpEpL+ZyetANS6YJFs7JnXmxpTKZqvW2YtGq7nC58F9d5MjvSWqLnLF2pyNRkqlPKfM7pFh36xhZSq1Fhhz/rgdbK5uNBXgxts9r+PjAYck39sPwBVMF6foYp9HugQeIE/ZqL4D/oQnC2vhRjPAhOQkC6U38eZ5FwClO/AQ==);strokeColor=#404040;shadow=1;labelBackgroundColor=none;rounded=1;html=1;whiteSpace=wrap;" parent="1" vertex="1">
          <mxGeometry x="66" y="224" width="63" height="31" as="geometry" />
        </mxCell>
        <mxCell id="T1u4JHc62lBeNg_8yhFu-80" value="" style="endArrow=classic;html=1;entryX=0.632;entryY=0.993;entryDx=0;entryDy=0;entryPerimeter=0;startArrow=none;startFill=0;endFill=1;" parent="1" edge="1">
          <mxGeometry width="50" height="50" relative="1" as="geometry">
            <mxPoint x="120" y="207" as="sourcePoint" />
            <mxPoint x="119.97600000000011" y="182.6780000000001" as="targetPoint" />
          </mxGeometry>
        </mxCell>
        <mxCell id="T1u4JHc62lBeNg_8yhFu-81" value="" style="endArrow=classic;html=1;entryX=0.002;entryY=0.406;entryDx=0;entryDy=0;entryPerimeter=0;" parent="1" edge="1">
          <mxGeometry width="50" height="50" relative="1" as="geometry">
            <mxPoint x="120" y="207" as="sourcePoint" />
            <mxPoint x="236.29199999999992" y="206.6980000000001" as="targetPoint" />
          </mxGeometry>
        </mxCell>
        <mxCell id="T1u4JHc62lBeNg_8yhFu-82" value="" style="endArrow=classic;html=1;exitX=0.993;exitY=0.483;exitDx=0;exitDy=0;exitPerimeter=0;entryX=0;entryY=0.846;entryDx=0;entryDy=0;entryPerimeter=0;" parent="1" source="T1u4JHc62lBeNg_8yhFu-76" target="7" edge="1">
          <mxGeometry width="50" height="50" relative="1" as="geometry">
            <mxPoint x="130" y="239" as="sourcePoint" />
            <mxPoint x="230" y="239" as="targetPoint" />
          </mxGeometry>
        </mxCell>
        <mxCell id="T1u4JHc62lBeNg_8yhFu-83" value="" style="endArrow=none;html=1;entryX=0.532;entryY=1.002;entryDx=0;entryDy=0;entryPerimeter=0;" parent="1" target="T1u4JHc62lBeNg_8yhFu-76" edge="1">
          <mxGeometry width="50" height="50" relative="1" as="geometry">
            <mxPoint x="100" y="277" as="sourcePoint" />
            <mxPoint x="100.33599999999988" y="254.9980000000001" as="targetPoint" />
          </mxGeometry>
        </mxCell>
        <mxCell id="T1u4JHc62lBeNg_8yhFu-84" value="" style="endArrow=none;html=1;" parent="1" edge="1">
          <mxGeometry width="50" height="50" relative="1" as="geometry">
            <mxPoint x="100" y="277" as="sourcePoint" />
            <mxPoint x="520" y="277" as="targetPoint" />
          </mxGeometry>
        </mxCell>
        <mxCell id="T1u4JHc62lBeNg_8yhFu-85" style="vsdxID=21;edgeStyle=none;startArrow=none;endArrow=block;startSize=5;endSize=5;strokeColor=#404040;spacingTop=0;spacingBottom=0;spacingLeft=0;spacingRight=0;verticalAlign=middle;html=1;labelBackgroundColor=#ffffff;rounded=0;" parent="1" edge="1">
          <mxGeometry relative="1" as="geometry">
            <mxPoint x="-10" y="-1" as="offset" />
            <Array as="points">
              <mxPoint x="520.1800000000001" y="294" />
              <mxPoint x="520" y="294" />
            </Array>
            <mxPoint x="520.1800000000001" y="277" as="sourcePoint" />
            <mxPoint x="520" y="294" as="targetPoint" />
          </mxGeometry>
        </mxCell>
        <mxCell id="T1u4JHc62lBeNg_8yhFu-86" style="vsdxID=146;fillColor=none;gradientColor=none;shape=stencil(nZBLDoAgDERP0z3SIyjew0SURgSD+Lu9kMZoXLhwN9O+tukAlrNpJg1SzDH4QW/URgNYgZTkjA4UkwJUgGXng+6DX1zLfmoymdXo17xh5zmRJ6Q42BWCfc2oJfdAr+Yv+AP9Cb7OJ3H/2JG1HNGz/84klThPVCc=);strokeColor=#4bacc6;strokeWidth=3;labelBackgroundColor=none;rounded=0;html=1;whiteSpace=wrap;" parent="1" vertex="1">
          <mxGeometry x="10" y="670" width="780" height="355" as="geometry" />
        </mxCell>
        <mxCell id="T1u4JHc62lBeNg_8yhFu-106" value="" style="edgeStyle=orthogonalEdgeStyle;rounded=0;orthogonalLoop=1;jettySize=auto;html=1;startArrow=none;startFill=0;endArrow=classic;endFill=1;" parent="1" source="T1u4JHc62lBeNg_8yhFu-87" target="T1u4JHc62lBeNg_8yhFu-104" edge="1">
          <mxGeometry relative="1" as="geometry" />
        </mxCell>
        <mxCell id="T1u4JHc62lBeNg_8yhFu-107" style="edgeStyle=orthogonalEdgeStyle;rounded=0;orthogonalLoop=1;jettySize=auto;html=1;startArrow=none;startFill=0;endArrow=classic;endFill=1;" parent="1" source="T1u4JHc62lBeNg_8yhFu-87" target="T1u4JHc62lBeNg_8yhFu-91" edge="1">
          <mxGeometry relative="1" as="geometry">
            <Array as="points">
              <mxPoint x="480" y="710" />
            </Array>
          </mxGeometry>
        </mxCell>
        <mxCell id="T1u4JHc62lBeNg_8yhFu-87" value="&lt;font style=&quot;font-size: 11px ; font-family: &amp;#34;calibri&amp;#34; ; color: #000000 ; direction: ltr ; letter-spacing: 0px ; line-height: 120% ; opacity: 1&quot;&gt;USB&lt;br&gt;&lt;/font&gt;" style="verticalAlign=middle;align=center;vsdxID=3;fillColor=#c9c9c9;gradientColor=#d8d8d8;gradientDirection=north;shape=stencil(nZFLDsIwDERP4y0KyQKxLuUCnCAihliEpEpL+ZyetANS6YJFs7JnXmxpTKZqvW2YtGq7nC58F9d5MjvSWqLnLF2pyNRkqlPKfM7pFh36xhZSq1Fhhz/rgdbK5uNBXgxts9r+PjAYck39sPwBVMF6foYp9HugQeIE/ZqL4D/oQnC2vhRjPAhOQkC6U38eZ5FwClO/AQ==);strokeColor=#404040;shadow=1;labelBackgroundColor=none;rounded=1;html=1;whiteSpace=wrap;arcSize=0;" parent="1" vertex="1">
          <mxGeometry x="68" y="680" width="68" height="46" as="geometry" />
        </mxCell>
        <mxCell id="T1u4JHc62lBeNg_8yhFu-99" value="" style="edgeStyle=orthogonalEdgeStyle;rounded=0;orthogonalLoop=1;jettySize=auto;html=1;startArrow=none;startFill=0;endArrow=classic;endFill=1;" parent="1" source="T1u4JHc62lBeNg_8yhFu-88" target="T1u4JHc62lBeNg_8yhFu-91" edge="1">
          <mxGeometry relative="1" as="geometry" />
        </mxCell>
        <mxCell id="T1u4JHc62lBeNg_8yhFu-100" value="" style="edgeStyle=orthogonalEdgeStyle;rounded=0;orthogonalLoop=1;jettySize=auto;html=1;startArrow=none;startFill=0;endArrow=classic;endFill=1;" parent="1" source="T1u4JHc62lBeNg_8yhFu-88" target="T1u4JHc62lBeNg_8yhFu-93" edge="1">
          <mxGeometry relative="1" as="geometry">
            <Array as="points">
              <mxPoint x="240" y="940" />
              <mxPoint x="240" y="940" />
            </Array>
          </mxGeometry>
        </mxCell>
        <mxCell id="T1u4JHc62lBeNg_8yhFu-88" value="" style="verticalAlign=middle;align=center;vsdxID=1;fillColor=none;gradientColor=none;shape=stencil(nZExDsIwDEVP4xWl8cRcygU4QUQNiQhJlQYKnJ60H6TSgaGZ7P9fbOmbuO6t6YS06nOKFxlcmy3xjrR2wUpyuVTEDXF9iknOKd5Ci74zhdRqUqTFn2qktTLpeHAvgcbVZvvzGBCmXON93P4Aq2A9P9MU+j1Q78IM/Zqr4D/oSnCxvhRTPkjOeY945/4yzyLhFty8AQ==);strokeColor=#00b0f0;strokeWidth=2;shadow=1;labelBackgroundColor=none;rounded=1;html=1;whiteSpace=wrap;" parent="1" vertex="1">
          <mxGeometry x="197.75" y="754.75" width="170.5" height="156.5" as="geometry" />
        </mxCell>
        <mxCell id="T1u4JHc62lBeNg_8yhFu-89" value="&lt;font style=&quot;font-size:14px;font-family:Calibri;color:#000000;direction:ltr;letter-spacing:0px;line-height:120%;opacity:1&quot;&gt;NS3602&lt;br/&gt;&lt;/font&gt;" style="verticalAlign=middle;align=center;vsdxID=76;fillColor=none;gradientColor=none;shape=stencil(nZBLDoAgDERP0z3SIyjew0SURgSD+Lu9kMZoXLhwN9O+tukAlrNpJg1SzDH4QW/URgNYgZTkjA4UkwJUgGXng+6DX1zLfmoymdXo17xh5zmRJ6Q42BWCfc2oJfdAr+Yv+AP9Cb7OJ3H/2JG1HNGz/84klThPVCc=);strokeColor=none;labelBackgroundColor=none;rounded=0;html=1;whiteSpace=wrap;" parent="1" vertex="1">
          <mxGeometry x="250" y="856" width="58" height="20" as="geometry" />
        </mxCell>
        <mxCell id="T1u4JHc62lBeNg_8yhFu-90" style="vsdxID=25;fillColor=none;gradientColor=none;image;aspect=fixed;image=data:image/png,iVBORw0KGgoAAAANSUhEUgAAAc8AAACECAIAAAB58jdnAAAYTUlEQVR4nO2deXhUVbbFb1USQkIIYdQwhSDzpCAgrWIzI+1TcQBURFrkk6FRROWzGxCkH4gKig9b5DW2tO0Dgac4oSIi2AqCDIY5QEggTIGQmZA5qfdHbu296lnVSYXiJK3r94/LS9WtW6dundxad529HS6XyyKEEHKVcVb3ARBCyK8CzraEEGICzraEEGKC4Oo+AELIr47cvCLRPxw6J7qgqET0bzo3Fd2oXrhoh+MqH9xVg9e2hBBiAs62hBBiAs62hBBiAvq2hBATnE7NET3xtY2iN+4+JbqkUP3cztc1Fv3Oc8NE9+wQLdr5b2Xi8tqWEEJMwNmWEEJMwNmWEEJM4GCdBELI1eN06qVy8ciCz2Xjdwc0Y1tWUvL/n2Oj14LXNY0UvXLWHaJ7ddRMbs33cHltSwghJuBsSwghJuBsSwghJqBvSwgJMCnpl0WPddu1m/eekY2lJcV+7lKvC9s2Vw/3/efvEt2j3bXlwlFTDVxe2xJCiAk42xJCiAnoJBBCAkBKeq7o37/0pehv4k6XC//dA1+gqxAlevXsO8tF97bXyMYa5Srw2pYQQkzA2ZYQQkzA2ZYQQkzwb+Db4gGWucpEoyNT8xftBYoyGA787ByWjgCOjF8DgzvEF3I6vO+c/MpBr/bRl74QvSmuwrAXnEXOIO97d5WC9jVN6XPbt4wqF++7DVzLsm64rom+ZHWfury2JYQQE3C2JYQQE3C2JYQQE/j0bXMuF4qes2Kb6ISzWeVi1sM3ycY+nZsF/MguuXsgP/PWFtm443CK6IaRtUXPGN1H9OCerQJ+MNWL1KyzLOulVT+K3uxOMlqWFRutyxmfvLe76Nt7t/7XO084k6E7X6k733ZYa+J1i9WeJc+O6iW6d0ftWUJ+JaRm5oke94rmar/anSy6pNirV6vXdpF1QkRjJ/P6dcNE7004LzrhrHbZKS2toEJjp9gGsun9Wf8humvravZweW1LCCEm4GxLCCEm4GxLCCEm8OhwjhHLLeAJvv6/u0U7gmzD5UjyRdn4xcsjRbdrUT8gR1ZSakdr9yfqCx1IVJOxXmSo6AuZWuHtl0d+obpgh5PTRR+B0cjJ18ecz9AUZIVkg0G/N0mH+uhx3XmZS/8q/7KHmnglLTtf9PiF4NXuAq/WVxkEl+2QdozVmWHp1MGi+17fQnSQU8+03ALtdj5z+Xeil68/KDq/QM9ey2HPGIdPZMq2B/78mei1c+4W3Tm2kT7PlIfLa1tCCDEBZ1tCCDEBZ1tCCDGBh29rQfQ2K7cAtsPa/DLbTDlxQTeOe1mXSH88/17Rjeppeq7qh+gEV6VMo3YOl0b2gpy/5MX76CsFB8EfyDJdSO6EDy84yMfCc284fZWbwCIMDqyZUPl9k18I8//nB9HfxJ0V7ZGr9XFiONwn7KJJ/WXjzV2ai160Zqfo+GS9WzDt/p6iX5nYT/TehFTRWw/qwZSVSREV/V7EJ2eLfvA/1cNdDbUUOrUy5OHy2pYQQkzA2ZYQQkzA2ZYQQkwQ7OsfnBX5c2WlatnsOKIrmqf810bRK2epOYJJuhpFUYlt9/x07IJs/OanE6KPu0tDWJ62aacYtXsG9GgpumNMQ9GX8zUzWAa2eGiIba1GhNXSIylWv6kQdE5eITzG+yLxUth7Lryo7AdDu5F1NKocGx0lesbDWm4i8VyW6GYNI0R3b3ut1wOoEDyqH6EIwz/3aS3UU6nqsoWFqi/fDaqUDr4xply0aVb1ZHd+oQ5jHowM2nZ1atsHcOai1qnY/JMmTOPAQLwM4dAWTeqK7nd9jOg+UBAgIkzfXc2koFhrSe+Br0ZenmZvfXm1FgS0O8TYH1PPdlpVY9Wmw6JfXh0nOjNLizCchWHHu0G3QT53V4ImxPPz3LeaPI5KP+iDJ9QUfmjeetGrn9dpqkMMerhWYKmhMyAhhPzC4GxLCCEm4GxLCCEm8Onb+kVpiZojH21Vx3Pm8n+KfmlCf6vGgKbkzLftJdjrvk+QjcUl4Nk4fPREgs2RYRpxxUoRqVlqcpVoHtAa6i7Cu3z6MNn45Y86dLgaPShIDyYrFxaGh+gRpGaoyTUDFpXPfXd7uWjTTIt+vjj+FtFNG6nJ+N7GQ6K3H1YvvkusOtHRDevAc9XP9coO8GdfWLFV9CaowlEK3ac8HTf4Hyhp2qRBeLn4wz09ZOPku7Skb6OoilPeC9/XSr5LP1HfMCRErz8a17Nf6EKGloY4lw6upcetCJdXuWClhkkHgbk/d9ytovt0Uj+35lALzrq6tfXuggNuXbjglPaFWuEY5vZ8BP6PqDIfpbddlq8eZRWip9p+qDHyIHi4a2ZrPdx2LQLs4fLalhBCTMDZlhBCTMDZlhBCTBAY31bXQltWUZEGD5es2ycac50TwGUzxqGTGs0b8+LnouOOuSvGOnw5iL7+JqlplZOnz9197CI8xrvHdMHd3An7wuXmqyebdl6Tp1a4xmOxfIGHsQkOWuYl8HbddS0iwtXNLIC0aSEEeJMvaPen8+dUR9ZR2w5js17ZsDNJ9LQ3tafckSStzGsFe7fqPDW8U0h/p2bazumcd7RdXvJ5Pdp5j6klGt3Qu7OccUnLgFyAXKcVrN+IM2nu7KcPA9HXh4vb0XzcuFOzuokp+vkufWpQuRjSK9bHDq8ieOZ4FM2AMX9kaBfRcYlpolMgH+3xLXHoPo+csh3SOAjtPjCgo+4kXW3x+FN6kjx1342iJftsWVbCGS1fW1wCxrF/1qqe9vuO64s+OE9nBszhtm2utz2q7OHy2pYQQkzA2ZYQQkzgt5PgdNpRpw4tNecUFqr72QO/o/ML9VfnrL9pACjm2nqiK2zBfSWkZetCwBf+rlXj4uL1R43lzm6FBMNS0daaeerbTavD4eLa7/frktMDsIjT8qh3iD/8sXCil18jTjBkPP4OunyGpHwAP6/cr++wsIKi7sQBOwzC30hQztHzN733Azjg7rKzcI32VTpyHIYlWN9SWC0d6t4drhHds70uC86Emp/fxp0SnXTW/esVAljvfqXdU66L1rPrTw//RjQeuM+F6TjUZe79l+p4tmoWJbp/d010NYisLXoPLGTfeVRHIA+cosSTmkBasMpOiTVvrGk8LAMYKHLcXZGWfrJXNm7YqbnDiHC1jJ64R+2+UQM6iM7M1QzcrHf0O5WOLZQgNFlWYuvp/6220rJpQ0T/8aGbROPnkgvNn1xwRs8eq/nFY+Aq7HNbHC48dSuFugpxMH2NhgqNa+beJTo22p76/HUUeG1LCCEm4GxLCCEm4GxLCCEm8D8B5jZWmsOKz0WTdVXuHX/8QPTpVG21nZajNtzk1zeJ/nT+PaK7xDb2+3gsy/JtoPxwUFeOfrD5iP4D/JWJCLcdt6n36krQ58eq3xca4n2ULkJ1uAUrd4hevGaX1xdCJHWD4aJhfdTC3v3ueNHJkAZbsEqXnO4+oP5g4ya6oHbK8OtFD+/b/ucv1B7WFh+BzE1l8NVKZOMu2/7bvEt9QLRWoxtHip4xurfox++8QXStYO89fpJgpfWf3OuS126Ol42lBfr2Pt6WKHqguzyjZVk3VWqBrEeqrvy/94FrOe+x20R3aKmpIKQMql8uA4d0HpwkKakaWft2p33AG3dfJxvbQOSoVnDVr4ou5em9k8mL7Wqoa7/TISr2qOGpb/87qIS5dOoA0RMhvuly6eNnQSAvI0u/+JbTHo0DiXqmDXl2regNC0eIbt9S75fcPfMj0R1a6GgseXKg6DXQtPz+2R+Xi4PQbsdV6r1CqW+8RzkfmPup6LUvDC8XreD+U2XgtS0hhJiAsy0hhJiAsy0hhJjAf9/WbUmVQKita2v1W5dPv130fW4nxbKsy/m4QlRtnfELN4hev+A+0SE+LDyvoJlYUKQv9CWsIsUQanCo7nxgD7vxxrzxuuKzMlm6xlHhop8e2Us0rixc//1xfQL0RpGqcbhyNypCV+je2E6Tp/WgsU39uvqi6MWGQoIViyt2a12BFY4mY2XAXkEXIGK5I95tIhfpQDugEOXDg9T9nHKPLsqsDK2bRol+ZqTd+Pp0qq643f6TBnIPJGnEdR8EftG39YzbwgiUqL6xi/34Z0fph+vLq0UwNDoZUqtJ4L+/sW6P6KJc+0W/P6C3GYbf2la0v/4g8sY6jT+v32mPUnEhrO32caZfytXPcfJivdHiBC9+0t03iMYVwLNXaA43M8t9kjj1AZez9QAKoSVPFtzdOZWqZ9d2KNGJyfElUweLXj3HXmg7aq7mZA+dVLPY/xyuPn5XvHq48/5hv7u/TB0kG2uHVtz6iNe2hBBiAs62hBBiAs62hBBigqpXXPRVhW5gD004Lp6iMb0Jr34tGruj70lQY+XxRerhvjVtqH2IfoYNsTd4fLJWh8N18nXraPnB390kZe6q3g1DuqpYlnVHH01Nrv8WQr4hVWxqjUNd5tGbxAGP0QeVuiruX+LvIYjC7jBp0AfolARIodpDbFMN9t7cuVlADkW6nfdqrwUWtu9V37YAGsKfvqixViQI3wYmiEv05LnZ3ZC8A4RAr4TboODGx9vU0E/Mtc/S42c0KIo1If31bfGEQec6J9edEK/MmQ5VEy/l6Rd2wmsb9SGwnynQuAiZ7a6lkJkNIVxw/0PhC16Kh46nMZTofOez/XCQuv2NJ20XFSslPgi1Dg5eiYcLoyH9n/LhFhF9W0IIqSlwtiWEEBNwtiWEEBMEqFMO7hEcmUeGaIONpLNZol96b7voEktdtg27NVU3w90d3d+GxuhgFhZ5dzCD4CDr163t9TF+gU3I64TBqKKzVeXGzDWVEuhOXlTsZajDwMyKCKv18wdUAQli1wkDpwzrBUP3lCLQHncafHTkwcsPiTnXrhWYr0lDqIFbJxRPEvu/2IWouNjfcCjsD95d4ygtoFHLfeegsKDivK3nHnUYc8HDnbRYb8bgFx893BJ3uYkX3tUyEdnp6qfXCtFQNtaP9giC44fn4eFqLy4J6L8+RUO4q8DDvR/i/8dgOqqch6sHGd3IHtJQf9YEWLy2JYQQM3C2JYQQE3C2JYQQEwTet0VCwZGZOUYrxp6CTtqrvtZEan6+ZgxXbDhQLjxqnjoqTpJilLJJfawqoDK/UL2nfQn2CugR/bTrsr/kFegOj57WOgke5lPV47wV46tLeMB3jwYaWrFgf+sjzqdrKYMT57MCcijSa+7kBehMjgZ9bT2rG0RqsNqj6ZrPpuWm8GUcB5rH79RixzviU8oFdk7z/+V1qLMvqf/7+Kuaww2CShFP3W/XtSiG9m6vrt4pGmcJz0Px3tPPAzCL//qR7eFif7/FU7QY7toXtLfYSKhXe+ysTkeeHq4eWGS46ukj7erMlcnYIry2JYQQE3C2JYQQE3C2JYQQE1xd3xZBj+81MFOSoUHTtv1a39PltocKi71XBkDQhQuvrWbKrbAy/VPoS3b5si7w/3DrsXIxor8WYL2+TRMf78M7e49fEL3iywP6D4GIagZDmDQMdwhvuwCCilngpgWcUnCimzfR3nSdYuySCFu26eLx9HQtUbpuq1YG6HdDS9FtoQFXZfh8u12zeNPuZN0aBHHIhnpU7ZppoQakrNSQn17tSFkJC+qxToRaB/vg1PUbhw5jVo6edeNe+Uq0nKRPDNcQ7sjfthfdFDochkDNhOXPDBE9belm0cc9orIwOYTYz132UZzXg0UP98O5w0XP+bt2VNufqGUlohtGiJ45po/ogT1alQun079Th9e2hBBiAs62hBBiAs62hBBiAnO+LdIEOnote1rdmTtnrBN9MkXSlBWvYsZaCpj1G9pLatdai5tpkdCUNPVtJR47ev562fj8mJtF39pNC7OWQN+qr3Zp07OFa3aJPgf9sgLy56xuuPYlaxUNpU6hAGhapr7oqm/iRbePsWuzdm+jjc4a1dMF+w5fSUYflEJqMjREz5/+bit27bfHZONF8G037EgUPQHyztjSrWf7aNFYNGDtFvXc3/p0n3vnMM5QseGWrtp/rHdH3SFS3Wnb6qGPuzPbm09pJYFJr2mtA2zp5vcgQRY+Gzzcue9uLRe94LPAIPx7Xx8SHQm1L4b3bSf6VVd/0Y+CKZyeCTVz5YDhPseyj/aKjqqr36M5Y7UJ4Qdz7xadkaMzQ2QdvdUUHORfSQSv8NqWEEJMwNmWEEJMwNmWEEJMUD2+LVqFHWMaiV7+7FDR9z7/Sbm4lId5W+9eksvHsvd2zTVuOXvsLaInLdK8octl/8nB1vOj538uOipCvaQySJtmYqwVlmYH/E9Yo3q62H/ADS1Ev71+r+iCQh2l7YfOih46/YNygQ7moom3icZKAlfCoJ6tysWjt2tR41dW/QgP0XHZEndG9LZDKaIjoTQwljrNydcML5wDehq1a6fvDg+gWWPNchLhli56K+KtaerhYs+xQ0kX9QkOPz1c+Mp2b2t/NHi3ZubfvtMD+ExvM+RnqRf/9oxhoscO6yq6HdyA2ZGjNwZcZd4OEjzcJR/uET1mcGfRnVo1Fh2or4NXeG1LCCEm4GxLCCEmqB4nAcHA1m+v15/JS560l9mNe+VL2ejCMBj4EUEO7382sMcJ/nbIztXSjnNW2B2YcYlwKawITM/xsRDWV3TKoztOgLNG/aGB/HMP6WrCP/9Dmw+5XFDCzt0qJj1HA1X5BfrD3BkZmIWr0lfm6RE9ZWNhkX5gS93JLcuyikuwxY7qNI/2MD4K7hXb29vEqE20YLwGen4HHeZJhdzSVV2FZU+jq6DJsMMnwFWoTDIMsokN3P2BQiBElXQuS3RRkZ6ZllMfcxKSlLhGNgJSYg744ru8RkXhxMkDP+pitia90B70dzGuX/DalhBCTMDZlhBCTMDZlhBCTODTt/VYzwlehtisQVfB4AiBpjij3PUPz6WpfTN/pTbY6BKjlfr6guHrizpQifHpEbpatJd7teibH2uhtq37NaIkrVksz9bo1zbQgmwDumsJQQyRLPlwt2gX/G0Lco+vv7ZuVISuPpz+QG/RHVrqaPwV2j7vOmrX03PCwkoHfnYgsU+71w/dqsRK32saaEvtFx/vKxoXQC9fv1+P8IiW2cy6rBZ5CAx1MyiieOfNti2LPWA6x2qIpzJ4nL3QWgk/D9kcqBPd6WNIZaiDPcY5QK/qD7d21Qqlb07V+oQTX9sk+uipNHiGj/MXPrtd8fbnm3FJrdJpI/TUzcgphufpDscM6ST6XJomvZJSskWXwQ0AH5+THknzJhpBi71WY2RX1av1fiiEEEKuHpxtCSHEBJxtCSHEBA5fa16zIJF68rw2sxHbLjJcy5HFYhnAQIPR17MXtcAaHkCUtte+khfSoUjNVJ8Io3lOsNOugapxjWFVYh6UEzx2OkM0ZgPrRdgHH9MkEh4QGP+oCMys8+6ahwUQfY1uqNZqLegvfRq6FuXkaQoSLe9m0NcEk4/+HSHkai/AUGfk6FkXAgfWFHqWoHNdZVIy9EXxs8boZdNG9os2qa/DdSWfUB7EnM+k6VBfdudAw6E3e0s4McJCqzkXv/mnU6InLtYcbgKc3h7LdXGc3EP6wjhdOv/MKPVtI2rrFxmfVwgnyYRXtcri+1u0pGdRodcsvH7RMHH/znNaGGBEP22LFRxk6KKT17aEEGICzraEEGICzraEEGICn74tIYT8nM171MOdAB7u8TMVerg61QzuqeU+hvRsLboE+jB9si1B9O5jWqihpETvi3hiv1DtUL2d8Na0QaJHD9IAL0b7jcFrW0IIMQFnW0IIMQFnW0IIMQF9W0JIFflq1wnRkxdrLQUsX+vp4bpxoG2KU5DD+3aXt51YFl4vhoTYetlT6tU+PFTbJtWqDq8W4bUtIYSYgLMtIYSYgLMtIYSYgL4tISQAbNiJHq7mcE+kZLlloKYa9XaxmMabU227dix6tSHV7NUivLYlhBATcLYlhBATcLYlhBAT0LclhAQY9HAnuT3ck9BPzHsI91+hXi1asUueGCD698O6lYvQmuTVIry2JYQQE3C2JYQQE3C2JYQQE9C3JYRcRb74MalcTH5dCykkawjX8p3D9Z6r/cuTA0WPvb2r6Bpr1wq8tiWEEBNwtiWEEBPQSSCEmOCzHxJFT1mirsKp1MvwKHUPgp06Nb3+h36iH7ujm2hsYF7z4bUtIYSYgLMtIYSYgLMtIYSYgL4tIcQ0O+PPiV69+ajonLxC0ff1bSt64I2tRNeoIop+wWtbQggxAWdbQggxAWdbQggxAX1bQggxAa9tCSHEBJxtCSHEBJxtCSHEBJxtCSHEBJxtCSHEBJxtCSHEBJxtCSHEBP8H2aCD84vnlnAAAAAASUVORK5CYII=;strokeColor=none;labelBackgroundColor=none;rounded=0;html=1;whiteSpace=wrap;" parent="1" vertex="1">
          <mxGeometry x="236" y="810" width="83" height="23" as="geometry" />
        </mxCell>
        <mxCell id="T1u4JHc62lBeNg_8yhFu-97" value="" style="edgeStyle=orthogonalEdgeStyle;rounded=0;orthogonalLoop=1;jettySize=auto;html=1;startArrow=none;startFill=0;endArrow=classic;endFill=1;" parent="1" source="T1u4JHc62lBeNg_8yhFu-91" target="T1u4JHc62lBeNg_8yhFu-92" edge="1">
          <mxGeometry relative="1" as="geometry" />
        </mxCell>
        <mxCell id="T1u4JHc62lBeNg_8yhFu-91" value="步进电机驱动" style="verticalAlign=middle;align=center;vsdxID=1;fillColor=none;gradientColor=none;shape=stencil(nZExDsIwDEVP4xWl8cRcygU4QUQNiQhJlQYKnJ60H6TSgaGZ7P9fbOmbuO6t6YS06nOKFxlcmy3xjrR2wUpyuVTEDXF9iknOKd5Ci74zhdRqUqTFn2qktTLpeHAvgcbVZvvzGBCmXON93P4Aq2A9P9MU+j1Q78IM/Zqr4D/oSnCxvhRTPkjOeY945/4yzyLhFty8AQ==);strokeColor=#00b0f0;strokeWidth=2;shadow=1;labelBackgroundColor=none;rounded=1;html=1;whiteSpace=wrap;" parent="1" vertex="1">
          <mxGeometry x="426.5" y="764.06" width="117.5" height="137.88" as="geometry" />
        </mxCell>
        <mxCell id="T1u4JHc62lBeNg_8yhFu-92" value="步进电机" style="verticalAlign=middle;align=center;vsdxID=1;fillColor=none;gradientColor=none;shape=stencil(nZExDsIwDEVP4xWl8cRcygU4QUQNiQhJlQYKnJ60H6TSgaGZ7P9fbOmbuO6t6YS06nOKFxlcmy3xjrR2wUpyuVTEDXF9iknOKd5Ci74zhdRqUqTFn2qktTLpeHAvgcbVZvvzGBCmXON93P4Aq2A9P9MU+j1Q78IM/Zqr4D/oSnCxvhRTPkjOeY945/4yzyLhFty8AQ==);strokeColor=#00b0f0;strokeWidth=2;shadow=1;labelBackgroundColor=none;rounded=1;html=1;whiteSpace=wrap;" parent="1" vertex="1">
          <mxGeometry x="606" y="777.03" width="94" height="111.94" as="geometry" />
        </mxCell>
        <mxCell id="T1u4JHc62lBeNg_8yhFu-93" style="vsdxID=9;fillColor=none;gradientColor=none;image;aspect=fixed;image=data:image/png,iVBORw0KGgoAAAANSUhEUgAAAc8AAACaCAIAAABALlSMAABlRUlEQVR4nO39eZhl110f/H7OPNU8dVfPs1pSqyW15tEDno0NeMIQQggOgRfyhuRCILmX5M3wkudeQkjgSZ6bPAQCl4TZNhg8YNmWLcmWJduyWlJrbrXU81Rdc535nPvHOutUyRosy6IZvL9/lI5O7b3X2mufPvVdv+H7TXW7XRHhdafTwaFDh/ChD30It9xyC37u534OhUIB4+PjvkWsHSjBXyFSqdS3eYVX+ChfyUB/rT4V3/7KvAxmZmb+8i6e4CLjV3/1V/Enf/In+K//9b/i5ptvRjqd9tIfpPRFm1+CBAkSfCcjtZbPhp+/+Zu/if/yX/4LfumXfgnXXnvtN5w2MTHxrY4UBvprxWW+0/Cac7eXf5rfmdz2pS5y/vz5b//iCf5a4amnnsJP//RP413vehf++T//58hkMiLPXYuE2yZIkCDBxUDybZsgQYIEFwOpED1ot9t4+OGH8cM//MP45Cc/KebEXojJyclvdaQwkBR0rdk/hpcvu4lLrTkw/Hf16O4LjnsF73fDW6nnvfXi473wdbyHePAL7uWbTGbNFV9qUC/x/jcuUphJWJDUNx78EuhtdV9ivV96Z78mm/qiA7xguVKp1b/lzxvteQvwEqv38uhf7hWf8rwDX/hoekuSEp/Pq4hwrL3qC+MJ586d+5avmOBvDn7wB38QP/VTP4V3vvOdXiyekHDbBAkSJLgYSLVaLdTrddx+++34d//u3+Gaa655mdOmpsbR0Qn/2+p0kJJGOp0VGUOn0xW/3VuaaGsgKxyzyitSMiK5aGkhHa4mg6YmMtLI9qbwPO4RLpXu0YsUunFu/YkFdLTRke4PF6/Q7r8O1wl31+52kEll+tdp6649N7OGqrW6LZHTZWT6F2xr9+8ovE51U0in0v07Wcvy0r0Jd/vvhzE63dWbWr3rVLo/t1RvedLodNrIpFen0Vkz817SMgzRhUwoXukN2u5PIOUbCXOz0+jNM53pL1Rkg11kUnnEZ5Vas0phGsTtVOCAqXSqv+wvJPFdzdUVeP5zX/vEVw+PTy2dWvt5gHZvqr7ht6tnPv9O02s+OV1pNONvw69yvU9vuFCg6x2rLKYjLvX583MS/O3F2bNn8d73vhd33nknpqamRIYbPucJt02QIEGCi4FUrVbDL/7iL2Jubg6/8Au/8E1Pm5gaQ7vbCv/b6oQXgemkkEnn0WiHAB6cnj2Kw0efQKvexujoKLLZPE6cPIV2q41t23dgbnYe83PzKJQK2L1zF86cPo65+dkw9PDwMDZv2ozjx49jZWUZ0xs2oJAr4PiJ46jXa9iza4/IU545cgS5bBq7d+/CufNncebMaQwODmLLpq04c/4szp+7gA0bN2FsZCxM4OizR1CrVbH7kt1o1Js4efwEcrkctu3YhvPnZzC/MIdKqYKN05tw4sxJLC4vYmJ8AsMDQ/1pNFtNbJ7ehFqjirNnz4Shw6Zh29ZtmJtbwNzsEgYHBjE2NtoftN3uYHRsFIV8HjMXLqBarWJyfEL883thbgbdVEfsYVleWkK9Ue+fOzo6HCYQLtLutDEwWBEJ8uLCErqdLMZGxsXN0/LSssjQJyYnsbC4gG67g1KphHyhgLnZOQRuWBkoIZvJYH5hAd3I8YeHRvqLX6vXkc/n+5+KUHTV7nRQGRxEvlzAhQsX6FHY8JRXlqtothr9dahUKqhVa2LKodWGwbFeX8+5mRlkWl1MDo9iYmQUxUwGum2ke7y5g/m5qgR/2/EHf/AH+NKXviSW0oYPZC+G+1c6twQJEiT4TkE2FOj+3u/9Hj772c96pQXnq1E/LC4tIp8vIpsvoJsispjAfJ89dhS//j9+E6eOnsI/+/mfRyqdwX/45f+ISqGMf/l//Vs89ugT+O//9b9g/4ED+Kc//3P4s7vuxJ/+2Z+God/2trfhgx/8IH7nzz6Khw8dwg//0N/F7l278Rsf+UPMzJzH//GhH0djsY5PfeLjGBoawAfe9z489MiDeODrX8PY6Bje//4P4At334OHDh7CG9/4Juy7/PIwgU98+tNYWJjDB0ofwNlz5/ClL96DwaEhvKv0Lnz9wa/j2LFjmJ6exjUHurjni/fg/Mx5XLX/KmzYsAH3fOke1Gp13H7LrSIVDaUjItPMF8t44IGv4eyZ45iamsSle/fi4MGDIjPdtHET1q1fj4ceOohGvYEr9+/H4vIynnzyCHKFCm668SY8cugRnDt7FuvXr8OBA1eHCXzms58VifPll1+KUqmIr3zlfpSLOVxxxT4cP35MJNrZbAbXXnMtHnr4YczPzfXvetPmzbjvvvtQq7Vw0w23IjCDu++5G/l8r1TmtltvxZNPPolDhx7Bps1bcMstN+Puu+7G0ePHcPW112Dr9m34yEc+isXFRXzf930f5hfm+8dXBir43nd/L+7/6ldw8OCD2LZjJ259wxvD0H/2sT/D6aMn8N1veTvedNvrMTE8gnw2i067LbL1bndFgr/t+MAHPoBf//Vfx1e/+lXccMMNkrhtggQJElxMJN+2CRIkSHAxkP3EJz6Bm266SQzovpJIQq/YJx5Yr9WQzWSxMFdDozWLdCaLlg7Ghsfxfe9+H5rNFrZu3SHuQ//Bh34C5WIZGzdsRrvdxf/5T/8ZNm/egsnxKdx8wy3YvGFrGHrX7l0YG57Abbe8HtceuB779l2BgUoF737799BL1u3csQe1hRV89zvejUq5jE0btqLeaGB4YBQbN27E6Mg49u6+HJs37MTu3XtQGSiHCVx95QGx3Gpqcj3Ssrju2htRKVcwPjqJrVu2o1QoY/36aQwPjmLDhk0YGR7DxunNGBoe6q9Dp9XBuvUbsLS4hKmJXsf90NAQJiemMT29Gdl0Gps3T2Pd1AaMj58Wt7TbtuxEsVTEunUb0aw3+lcoFBZQ3RwSVkNYN7EeM+tnkc8UsG56HcrloTCBMET4NITX6XQKU5MbMFgpYNOGLei0UshliyjkCxgbnsTw0CgKhVL/CmFNxscm0Wp2sX5qA6q1GtZNrkcumwsTmJpch9nZOWzauAVbN2/F2Og4hodHsCWVxs4du1AslTA1OYWd23di59adeOKpJ7Fz+y6sn16H9ZPrxVzoVVdchSuvOYCBocEw9KWX7MbuLdtw+eWXYXxiHNlQkBdKBlMZtNv8NVOESPCXine/+934oz/6Ixw4cECSJUuQIEGCi4nUm9/8ZrHtLGScXgkm149bLfxy9PhzyOSyOHbiBJaXq8gXQt4sjwvzFzAzewH7r7wS69atx8zMBSwvraDZbqFVb6HeaIpFTj2hslYTqVToFOgV1zSaTWRzWTSbTYSatkBl8/kcvXr6xeUlsRc5JPRazTD/DgaGKsjn01icXxSriCqDA2hUW2h3uhgdm0S73avwb7cayGTSYg1TmEC4eOC2hVIRy8tL9JhgvpAXK/ybzQZKxZKYXVxeWRbbFrLZXH8d6rU6spkesyuXy2i122KtUilfFHtPAxkM245ioYhcPieWlHU7XbH3IUxmeXkZ2VwGvZ7bVKq/qqFlI7wfyrn6swpcNZPN9C8SaNxAqYJUNy2mocqlsriFajQaYvVYuJFQqtWbRiaDSqWMdruJleoKisUiq7uqXDaP5eoyBgcGkM5k+ksa5lkoliAT7qUlNlOEHGMuk0e1XkU2l1szaFvMpA0MDCBfKmKxuhSGDgs7OjgKzQ66zQ469SaqyzXUVsLilzE6MiDBdwaCOPjP/MzPiJ0OoaAw4bYJEiRIcDGQDR0BmzZt8i2FlkKPYjy+21MhgSeeeBQPPPAARkbHsG7jNJaWV/Do449j9sIMLt17qVg91mg0RRLR6+bsptBpr6ripnWRS3VFkoJMOoXmymobaCkFuWwGnVYLoTt5JJcTA6zN2goyubxYx3bh/BmxXyMUWh0/dRTdoNrTgk7o+ExnxA4CVJcXRXoY/oIFWrS0tCTyuJGRkf77gdP12Fy7LVZEhdULXK9XvR+6e9fQz3breQ8om13t0w2HpdpplEsVrKysiEV4gRJmMlmxlUBvlXL9Y8LPTLaDVLqj37vc7qDVaiMX9hCtZu+5B4KcyfYXv7ddCI0SZy+IzC4w3zMLZ/u/DX0fYQJLiyv91QjPulQso7pyHs32shgRXl6Z6382+isQug+q1YX+61hwk8bcwoX+oGGjEFowzjfqyOdyyOQyYv9LuN98Li+y4/AoB4eH0E71OrzDTqVerWN8aBRDxUHopNBpdlCvNpAdy6DbrUjwnYHwdfrss8+K/97DP8CE2yZIkCDBxUDybZsgQYIEFwO9SMLmzZu/pdN60qVxXxsSKbl8Gg8dfBCf+otPYM8lu5F/rIBCqYRqvYY7Pvnn+MSffFTcyLe7bRRyeaQyaXHD2wnirek0Os12/8h+EKOXH6s3xQ142HR3uyEB1Ua3HTa8GTGzF3bqYbcYtqjh/Uajjk63vfo6iFrJIVvMot3qINWJPfCtthgBSGdTyGfyYs4niIeF95uNprinDr9tN9vIZNPIhCXNppDKdJHuZtBpd9DtiYKl+seLAZwQAQhppVQIdrS7/ffD39N8riAq8YYNe0hwhZ+d1Kra2Vrd3bAyPaGvVqe/wp0o6RuEx0IkIRyw9qHorUAKqeyqEJdeXGhN/rOzOuFwI+lUpv/ZCIGLMEo6l+5PA+luGulMmqDSobpcRbvR1m85y6zKivUGTdFXRUgHEa9Uf7hwdKabEmNQ4QPZG7EQF7/TEZvxQiyokCqIqnX1WhOLc0v4hz/243jPu94nwXcGQmnm/Py8GEkIAa6E2yZIkCDBxUA21LgEJaRXniXrcYHIZkLNUy6fwuyFOUyMj+G73nwbRsdGkCsUUCqXxWL70LwfqNbCwrxIpnL5Qv+YTqCiXWh121isr6Aai5BCskWPtbX6QzQbDc+vjgqEqFcx1k5jpDII6Z4YLxrNOupBUyqUW+VyIonL5YrIpAPD7WVLWs06/YxWCuVSSWTlIY2T6tVv1USKHf7WhXXL57NiDVkoUGu0Gv3XoeGi0W4gnU2LffdiYq2+JtuT7jTQbtatZsBWn2nPtCGV6k8jML4oNRvEdtNiPjDcaSa7Wl3Xo4WpnmZuyGHmc0VxQxD+foc7yudaaLdr/ScYcoZrfQ3CIwuLGThsaEAoF0tYqTaQlhc7ZcK6re5sMpn+ZyA82ZDX6lGJ1Cp9zhULVtl6WpQZS2cz/YkFutrLpGUzIjEJKxkIbL3Z++CFfVggyIEC5wL7lsXJ42fwhc/di1a36lv5x5XgbxPave+xhNsmSJAgwcVC9psf8nJ4nvlSu9MSi6iGRgawceMEhkeHRYp08OBDOH3qjPh9H8rp911xmVgBFkjEqVOn8Nijj6Beb4gxu807tmD71uneqN2uyO+eevJpPHdkTqQS69ZPYsf2bSJnabZaOHPiDA4ffhKt1mrQee+lu7Bx07hYCRQK8uv1pthM3O2mUYwyVEJ8ORxcKfeXZa11fGsNgwvEKpRSdXveFqv+BeHIYjEvMtmgexsIeIj/5gq5uPyhGK4ukuh0q4tciFC3W2JsOkwjMLUQhw01/IGUxUhuBoViQbRXCHK0oSciENhud7VHQNzcBLeOEBpeqdb6809poNtdHbTn4rEmDhu4bZh8rIfL9ieWSmWRy5XQarTi0vaoqD7jDqH/3um5/juBTYYtQmicCcQ5htKmxdLDUEcYOiPCBLq9BxdWooNKeUAMyK7efKqLerOBanUF2UxeLJ4bGQ+9Lav2GQm+07B2N5Zw2wQJEiS4GEi+bRMkSJDgYqAXSfjWQ/jP+5ruNfBYU0zTbaLZrqHZKuKRQw/jEx+/AxfOrYgFSaXBDObmZvD2t78N87Mz+NQn/wLPHTmBZiOFUiGD88eP4a1R0mFocBAH73sIDz/8EOYX6uI+78mw3b/tJlx77dU4fPQ07v/SfTh1eg6tegfdVBOLS7N485vfiEqlKG7zz584g099/E4sLC2LUk8oZAtigCKmlaDRaGNDkObKpnH48GExchJufqASwhRhxx2aoPR/G/wiu6ks3vyW1+HSK7aim+olajrdFrqZJroKaDXzmDm9LO6sxyeCRMMKFheXsGnjRpw8voDFxQUUiyWMj42KlXMr9TkUerV0LXS1MDOzgCOHT4YJrF83hal14zh26jym1k/i6HMnMHt+FtPr10FoTmt3cfr0GZQrJTGWEjQxLtm7R8w1nT+/gHXrxnH4uWdRKObFmrm+UMP2HVtx7uyM6AOUyawGcMKSHjlyGvPzC6gMDGDzlg1inrCQz4niDDMzM2InYXAJmpiYQDqdQ32ljvNnehZNoUCw2W2gPFDCwOCAGDOp1qr9n/VWeL5Jluw7EWufe8JtEyRIkOBi4FVz2+ch5D1S3aAFlRYzZo1GMNFr4N57vgytFH7yp35UrBP6/Bfuwv1ffhCvv/31YvXMkafO4Hve81ZMTo5h/twF/Okf/hlObD8ehh66dBee+NoRTE+sw/vfcX3/jj7xic/huUdP4NarrsHxJ07h6OFT+P6/+30YGR7G448/gXvvvR/XHZjDli1b+9dp1bt47KHj2LBxHLmBXpZsdqYu9iMszs/jltuux+LCMmZngodQHhs3bMXAYBlnz81gYmIMR48c799jKLCvNpYxNjGIw4ePY2FxSUz7hMwSOt0muqk2UtkMqlX4i0/cK2bJtu/YIhpKhpq2Xbtm8eyRI2JfwPT6abTbz2JyeghLtVO4+ebrkcsV0Gi2cOrkeXzsT+4IE7j66v3Yf9Ul+NMPfwrv++D34L77HsTxZ85icmIcw2MDqK7UcWFmDpu3rMcTTx7G1MR6bN20F/ONKj7yh3fgDW++GV/56v3IZDoYG53EU08/HSbwvg+8Gx//2B24/fZbcMmlO6GbwbNHjuM3f+N3Mb1hPY4+ewIf/DvvxvXXXydKLnzqz+7E7Pz5/vIW84P4vve+G2NjIzh9+jz+8Hf/JAwdWPxzx5/Fgeuuwi233yxmg2v1Fpo9XYushNsmSLhtggQJElwcvDbcNpTLhEL6EIkLBeGFYhaFYg4rK0GbdQBbN29HJptCu55FIVNCpTyI+bngj93C2PAYdu3YjQfOH8SREwtIVaIElxQW6jVsn9qO6R07xEjlXLWOytgUGrk8lkOANZsTLQY2bZrG4aePIt0pYbAyipTVsqROu9cYgD2XXIp1UxNhAk8++hxS2S4evvAICvlB1PNdtJpLSKVCrRsMlMcxvHMSwyPD6NTTuGzvpTh85DCWT9axeeMuHDz4jFh61enQb7GNgd1UJtQqtUVN25GxIgYGB3H69FFUBgZRruQxO3cOtUZQuW1jcmoCx44+hyNHzmH7rnX9FVhYWBFbaXft2o4D110WJnDTTdfisUefQnGgiNOnziHdDsVkXWTyoZar3V+HVquDiakJHD1+BJXBtFiE12i2UR7KYHBoUDSdfPqpp7Fjx04x8ovjR8/2P3jpTB6NGrF1+KnHj6NcGMYV+y7HkcPH8PTjJ3DDdbfizJnVjdT+q/eKm4/PffrLOHd6HqPDkzj23Dk0Vnr/ZOZmVnD8uRkMDZ3AG95UEUWQu6HVO1tEsVCRcNsECbdNkCBBgouDb6+7IbZg9hwWOh1RNj+8k83l0ai3MHNmEevWDYp+U0GtNWiAVspDaDdTmJmZs1r3XsLKShMX5qooDpQxODEShj63tIK5ehWdfE5kuzPLVZw4dwHbL9mLZjaDueUqhoZHUakMYHZ2SSRlsXs12EkFdde22LkbsvYjoxWUKz0p/rGJMdGfvLrSwOmT5zC3MIt2I/DQNBbmzyGTKmBwaEDUpjl5JkjrpkWiffT4SZw4eQaLC0sizZTKItVrPgh2BL24bWh0bnVqWKrPojSUw76r9uLwM4dFjdpMKotuqoGtuzZhZLKEuaUCjjz0OPZfsxe1emg6TIktu7l00IHtVfgvLC1h5sI8zp6Zw8OHHhXVacfWD6PZWEG12UEqn8YlV2zE4Ege+VIauy/dhmZ3GcMTJYxMlLFSX8KTTz+D0bExNFpttGJbzRNPPINjR8/h9Jmzood5aJVudlqoDA2Ice2NmzcgXyqjEzRwgzVGNouTp85iqDaAbDED2QzS+awoh9Tq9O692Vp11ggdDeHD0+k0UV2pod0M/ZpJd0MCEm6bIEGCBBcHybdtggQJElwMfFtZslD5L/b497JkPanQFHKZIpqNLhqNDqYmJjE8OILzF85jaWkZQ0Mj6HTTmDm/iGY9hcpAeD+HarWJgXIFpUKvU/78uVlUF2oYHhhGIewNuxk0ah0MDBZFqa+lhSUMDw8hm0uJLjjnz18QDSt7LjudJjrdGlrdFYyNh9RcB2fP9RI1IxODGB4f1K9mb4aejroYAcjkU2hVG5hfmkWr20ChksHwxBAq4xWcnjuLRmi1qC+J9fNhbVtrTG6QkhFNWYICVmjP37x1E/ZfuV/0y6m2VlAuDOHos8cxONzG7Pw5zMyNYmxiAhOTmzA8OolWiKgEieFUF7l0p3+kqEw2ur6C9+77bjz66GMol4rYvWsHnjtyRKwIDH4hO7ZvRSqdxYbNm7FzzzYsr6wg20mjMlzG+bkZHDl2BPNLg5hfnkE33Yul3P6mm7Bx+ySmNo6gm2mgmYJdl2/G0dPP4O777sL69VPYfcVm1DtVVMbK2L5nG+aXL6DeqWHjzgmMTFaw0lzAui1DGJzsEZRNm6ZQNY89l29BLh8iaU006stoNuoio0myZAkSbpsgQYIEFwOvmtt21/zsC/53xH7cIJKfWvNtPjpaQTrdwaFDD2N2/gJa7Rr2XbIX+UK2f53RqUE8ffgJ5PJ5zFw4i3Xrx1AsxMxDt4WR0QEsL83j4INfw8JcFdPrJjExPopWo4ZcLoVsrosHv/51ZDMFkZJs27YJ5XIJjday2IabzoTkzBLu/fKXEI0QjY6MiDpn3VQVM/MzWFmuYt3UNHK5Lmr1BVgIGb82MvkmFpYWsdxYFFtOz547jsXaGZTLGeTyobouJMQacdUD61xtmx4YrGDH7u2iYFipUsS27VtF68nJ6ZH+/YYcYOjQHRgYxPj6UVEJLJvPoFWri12wyysNXH/rvjCBubk5rNtwKTptmJi6CcVCCflsGhOTI6KSb6rn/xhcI9PYf/UlWFxZFFtpV+rL2Lf/sv4x23a8V198Nrcq0yW2z1517T7kslks1eZEn8eNmyfwve97Ky5cuICxsXEMDQ6j3amLlXNveOuNmJ+bR61excREWIc0Go0lTK0fxXs/8D1h6CAMfeNt12JsfNSqFnOHWKzX62gn4bYJEm6bIEGCBBcH32Z3Q/Tm6qwxtkKU0++JpXbhiiv34mv3P4Svfe1h5IopbN2+ATt2bxZ1/q++Zh9mPnMGf/onH+8PNDo+iFtvvQlSve7VyalR7N27G1+8537U2zXk0wUcOHAA27dv6l/8yqv34u577sNjHz6MVCqDHTs3Y9/+vWL9kB5zhOnpdXjXu98KncCFO/HeG6IvWViOwaEh0es7CKqGzuZW60Yxdlnr2UMER4asGHINlgGl0uvR6qmZtDE5OYp8JhQ2xWUPMwx/MtNElhqap+uNZZEGlko5UbFlfHxY7IPoObnl8yLbHR4eEDljvRq8DFZVjMOUUrGkaWiojFaQzU0FJ/aC2JkSulfD5iCVDlMNkf1O/3XYzYQNUSDp+WA011xlhcVikKxN91cj0zcKS2X7Mwy6Oe128G4IBm4FjI4OYXJirH/BZiPIDVfpGZIX80WMb9ssBtzrjRrS6S4azQaa7Q6Gh3ptNVNTU2JBWKh3DFo5obsn1C8Gp7We3VnCbb/jkXDbBAkSJLgYSL5tEyRIkOBi4Nt0yombo9RaZduwb+qI3jChyefhh57Eba+7GevWT+HEyeP4sz+/A5dcuhcTk8P4+gMPYWR0GDfeeq0oQPWVLz+Axx59EldcuS2MfPDg46KC1xvedCOGR4o4efw8Dj38NPZduRWlcgZ3fv7z2HvpXtx8+42iMNVX738Azx17DlMbRpHLhW17A0OjwxgYHEe3k7emnyqbXeNSnlk1fg/WLMGnPYQmMumMWC0XDArDFjX4PIaqqRCRCJGZkPJqt5qoVpfRajaQTfeeWiirCrvjYJLYs8vsWdGE/X6n/9vgcVmtrVi1oiGmd7LZEE+o04v+hIBAKDvrpjrIpLuo11bCBHrxony2v4zh3gv5AmrNFhq1BorFEH4JsZHgqJQSAx29SFSqbVU4uCuGO8J+PJctoNUOYr69UEbPnb5VR6lUQLW66voT7r2XvOqZpbfFFG6gGuEK3XYLZ8+c6q/S1NSEaPKYTadRKpSR6vRKD0NpXU/xrtsSYykr1RWxS7BnMp/EEBIg4bYJEiRIcHHw2mTJeqcH9dXg5Zte9eu+cGEG586dw65dO7D7kt2iefjZ0zMIhGZxaQnHTxzHJZfuwlVXXyVaDNzxF59DMVtEvWf/5/zZ82K9zWWXX4LR0TLOn/uyKDLQTXVxYXYBR587h9vecBuuuOIynD07I5pRt3se16G7oYFUJvgerjpdh+xYLh8JZjto+wZ5rlAw1BRlqIIXeCGfFxvtg6BByAt1tZFOrRLGYnAvz6TRqFZFv4PQib+8tIRSsRSGLhVKYgl9cKDIlbJiq0gwVM/25FbrGBoaxMryCnLZvEhOw89A1gLvC36IgthFWI1uC7lcRuTF/XsJTz+fKfSXKLwOzLkhI3L5bCaFUrBibDbFsq1QdBWmFMQcGo1gYRks5XPo9LTl8qz2d4TNRCazKsdRLFbiyL0PYTDorNZaKOQKonBBeGKhKu7xx5/CR//4U6LLw/u+/2248qp9ogt6sKHMZnoWnGs/4R0hd5cRE5U984jOqhllkiVLkHDbBAkSJLgYeG30bXtaYJ3ViG1nzQXPnlvVx6pUhsVK+IX5KgYHBkRv82otmIPVUShUREPpZrOL+fkVbN8auiR6Mw+hvdGxEWRzRXRkcPLkGTF+NzAwInK6Qr4kilQVCjmRMIYQ88jwkEhSgo13aCgI6/PYI4/i0ENHcdMtB8IEFpbm8ejDT+G6G67A7Nw8RkdHMDNzFjPnFnH+/Dx27tyCpYVl0Wp7z6WbUOqVYcG5czMIJHh8rIIzZ8/gdbe/vv9bPPzQQVyydxuOnTyKfLGMJ584hr37tmPf/ktF2bCP/NFnUK3WsG//Lpw5fQbLcy3suWwLTh47I/4Rnpocx8OPPIXBgQoGh7M4efJcmMDOnZtw3bXX4tlnnsVX7nsM23dtwZUHLsXDDz8ler/Xmit48rFnMTo2IAb+l+aCLO8Azp87j1Sui61bt/ZXqVwKD24AtZVamMCpE2fE4rnrb7wa0xsn+08zBFIX55fRWmli3WQFqXRGlAxenK+Jng6T4+v6P2fOLmD2/AImJsfpEep2z/Pc7Nwc8is5TG9cJ1pjhOMCtw18XFIBlgAJt02QIEGCi4Pk2zZBggQJLga+zQqwHkJupJcF6q7WvoTKp7kLK8jk0hgYGkGrnRYdcQYqgxgenhA1tIJ/YrE0IKqJd7tBoTyPqXXrUSwPh6EvzC6iXB5BvlCht+ObubCEbpBrSAeHmGUxkjAyOiYmshqtupicGR4ZESurQltXsPM5d24WDx18Evv2Xy5a2mBufh6XXLYH99//sJg7KpRyGBwqYv2GaZybmUEn1UG9VcfGLRtx7OgpTI6PYfbCCk4cP4XaSguj4yUcO34Ub3jd27G02EtSPXLwaTELdOzkMWzYuhEbt0zj0YeewZat2/qP6dSpGezcuRmHn34WiwuL2LJ5O5aXmzhx4jz27tqOmfPzWF5axK4dWzA6NozzZ+fCBTdOb0WrmcLpUzPYvHkDzpyYxZHhM/j6Vx/F5fsuw9Zdm/HkY89hamojnnjiCWxYtxmbt27E+XP3YnR4DPVqF089/ayYTytkK0jHNNmFc/M4cNM+MT+mk0U6lcXC3BI+/YkvYfbceVExI/hahohKt53GlVftx/Ydpf7jG58cw6c++Xn9ZGZQKI8WnEvLK+i20vixn/phjI4Pi8m6UO0X6vkymdfmX9nfXBw7dgwHDx7E+vXrX8UVnnrqKfzAD/zAyx/22GOPiX71rw6VSgWXXnrpq77CyyDhtgkSJEhwMfBtZsl6Z/XsZHIpseolm8mKHubtZhsTExO4cGFObMMP9V5B57TZ6mB2doFedVTIMJw6c1YsTsrnCsjni5i9MB+GrjfrGBmu4OSJ0+ik6qhVmygNBAM+YsnR0HAFi0uLOH7yhGhyI7PapBCIedAMy/fsTzpIZTLYf9WlePyxHrdttlq46sAVeOTQQxgYqIiCubnMOoztHcPUuglRB2ty/QSuv+E6PHzwIawsLqJYLOkrXRUamJ1bQLE4IDppFvoVYJUsjjx3XCw8KpcquGTvHpw6FQhyA6VSGe1GC7OzFzA+NoaV5bpYH7Zx0yZMTk7gzPkLKBWK9PYK2XxW3BNMrpsKExgZHUc61Huls9ixfQdqtadw6uRZLNeqmF2Yw97CXtE6fmx0Ap3Ok1iYXxLdy9dNb8RApSKywpAZW1paxELjLHbu2BEmcGF2DguLC8hkcuL+JnQozM0u49GHn8Txo6dELeNuk1h02G3A0NAkZs6fF5XALt+/F5/++Jew0kt/EUv6EBosBoYLePjgIdz2+hvFfwuBCK8KTHxnZ8lOnz6Nn/7pn37VV7jtttvwwQ9+8OUPu+uuu/BLv/RLr3qgn/u5n8PevXtf9RVeFEePHpVw2wQJEiS4OHiNHM7Xdjf0opZ5sVxmx57NeOyxJ/Grv/JfPb/P9dIrduMLn/sChsYGsffyXfjCXXfhzjshn81g995tmL0whzvu+HQYeveenXjk68/iyScfRSrVQqGcx/T6jfjsZ7+ADZtGUBku4aMf/oS+oFQuhV17t2JiahyZTNCUSvdvLUhV5XNtfPKTd2BocDRMIMhiff7OO8Ug7/jEmBgCPvbsKVFeK+h+bdgwjccfexqfWvwLUfXqwswFZNJZDI+NYPnUCqQzKJSzaLSbyPU0sQyODYgdHPlyQZTK/eznPif274bSq1azLQZDg17amTOnxX7WSqUkksfSQBHnTq6g1WijVBpApphHWwfVeq8Aa6m2gkKlTK8j40v3fwWtOgyNDGBichTnz1wQvREDla7XGyLTHxgpY3F5AYERBlZbrVaRz+VQKhXRarcwNtZb/NMnzogaZo1w2VoNUh1Mb5zCLa+/HieOncXG9evRbWXQbK4GVTdt3YjJ9VNo1KtiEPa9H/ze/mcgaIyVS71/MufmziNfzOPqa3uCv6LGW+C26fQqm3l1/8R+9Ed/FHfffTd+7/d+D9dee+0rP/3Xf/3X8fu///sivQp45zvfiR/6oR960Qvu3r375S+7ZcsW3HrrrfgH/+AfYPPmzS9z/DXXXNN/Hcjjj/3Yj73CWwgrEPBN1/D973//t3TxFyJINr/mG5GwYgm3TZAgQYKLgdequ2FVj6ZXjZDJol6r4/rrrxVDikefPSmqf1YGK9i5ZweOHzshsqHL9u/Eww8/ipWVZbFFddeencimsqg1LoShJyenMTI8heWVWVRri5icWofNG3fi/IWTWD89Iur2n5uZxdLKkthWu3vPHuR7grx1dHvtn5Av5XHFNZfg2NEZXHVgf5jA/PwMnn32CG5/3a1iq2vwHZhYN4byQAF7L9sj5mRDuDmIqO6/4go8e/hZNFtNbNy4Edvnt/RXNfgdBEXgdqpXYH/N9VeKsqqh+7barKI0k8GePXtQLIcH0cJ1t1yG9dNTGBopYnxiSAyjj4yWUa8vY+vOjdi0eQOOHX8W1foCMoUJ7Nq7PUwgX86gm25i5yVb0eo2Mb1+Wty73DxxLc6fm0E3VRd7IoaGh3HpZTuxtLQEqQa2bZ8Wu3tDecDoeFlkuCEU2u9dLuTTWFpZREcN9eYSQn91WJNbX38Nsqk8BsrDKJbKorlGsMv75Mf/Age/8ijSmRS2X7IB3/N978DGjRv6k+k2ezUJtWYd2VxaX1C4p28bNkar/6CiTtNrQ5de4XXe85734JFHHsHw8DB+8Ad/UORuH//4x/s/A2VeSz/X4p/9s3/Wf33ixInw4qGHHsLv/u7v9n/+p//0n0TK/PI4fvw4vvrVr76Su8Ds7CxGR0e9gnsPd/rtLPW3f4WXQcJtEyRIkOBiIPm2TZAgQYKLgdem7joUSGW7aVFaKShlBToeskD7r7wE+67YLUpqNdrBT6WGy/dvF+VEQwH5jbdcgXRmNVVVzJdExdhWN/6d6MBV1+5BOtMQ3RvbrTRK+UHkyyMI6lq7927Fju5WtDptNGrBCbGkb9XeJnY3BL+ZTDaH6Q0bsHPnZdYYXKZzQxgcuVRUhGr36oygMrwRzUYT45MbxW37/qv26KvZttrYuXerqJUVMDRaFjUowpGt7hLS+V4kYePWMTEtGZDJTqLT2SRu5Ku1OZTLRWzfub6/mNMbRrFp84SYxMvl8piaDgmoVZHZsXV7RVHaIMg7Uey5xeTy0E5VMTiSxzU3XI5cJq+fI+qksKkyJTo5hjxSEBK7Yv8l/cvmgkRvGD69Kj47NlGxKszWsUaEbN2G3f3Lhhq1nq6FUERYFZtu8vkMlpsLaHZr/Xvspru44dar0ek2xQqwt77z9SgP5XFh/qzYUhEiEqJ4mHSQzQ1RhTxqK/X+DHtKYP5StqUvhRAfCDGEffv24Td/8zcxMjLSP+bNb34z/uk//af4+Z//eXzmM5950au9TMYpDBQu8q//9b/G/v37fbOM2dr4wytHqAB7UYTWibNnz35LF3x5hNBWEG95qRjLq0DCbRMkSJDgYuBVZsl6xnap3lmpqHPb/xkoWvjZbgfF/sDIWqg3VtAM9Uz5HJaXl0SOky/m0FVHOmibhgun2v1rNqs9l++gbpXOFlFtLuu3+aayWK5eQLkS2ijraDSraLcyYiov1AA16kFsrIF8Li3SyWBDEGwpSkHIqtpcu2KpdBvt4NiYzYjdHEEKNtC7TCGNVquGdColitL2/BCDh2CjIe4MstkcSuWCaD0Q7AjDAodbE6mTTBedYDsYDBnTqwmlkEcKua9gPB48vQNTW1leWn1kAm0M65kVO5t765lJIdXqiEnR/lMLkq/hGWXC3HpuC3nRaSLV7SKTX12Hc2fP9pd9bHwci/Oz+p0yqRSGR4b6a1VvdFGulJBL99h9s7UsfvzymZL4mexdJBhN5kIHdpde40y71wieRTfVxoZNk3jvD3w3qtUVDA6W9b0gg9hvN42cXvldo94QTeDDCuRzebQynf5noPNtO5yvPesVZtt+4zd+o//6H//jf+zFMj/veMc78OEPf1jkvy912ZcZLlzk/vvvF1Ntf/RHfySy3ZdC6L5917ve9fJ30ce///f/3sve+5kzZ8Qc4GuLkCEMTrKvCRJumyBBggQXA98Wt40xWu1uU4yoBmWY6c3jSGWDKVYOqXYZd/zFnbjzC18Q9TsCBww2X6NjQ7jtu67Cjt0bxabbtDwWZ1v43B134+knDse5BP6cQirbxcaNE3jjW2/C2HgWjUawRRjCieNL+NwdX8b5CxfoBRZDdC8jg0uv2Imbb7schWIK6W4erVQWj3z9YXzlyw+G4YMfV6e1ylKD6Mntb7gZ+w/sgM4yuu0cGrUsPvuZO3H48DP0ekBDO6kW0SP9e973NqzbMEyP1zcbQf9lLgx95x13YebceXoMKtVjwClcec0+3HL7AX1WW02h08rjqSefwV2fvxsrtRV9w7RuGqVKATe97ipcccUe1KorGCiNoBY3Fg/ccwgHv/qEaLfebXeRzqWxbnoCt99+K3bu3Nq/yerKEu75zNdFH/jNW7bh8NPPYHRiECNjQygWwl4BRiYGsOeybUjlev2zrXoTmVD9Vm+gmAvuYVlkUwW0VhqicHDwpms2wiapg+riMjS6YkNKOldCfbGBlWpVbCMORhK5TDkMHdRs55aWxTaK0L0SvDaCKk34+GbSq/WR3w5eIbcNEduA22+//WVO+R//4398w8VfatCXwetf/3qR24ahX3jK1772tf7rcGT4+coROiledDKBez7++OPf9CLhfn/5l38Z//t//2+vLCb7GlaDJdw2QYIECS4Gkm/bBAkSJLgYeNUVYB2ria9otd1NYdfurdixZ4uYWml3Ozj57Bnc+ZkvodFqY3mlKm760tkcLswu4e677sPkurfoB/jbeRx66BAOP3EcOr1kxcpSTexhLxYqOHdmCY8/8jSuv+kSlIpFLM43cf+9D2FxoY56dVW+IJ8uIl/K4cGvPo7t2yew55ItKGaHcfips7jn81+Gbq/uqrrYRLuRQqsDoyPD+MoXD2HnzmkMDmeQTZXwta8fwlOPHsNKSNk12sinCv0nkkm18NV7H8S73/MGUfQg3Snivi88GIY+e3JBFAYLaaiQXBocGcHhJ05gev0E9l2xq3/xxbk2HvjK42g1ulhZrOkn6HrJvRQevP8QNq1fj5GRQWQ6OTzxyBNhAk8+ehTtRhrV5eBGHqTUMjjTmsPX7n0YG9dtwOBwnl60ZGlxRVQCa1a7WJprYPeu9Vi/fgoPPfR1DFTy2HXJNmTSedFxB9mgkNBsIpUKZukppBVw9+fvx3OHj6G6VMMtt1+PK6+8An/+J5/E4mJV9EY6cOBK7Ni5HR/58MfRbNVE3Yy3vuVtKJV6UZQ//IMPo5tuidrNH/jg92CgPIBMKo10L/34t1n9K5RJvTx27tzp+Zv90NIWEErTXvjOWnzhC1/4VicW4gZBxuHlES5+5ZVXvujQryESbpsgQYIEFwOvjU5CvpCHbkvMawWjvVDjncsWMD8/j6cOP42/96PvwQ03HEC7mcdytY3//Xu/h1Mnn+5PKViO57NZUb52YW4BP/Kh7w9DT28YR6PRxsy5JfzW//xfmJkZ7U+m3epCJ43HHn0S66c34Qf/3o+io46B0hju/eID+NiH/5S+eO9qWduFC7M4/PRRfPAHeiUs11x1GbpyqFZTuONTX8ShRw+ChljdFYrJFhfmcPbUafzoP/o+TE4OY6g8ifPnqvj93/1jzM6fRacb6FUHzUYNJ0/2xJwyafjJf/wjKJQgny3j0CNP46N//DEsXL0JXZvFpv7FpQs48syTuPKaXfjQW9+FdjONdKqMP/qDj+Ho08fEBGCwTgjO5ydPngwTOHH8NL7/g+/Hrp3bxdq+oN31P3/j97Awv4BsroNqdQHZbHiyLZw48RwGdleQK6+WalUqOdTrIX3XweTkuLidCiaPaIa+huC7HhTLBio4fuQU7rrzS7j2muvwzNwRfOwjd2JpoYWDDxzGVVfvx+DwIL5870EcOXwahx56Em97+9tw7tx5fOLjd2JyvKfte/bcGbz57a/DH//xR/CZOwbxgfe/z2pN5CouWpbsL2PQb+mAF74TXBt+8Rd/EX/wB3/Qf/+mm24SM2A/8RM/IcqSvf3tb8ev/MqviJK1oRjrP/yH/xBODNm/l8InPvEJMRv2qU99SixNe+Ekg1zDj//4j/enEVTT/pKQcNsECRIkuBh4rTp3u2i3Wjh06FGkC12s2zCOUjGHpaUVemxzcHAAQ0PDqK50xU6H2Zk5DA+NiGU3wQMiMNwLFy6gUMyjGGVGA68plSo4efwCzp+dxUBlCOle/0JOrHhfml9BaXsewyOhHj6DbivUAy2h1Ql1RT3fdtFku9XsiOKtQRMW5cGMSICLpSIWFmZQGQwNFA1ksm00msuYm70gWl2VylkMDReRz4TBalhcnMeOS8bREdatg+XlOlp6VgKh8ik0tnY6KyiXczg/cxb11jJyhQ7a3RVkUinML5xDvVrF4FABhVIK6XIerXoWtWpoLQlrWxZZbbGYt2rlLdNNY2S4jGI5h6HRUZw90xDVbFP5LrrpBnIFaNdb2LR1HFs2b8XCwjJSxxt48vCTqAznsHHzejEwffLUKTTbdazb2COYoWMlOJkXQh3YyhLm5udEe7Qz0zNo1jtYWlzGqVNnRceHILM7f/QEZs7OoZitYHm5iqNHj6NYKIpu6qEHGrv2bBPrF0u5ASwtVl30Pt2XRwiG/qXGIkNzwcsjNMIGgd1f+7Vfw7/6V/+q/9sbb7zxG46//PLL+69/53d+BwsLC/3rfFN89KMfxdDQkEiQXwqhAiw0XISitH/7b//tN0zvNUTCbRMkSJDgYiD5tk2QIEGCi4FvL0sWBatmZ+dRKITNZlEUcg6d451uF3NzsygUcygVQ7VTV6xtCnmVxcVFjATlYFAshsxSCwuL8yiVChgaqvRuIPTld9ti4iWgXKyIvfBB32tp8RyWF4ORYh6N1grSmWBJnRXFsEMdVdgk9uTNMhm0QkNSJ/y2t3TN5hIKpTKWluZRrS0jX0gjl08hWFx3go5Xuy4qJ4RKqRCsCMcsLMxipbqM0dEhpNOd/q1V60uiCDo2rF+vn0BrN0Q9hNmZWXTbKYyMDCDVk5hoYXFpVpSkGBsbRi6fRq1aQ7NBrKkKdkflSkVUD2iHh7XSW+fwjMqVQn+IdrspxlIa9Vp/GYN5YqgPCytw3Q1XoFAYxOJCDZu3bBa9QSsDebFHKwSCwoPIp/LWfFwHy4OigH2QjstmU5hevw47L9uIxfoCqo1l7L10Fw5ccwXm52axees0jh8/hgPXX46tW7bg3OxxrJsewcmTp3DzbddgbHwoDP3pOz6HbqqF8kAR1153oH+PL4wnXDQ18aB7ENq6vvjFL4qCBi/EP/yH/xCXXXYZfuRHfsSLxRy+6XBh2x7wpje96UVPCVmv//yf/7O4YQ/DvdQQ4Z1QmHXPPff0pxqu8zKz+sM//MP+KT/zMz+DTZs2eekEY3jnX/7LfylGXcL0wvuveTwh4bYJEiRIcDHwqrNkqTU/o6tzKovdey4RNS4DSQw5tFA+VciVMTA41D+r2WyJNT0rS1Xk80GGtYNqrYZmM4XFuWVsnJ5GKt37MxW8rHPZDBYXFtHuiUVVRH2AWq0hVvKHpoRQvV+rLaFQzKDdDr4pNRTLGZTLBX3B2W4XK9UV5AppkXSLGmaB+rVaaTSaNQyNVlAoFJEvtLAwXxer+gcHBjE6Mo52J2ikdUW7xiBEELx2gllhKN5qtdr0POQxUBkUM4StTrW/mD3Fg3RGlBML7xcrebSaPSUxUTQ2SotlUKkMoNvqohTKsGphTbIiI15a6DUXhIFCqioIAReKWdTqVXraDoNDJaR6zuBtlIoVlIpD6LSzKOSG9M1+qkFQGErlUpxdvyKwieVqj92vtKv9RxCaa0LRYalSwg//6Pfjnru+Alsm8c53vFmUpi0P3o7P3fl5bNu+Bbfdeo3oFV/vXC9awuy8ZAtuvulq5DK97Gin28KDDz0kKlpce+3VWJyf91eaKwu08Wd/9mfxq7/6q7j55ps9n7eGGqnAAZ977jn8k3/yT77VgdZeJKSk3vKWt7zM8cHhPEwsyI+9FIIlTyjGCldey4VfFE888YQosxvY/Yc+9KFXeCMBgeEGtdzgm/nd3/3dEg2wBAkSJPgbh1cdt121VMDAwCCy+VAHFvRJ06LDeTaTErVQQwlRJp1GrVYTyVeI2wbp1YGhskgqgw9CdaWNpV6TbkeflMU4XRC/CuVigXBncpn+DIPQapCbCmL7I+OjGBoaRDfVQH2lI5aYDA5WxHKuEJ8NMdDl0OWZTYvar2g2guFgEctLi1hYWMTmbRtE9bJWo4VOK4NGvYNSYVBsMA1dnu1WCufPLohNtBPjUyjkB9BuB15cw/JcNQw9MjSOatDbDapXmZxY7RRc2VOpPNKpIJWbwfJSU6xmG6iMQDeHQj6HhbmaqH01WMwhXyiIArshOBu8HlAo5TAwOCD6VnTadVRXlsV22JGRCWTSRVyYncXjTzyNM6fnsH3bZtFo4/Tps6IB+9Hjx7C4OIt9V1xGz7S8J2Wb7z39am0F27Zv7z/3Hv1PtTA8OoR3vutN6LZbKBSykG5hcnoEf/dH3i+KDof+71qjjksu347LrtjVf+K5dEZss8Ztt90sKr21Og1Rxzkw9J70cNz8eS30bf/8z/8cDzzwwAsPm56eFuOzIbgZ6vYDR3vb297W/21oMvrkJz/ZPzfw31eiE9YvwArh4EOHDonc87d+67d8MwvFMLH/+T//J66++upvuMcXnhX2x//oH/2jl79yiLeGXoYwmVDF9fJtFy8cNAwRzg09EWGSiQZYggQJEvwNw7dVk9APIIa/56lUB0eOPId0voup9aG7IY2zZ86jXK5gZGRY37cqExhfE+16iOuVrWrF5kRiFfTwhwaGxbAsup0mgjXXwsI8MvmuyHkD0Q6kY2FpNaBWzOfp1VSEaoQgQrq8vIzKQEWUKA2W46lOW7RQCxHbMEkUC4PI5YtIp1qoVzsYHpxAt5tDNl1Cs7GIublFrF+/GdlsGZl0Hbp5dNsZdFqBqpfQqEM2VxC5cDP2rQZ39yCbG+OJOXo9ykHuZ3RkCropdDs51JYbSLVD9HlIJJ4pOTTqiyI1Gx0ZQalURFcTKytLorWaWI0QnlGIwpcr5f4Mg0BMoVBGq51CqTQkBpGfffY5sZNlbnZJtJx45JGnxNaSc+dmkCsU8BefvgNTk6PYtGF9mEAoaNm+dQeqtR7lF/s+Ah3OBL+yVh4LC2F3khF9OrLZZvgYiRrH2WwaQ8ODolJw6AtP5UIHc08OaW5+Bp1URyxxqVQqqLVb9KzSAhMP/7a+fYoUiOqL4pZbbrEmZY9f+IVfwIYNG8S+1bWnB7YbPMf27NnzMtN70e6AwDq///u/H3//7/99z0/9BwQn82eeecbzlWuCDdpahCjt2mPCdX7qp35KXNW1Crkiyw79u4GT/vf//t/F6O3aOwqebPfdd5/YXhEwOTn5oncdzn35NXnVSLhtggQJElwMJN+2CRIkSHAx8G1qgMUKsFZXVG86d3oO6WwaN958bf+3ocAoZMDOnL6AVidkVDqYObeIgZESKoMlUXQq5NlCWc/w4KBYVXb4yeNxCm3ksiVx4zk6OoyhoQFRRSEYKYaE27r161BvtPDM0yfEBFS3mUVHB2PjY2LhUSFfxPkzC6ID9uj4kJiwwvFjbbRaXTxz+AwqA0MYHRvHo488hZNnjmDfZdciny1geHgEZ0/Pot1eFtNcC4vLouprMV9GNpMXLRpDKm9gYCQMvbi0gqefPopMJoQX0qg2GpicWIfFuRXcfdf9uOGG21AZHMTw6AiW5ut46oljCB+GhfkqCqUsptZNol6rI1dIiaoCpVLP5TvoFx995hTqzQZGRwcxM7OIoeFhjIyM959+qIe77LJLUV1pIJ8vYnS0gMsuuxyPPPJwf5HLAzmMjo+JLuIB/RBWubSaUC0VSmIbSL3VQqanW5ZFvdrFH/zun4ntNlNTk2i1QyQqeLxnxNKu17/+dnHLXGvU0MlksVRbDkM/+tghLC0vYGxyHPv3X4F6PcSFXpvuhv/23/7bKz/4hUOEbX74+crPevjhh1/5oC91kaCf8JM/+ZPf9Ny1qmBr33nh+32EyMkLbc9fGAEIqrUhHhKeZoifbNy48UWn/ZeKhNsmSJAgwcXAq+5uCF/TPW7baQdbbGL1UkroWw3VMG28+3u/W6yI/rf/+pdRq7XpsYAtWzfhTW99Aw5cc6loPN5uNsSUxVvf/Qbc9Zkv4bOfvicMHRy1s9ksLrt8N973/e8R/3bVajPI5/O4fN8lOHFiEXd86k7MzMz0J1ws5HHjLdfjlttvQKVcQa2+grGxMdx2+62o1T+L//JrvxUmUFuui38kA3F+43e9FVddeTW++sDncezoKVx7TQnf9/734JN/fgf+3//uc9aotWL3JTvxg3/vBzC9cQPanWUUchns2L0dt91+czj483d+HufOnBPzWkMjA7ju+mvx3vd+L2SW8OyRE7hiXxU33HAD5mbn8d/+v78himx1WzC9aRLX3XA1br75xv5DDu0b5fIArr/pyjCBe77wNfzKL/06uqkOvbbmPfs2441vux0bNq8Xu5mDFlqgn0FobXR8BI898iS+fvAB0RO+VM5jZqGFJx59GulgPLGwiNPxgxeU20aGRjC9cVoUEe6m6FuHdFrodPN4+GtPYu++S/Cud79XzI6GBpOBgTI+89k78OlP34kf/DsfFPtHwpFPHjkUhg4Vb1OTe3Hq/HM4fuI4Nq7bLCZjX4Ui7d8ahKaAV0GTXwnWGj38FU7jW0XCbRMkSJDgYuC18W4Ipf5pHTEoFpoCAuWs1xp44OsPiBTsHe98A5qNJprtFBYXazh+9AT2XbkFpYESPWJ1/twMnnrsCKY3bMSley8JQ680FsVg7sLcMo49exz7r9qBXD4riv8fO3oMp06cEuuWM/kO6vWq2FwwMzMrKplu2bJLNKwO1WMHDz4sNii/7vU9Uc5QNh/+bi2vNPD4Y49h157NuOb6fbj6+i2Yn13EV+5/EOumR7Fp53XoBDmVVBHnzi7g8ccexc4960RTrKBTc/zEKRw5ciQMfflle1E8sA+tVE3sS56bmcNzR5/FlQe244M/9D0YrEzg/nsOYWlpAW988y1o9BzOM/11OH3qjFgJPzQyCakcLszM4qknepU066c3YsOGHWLHSuioPn3+BA4/cQR79+1FoZxFu1tHJtfF5LqR/s9z50exvLyCXbt3i5274xOj6HZSos5/t9vC/MyFMIHlhSXMz85janJSbHvp9fJmU2i1O6jWl5EpZFBtrODkqaMoFnP0el4arbLo9z4xNQapBmr1FgYrFQwM9koPl5aWsbS8JHaZDw0OiRI53Vj2FX98hzLcvyS8fBvFX1sk3DZBggQJLgaSb9sECRIkuBh4bSIJ4exOz6GvJfYLhexZ2HPd+6X7sHPHdvzA33kvmu0aGvUsPvrhT+Gzn/ksbrh1L8Ymi2LS49TJU3jwgYfxnvd9L26+tSfMEyufMvj//PtfE33LFxcXMDjcEduc7r7nHpw/18YHfuD7MT41jJXaHGbPruCX/+9fxYbpdWhdtx35fAGzMwu45657sGfPXrzjXW8MEwid99I53HvPQfyv3/4IrrtpH7bv2Y1uqo3DTz2Duz53N37i//wRXHnDVqS00aim8bu//ed46OCDeONbrkWpkhfLmI4++xwef/TJMPT/42f/MbbtXIdsro0Tx8/iP//yr2NguISrrtmGqalxnDszh3u//EUx9vL3PvR9KJSDP/wAPveZL+OLv3c/Dly3D5u3hh16FvPzi3jggV7O4c1veQve/Oa3ip2BzWYN/+u3fx+HHn4C73r/m5DKdNFuVJEvwK7dW1HIZ3Hd9SHtFjKrQUNjGSNjFWTzJeRCcCHUGvZZQrslplJDyWAw3OwGVQep/s9svo33/MCbkM/lsLhyGnOLDVH7LagobNhYwY5dWyGzjFw+j2q9jm3btoSRnzn8DI6fOobNW7eK/k/t5ppm/DUWon/jtr0JXnMk3DZBggQJLgZeJbftqdtGH+dU+Bve6YhNAcHsINQDLc4voN3ooDJQFjWTQnqq2y2gWl3C4MAAhgaGkE3nkUkVMTuzJEoxVYayYieFqPm0HFIWi8uYnBpHrpATVQ6CikIQEgsqB+lsG53uCgYGijjx3Bmxkn94cBipVAmddlBaWEaz3UF5oEAvr4JcsRxv3YX5GRQG0hgeLaPd7qKbCuKwLbHvI0jrBumpoA3W7aYwuziLkYlB5ApZxPKwLOYXlzE41jMiDAaUjdYy2rpic8TyUlWU0E1ncqtPKg2NVhUbNqzrr0O4k+Xgnzg7J/LBgYEgL9vqP44LMytYXmiECYwMDyGVrolJttCDEPR5A9nM5brIZ9PotLJiJ8hAuYx6rSMqhwW9hW47i2wqI/Y+hA6XYM8R9jqFKMDWaqSQLub68++kO6JVRNCxDZ/tIDF84837kckEBbuONXJiYvFZK9jRF4J+cUoUMwsPom8PsnvXJdi0ZbOok5DLF8T2h3bIj4UVDwJjCbf9jkfCbRMkSJDgYuBVdzcEtdN4lUwG7U5brATq8ZpMVtT3CsHd4dFB5ItZtDppNOotzM9fEMt3grxWLl1Ep5nB8nwT2UwaA8MZyPToVVDsr7eCfUAL2XxG7NkNslKNehsr1ZRYo55K1dBsVZHNVlBvLCBfySBfyiGTHhTJWitIc7UhH2qGIiWq1psi2a+3aihUsqKbd6sVhFMLqNcCt+2iPJgXbSZSqQIarQYWlxawdesGUZKq2cz2b2F5qWWNWlKulKJnHp7O5tGod1GvBZngYTTbgV4Fk/kalmqLGJ3agVS2i+WVKnK5AlotSFnjXpFJiYH4cP1O7MYIMdZAG5utGlqththpHcTYBJG2RgbaWTSqwUqjjpSsuDUJjvdhXSvlYbEELYiQhazAwuwcBqK9fKjWGhocQLHSo/yiAtzS4pIYpS3mcqKpXaNRRToV7qUrst2MLDK5MupLLdFyIsRtw8NaHSIVhNZyaDdTyKTC0AWxW71X+9X/d5LgOxsJt02QIEGCi4Hk2zZBggQJLga+vSxZ/N/g8xgUlIPmd6cV5BJSmJufE02zJyemRNGmKLJVwNJyXTRtLBWL4m40pGsuXJgT62lCtCEVzdWLxRJq1XNixixsOUNeKJhj94x5llsYGx9GsVRCpheOSIu7ztB1NjhcEuUdwh4zbAzDdj6dDTGK3tKluquZkJlzMygXSqIKcqyNI+aOCsU0JiZHUSxW0GgQhbrnZ1dQ2lsWIwZh0LDCs+fnkM/0BK1jGio4WoZyukb/3kMfXcjyNbttNBpdLM42RE+d4CGUHcj37zE4ZqYz6f7aBsGtcGRaWhTBQDksYzYjel82Gg2s1JYxPFZEqRSkubr9E++796CYwNy5czs++5kv4OqrrxHNK6+//mrc/fn7sH79NIZHhnDfl+/HTbdcFybwpbvuxxvefCN27toppl5D++IX7/qKqBoxPFLGynID2aA13tWfUqPWwtDYML78pQfwsY98Dhs2jqM8MIBTR2cwNTUchg59g0GGraONyy7fiXe88630hOrX/qNKsmQJEm6bIEGCBBcDr013Q6BwQQOh53aezogVToE21mp15POhrCpYiKSwtFzF0kIVpcKq80o6HXz0uqLrdUhWVMqDq1egWg9pmdWsXblUWHNHHbHkvrHSQG59qIjKiayt2eyIHjm5YsiKpMQi/G43LcqYhhss5ivI58pr7z3QyVD8PzQ0Ivq7BFYbSPfc/Lyo8JsvBKueVP/c4BTZroZ6qWDdmBZzg0vNOuqtBqbX93xiCsUSWs0VfY4f8j95IhnMh2KpXutBE91UF8VCmP9q9i8MV68147L19GGDZVHYmgTtpVCKh6GRYdHBM6x3u9NBvdrAyMQAUqlgRER0RF+YreLU2RMYHBzE8WNnsWvXIhYXF1Eq5fSr4i4s4Oy5GbTaXTzx+OEwgfMzM3ji8eewYcM2fOX+g5ifm8PcwhI+9YnPYdee3aKW22OPPoFtWzfjiisuRSadQ6uZwcz5Bcycv4C3vPUtOHnyNMoDNYyPrgtDj452Mbc0i1Mnz+P48dP9D4xVmYREJyFBDwm3TZAgQYKLgdeG24YYXPiD3vN2RGSpywt1pGUwPjaJXL6EgVQXjeoKUp10/9zAjrvNBvLBwLzbwWCljEKhgm6nV4FVqQyi2TyKTLGLylCo9Smi0WxgYXEesi2UKyXRkSG4+wXKHGqJSsHWsADV2oIosxuaLwJPHBufQCbTqzdqd5pigVSt1kJ5PCuGjHPFAtrVNpaWV8SgYaiED9Xva83Yw5+/4KWYza02JoSgarP6vAqw8GaxXEI+n0Ott5hhZQoollabR4LIVthSlMoVtBrEDoggtRW4bWmggGwhh2w+h2q9huWVGgrlnndDvlREzzQiBMfrDVQbNYyObhaJc4izB324fDknEuTlpSWsWz8i9rbc/6UHRXniPbt34+CDj2NpZQHXXHPAGpfv6elNot9EUC977shJDAwOiubwoU/h8NNHMX3bFpw8dg6bN24VjThDu3mrGboeMhgMLTaZAhbml7Bl83Y8fuixMPSGjdOYmJrA7Mwyspls/04DK19LcRNumyDhtgkSJEhwMfBaqdKEPsXQNNlFoRd362K5VsX4ugnceecX8LE/P4euNsrl1X6H0dFRDI8MY7l6FvXmCioDOTQ7DfzRH30U3Xbv70Q2VUCxEk6vYHBoEA98/UHMzS1g144dGB0bESvb/3+//buoVWuigGwQTh2sDGJ0bADSDTSadbF0f9OOdfjKV7+Krz3Qs1xOdbti72ZgnePjE7gwM4e7vvAlXH/jVcjm06IUzkc/8kk0mm0x3ByK8DfvmkA618UjDz+KM2fmsX3LduRzRdSjwfhv/4/fR6YUtFcgrYup6VGxSOBTn/o0Nm3aIHq2r1s3KhpQ/6/fOopOKmwmMqL2yqatm8UQ6l1334GrrroWMm1Mb+zFLv/kjz6GVrqGdiONSqWEcrEsuquF4o3Q/NoMsek25LJlnDu9gJGhSTQbbbFDt7pSxfoNU7jr818Wmyw2b9mIu+76YpjAkaeOYWrDOBYXl/qnbNu2HYcOPYIdO3bikUMP48gzz2L9xkls37lNrOVIrWmuDVJK1Wpdn+kXyzh58hRuvvmmMHQ6l8GxE8+KO5tsKzyI1Vbg+O8i4bYJSLhtggQJElwcJN+2CRIkSHAx8NpEEnqZnE4HhWLQ6AqG2HVcf8MBzM1UcfCBh7G4PIdUJoVsKhg4Xo7bbg9uKB3kC1mxqv+a66/AJz9xDx4/dNiaAvuQ2xkeHcDuvVtx2WV78dk77sbSyiIOXH0lrjxwKb523yFcmJkPZ6PTbWN4YgA337pPtOkOyaZwI9t2bMZzz53Eo48cwdLCUphAaC4olorYtGUaB67bj4XFBTz8yCHs3LMFl19+Ke699yt48rEjaHSacRylcgZ7L9uOK/Zfivvu+xrmZ6u4ZM9uHLjhSjxysGdEeObsWTEOEEIJk5PDuOn2A6gMFPHwwcdEwYorrtqLbbs24bFHDotleSGl022msW37Ntz2utuwvFTDQw88g0t278P+q/bh3JnZMIHDzxxBs9lAJ9VFuVjBti27sGvPLrG4KoirhcaT4coQxkfGxMK70DASWk5uuvl6USU25Eu3bd/cv52V6hx27dkYJvCud78Zjxx6DLNz50X7yFDDF9TdwomjY0N49tlnMDe7jEcffRg33XS9+AHOZoO//SAKpTwe+MrXRafRuZl55FK9fzIhnjMzOyvapG/ftad/qYBQDZZKNMASIOG2CRIkSHBx0Ps7fP/9939Lp1173TVisT2+dN9daHaq+Jf/1/8T+6++FN/97reiUChj5lwNJ04cQ605g5QOup0SRkemxX7WdvcCWt05eiU07VYBx4+fR7VWRSbTK0KKBUYpjE0MYXS0jPMXzqDdbmL9uo2ilOqJYzOiaFMg0d1UU/Q+2LRlCtkckZiHgVIKWFqo48L5JaysrIQJ5IpZFIt5scVgrJeOq2N+YRGjo6Hds4u5uQtiSidwN93QHNzCxk3rMTY2jNOnz/SHnprcKArXnjp1qnfv3TpSmQZa7YbI9Ddv3iLWwAUZrVAfNjIyitnZeZw9PYNOKKTrlStlMTgwgqn1Y2h2ZjE7dxqTk+uQy47i5PEzYQKLyzPoWqb3UcqmBjE6sgmDAzmkMu34yx6/CwsbdgPtdktsku53Y4t7mlIpj1RqtXcm1JlVa7VwWKVcQqPRFJsIQs9xq9my2p+dEdVvQ39H6MYOFw/1YaEHutvuilpfQbAtJS92gjRD37Ze27RUF91M6P/tiAbpwVD9Ix/+GO7/4kH8y3/x/8Llu66W4DsJ119/PZ5++mlMTk5KuG2CBAkSXBy8an3b52PVfqlX7xK5zOqvN21ah3Xrh0Vuu7S8iEJuFOnuABYXZ1Fv10ROlM2mReWaLVs3IJsLHRA9Vh4q/EPZvFRQpaljfHxIJE0LC3OolMewa9cO1GpNFAo5pDMdNNvL6Hab6HRaokl74L+dTgODgwUMjwyKzQti6DMoswSzgOXlJRQDdSqNibI4YWWmN6zDhtT6/uLlMnlRGbbZaojODoHhptMFdDpNDA2FgHJvWYPATUcg+x1RXLXVDM3TML1hUpT4qdaWMDIyoO/skMr1F7NUGsDS0gqkA49rY2JqWFSMbTfrGJ8YCRNYv2EI6VwN7VYTmfQQ0t1BpDSxXF0Q+1yCDnLgqmF62bCPeN7nsLvmVQupdHgc4VwoZ3osodVaQT5sLAqhj6OBfD7w1tW2kaGh4EORF4WNeg4OnQ4y6Y7YpFMeKGNoaEBkuOGxBteGrN6mKjRAh6B5mECQQq6urHb6JEiwFgm3TZAgQYKLgeTbNkGCBAkuBl6bCrBQ2cOapqY1agmhx6zWWESrvYJWO2h6wVe//BXcecfXsLi8hIHRNL7rLftxyd7t4i47XLvVDuGCXiSh2er05x8aurK5LOr1Gmr1Ku656+t49OBJsZl9eusovuvNt2J8bETURS0Wi2g3W3G0Xo4lRBVSPc2GOr2oBU6fOYbPfOpLWFqso1TJ4vobD2Df/t3ohJmHFE02I25mQ46o1arT76ZviZ11Qaz2y196EPfd86gYURmbqoSh3/b2N2Bq/QiazWpvsfVCDaGyrVptIp1OIZcLal41ZLN5nDp5Bp/887uwcGEZ2TLcdMs12L13GtlUS3R6l25BOrp/poPvZwutTl3c2gfVi0y6jUMPP457vvC1/idhfN0g3vHO78K6qXHx8xMeYqyfWs0+tbtNZEL8JJVCOQo1PPvsaXz2M/fhzPHFuIpuf+NVuOW26/Ul5TKp/qXCZzO9RoBCuiMGf7JBL61Rx8GHHsWnP3kvGrU2piZ7+rbf9963Y+fu7eiGdKWgRNxanX8PSQVYAhJumyBBggQXB6+RTkJnTZpMCunMmm7xThvdTCi3qkEqFFdlcMXVl+DY0bP4xJ9/Fm+75kbs2r1VJGVBQbVcHkCjU0M3eEPEFolgoNDpBuP0uphMGyuP4JbbrsVjhz7av9RNN78B69YNiwX2YTKxRKlJjyEWi2mxhSGdDraMdTRavRXbtHUDtu6Zxqc/9iVcf/N+XLJvO9KBTjaaaIecT+BrKaLmfxCWDYQrpPXa7YZItfZftQcPfe0JzMyex1vfeUsYenRsWNRwCBm/4FoYiqV6W40ejyMaKwTD8KAOMTE1giuu2oE//fAd2Lf1Cuy9/BLky/X+OrS6DaQyORQLPf2zTqeKXCGFdC6PlcWQKwviajnsv3IvDj36BJ584im85R03YGR0QCxcS/fIcifOuseCe/piPeXcoKpREQu8RKmwm266Cr/9G3+GHTu24cqrLhclC0IirpvqiKRbT7gg3ELI7Ybh0iiEzUexgCv378PXv/YE7r/3a3jTm94dhg62Du1uTazky+XySKdXWfnafxEJt02QcNsECRIkuBh4LTXAAkJwM7M2btvtiOJb2UIb7VZdDKFWBgbwzu95Ky7ffwl27J5EJreCpaUFZHNBDTbUAwXi2Qublspl0RKiWl0RmV2YRrPVxeS6MfzIP3iv2NcwPllGu1tFeSAv1vcE+6xAonuEKxVkq+podRroaiKb7y1dqGp63etvFqPMGzdtEm3BeqQpldEvk+uEno5V+hyq3FK6yEiLBVvpDGzYMIUf/tB7UK22ML2+J8EVoo1hbqGsqlYPIeCU6PEeKreC3Fopm+9PI5sJXmRw/Y37sXX7RgwNjWFodAid1Lwo4NvjnB2rk9crFMsG4t/NIJPrisQurEA6ncf7v//tmJu7USzCC40Gof0k9bw/+quKWdlcaC1J9ccPxW2dTi+6G1RoL73sMvyTn53A8MgIJicmsbIc9L0C62+jFW0q+ivWW/ZMBtlU0AgO1YFZsaLuh37ofXjb22/D1k2TvVmm66uzajfQ6bZEX/oXVoAl3DZBwm0TJEiQ4GIg+bZNkCBBgouBV9lL9g2bonbYL/e0k9NIZUOPfB4yKbFdp90MFUI59Oqsuk10W13s2LYd3dYy6o0O0kqidnjIw+TSHaQzvUiCTg7dZgqZ0MMeturt0FyfQjPVxfTERlHKut1ZRn1lVU08RBhClilmzMLPsFtfI5ce8k6xCqqd6SDdzWLrpm1iHGC5uiKWGYULBtOdsIMO+tPhIr1GOKta2u2wE8+kUVupYWJ8HCmrumhi4ijEBMLi51IZ0WwxhDjCNOuNkHxroVQq64uopbrI5YvYtGEDPcGrIJEezI06nWDjuNr01Yl/pHPBCrNdRbvZRKVYRlYYgrheo8PDWD85IbZsZaREx6DwgUo9Lz/W6d9aEH8ImcawYumos9VtpVDMVUTB9eD6E0IdaVm06h2ks2lkU0VRVSOsTMh8ZtOh1S0nhgLavVK3DAYHKxgbH0OrtRiGzoRAUUp/AYMzaYihZcKD6KX8khhCAhJumyBBggQXB9nQUR6qpsLrV4K2Llo9GkI2i1q1gQvzSzh8+BSGxx/Tr/duNNCoraBeXxHdv7PpAqrLNWRSWXR75fSrdTOBnrQD4coRq6bQDYX0may+uXqodqo3kEpnke6mEbIXYdB6oGMa+j7eoda9l+HoikVsUfCh3btvUaYg0qt8vuz5rn+hHi4QzKhutcpxOms8AQOPC8Vq2XxgRqn+uZGCZUVC2vONjxnInoaZdn9SQSy4J1UR3uoG6eF2f7iwVmtbUeLVuv0bie0qrf5ZPZoms+Zme9uCdKYrUulsrohcZlbkoal0V7Sf6fZ6FtBLuHW6cY8SWWG4u1SPw6ZFitpb1eAJH1eg3Z0TyX42m0WhVBI3EMEFJzLLdP+uw0MJtxheBw2w0DiTy67y3JBxXV6piv0RhYH+djC1Oqtu6F5pY3mxhpnTC2Iqt9kTEU4Y7nc6Em6bIEGCBBcD2enpaZw8eRJbt259haf1OG26z+8KSOczeN3rvkt08Tt25DQ6mTYy7TTy6UANgq10Wyw7lyqg2QikMo9aPVS2d0WpqkCygldgLlPozSSQx2CuLo9mo4FMpvyC6a62YHQ7BaRSQT413b+VXsV7iPm21pKRnJdArb62jn0tAqeDVisIsL6wKgi66Sa66VVHyIAej+v9z4WXmsCa0bQb3zjQ2teBsYZlfymE/UGrtabq64VDdfoL2hXNJcMWId3jp6uNFc/T9Oox+t7/9C/V6wEIhV6pdH/g3vGN1c1Ez1Gxf8VenV9LbGvOBKf3er1/8XqzgWqtjkaz1b/I2sKyYMEZth3h87NWTjf0g5QqJTRj9VsgwoHVZmXEMHcIAS9emMdgeQClYknCbb+TENqIgnTyWiTcNkGCBAkuBrJjY2OYmZnBli1bXuFpvRhYZC+BCARr8R//P34ClcEKCqWCSKkWlxfFZHcIsQXZ0JAoD50OxXwBhWxOv9u1s6r8n0vnUW+2kCn0OoMDUwsZ9mwmjaXFZTHkF1RoC7mCqDbSkz4JoeTuah9EuJce61kT6eu+pFBpLAxovxxV7NkBBDIYSd03HNPurorIPO+3a16Gv5YxnPoiCLysvlLtv44XWX0dplFv1F5mwqlePPfl/gyHogv9FuHUmhNTaw8LRHuVva79T6fH/UNAeZWx9jhgt3dX1nRprx7z/Pk013yE6q0mjp88LkoPBzeHdDGLianJ/gVCO0aoQMgWs+JnJkT8O+Fz1Ws8Ce0brG7nenS41qgjn82Jn8+QJAjbqWK2iEt27cW5s3Mvs6QJ/jYhhApe+HWacNsECRIkuBhIvm0TJEiQ4GIge/XVV+PrX/86rrrqqld84vOKzAcHBjAyMoLB4UG0Oi2xVb/ZbSGTL2ClWkOrXkW6WML80qJYdlNoNDAxPIGFeg2NVkOsFR8q57HQrGJ5YTkMPVQZwsTIBJrtJgaGR8WGi55KQU/hNNTtQzmd9WKtHann5YVePEcU8YqSHvGCL7zUqjpUkKrqVRT19tRrEnpWGw1S32RKLznDtXN9+Yu8siG+pWl8I56XpHot0NTQD9ek4Mz5s5iZuSAWk+VHisgPFPrHhIKtoGgcPmYhQhKqwcJBS0tLyBdy6NZbyMTITKZXAdZBPug5hHaYVhcjQ6MYqQzTC+acPfOtGa0m+JuLQ4cO4cYbb9Sv/kTCbRMkSJDg4iD7hje8Af/m3/wb/MiP/MgrPC0Qk0z8sg7MK58tYGRgFMvVRVQbNbE26OmnD+NTd94hqpR+z7vejWefexZ3fu5z2L1zN97y5rfgri98Ho8/+hgCAb9y/9W4974v4dTJnst3+NXrbn89Mqk0ctk8Up3VBoFAHkObQKaX2VstM/pG5qf/btfLsbjUC168CLpr/rvWEzOquIZ0Tbc/yXCtdGrtFVazRt2XGWrNATHdtOZeuquDZlIv/yf2+SVWL4ZU/H2qx8df/MSXZq+rZ71wK/HCh5F+wfvPmyupbg5pHTFDODU+jZHBCTQ7Lax0avjsF+/EsaPPolwo401vewvuuvtuPPPMYRw4cA0uuWQv7r7rC2K27cD+K5GN9XOPPPQQxsfGcc3V12LLhi1Ih21TKoNmqy3uzJIKsO8c3HvvvXjrW9+q360TOpX+aqeVIEGCBN8hyO7bt0/UwP/sZz+LN77xja/w5D55GRoYRK1aE/saKsUBUTa/2WnjwrkLeOqxpzA4NITFuUWcP3UOjx58FBpdvOX1b8K50+fwtfu+iuHKMK7Zfy2effoIHnjggTD09k3bxBbJM2dP4/y586KgyYZ105gYmxAdrdNSYoS33SvPWts8utoa+zLlVi+6CC/x6zUB7u4LaWOocAo9xc3+kbE7YLX8qNds+tKksxtCwJngeb7m/ReUnbVfdr5rbepf8p5Wb3kNQ41tGP3DgqTL86695qq9DuYgwLPmrtOxIg/pnsHaNz6Ib5hcz3chOJa3u2i1Vtu0lxeXcaE6h8ULi7jns19EpVjCddfeiJkzs7j3C/ch2y1g15ZdOHP8LJ555hmUunns27M3DPrcM8dx9MgJ7Nq6FwPbB9FoB0HkttgmUyrkJdz2OwNPP/00FhYWcPvtt4u2eEGXKuG2CRIkSHAxkHzbJkiQIMHFQOqxxx5D+PmzP/uz+I//8T8i9Ji9FG65/Xb096y1Rg31Zl3sE+vJiaVS6Ojg1LmzuLA4L7b9jI+PYWV5BdXl5f5ZY2OjuDBzAY16HZVKBcPDQzh/7hxWqsHQ29TkOoyOjGJhcQHzc/PIpLMYGhzCYKWCXK6gn9jprO40n2/zs5pbe6X4Zhml/gVfbC/Z7U8jtZrH6q3bWp2Ezho9gZeYRWjQWn39EnORSn/jBv951+l2+sO9FPoiZHGhVpfreVmvEEnorvW6f/5/Y2zh+Xcd3gmvO0it0Qn7hhtbmxVM9T5sq5GEcBfVRh21Vh1L1apoIhk2d6GZPbS9NRut/juVgQrm5ub60wvZxUq5FIZenF8Qe+EmJqYwPjKq38jXExjriCVlX7z77hcsZIK/PQjdnuEr9Cd/8idxyy23YGpqCoODgxJumyBBggQXB6nnnnsOZ8+exR//8R/jwQcfxL/4F//iZU67/XWvs4ZDvbAaX///V1+v8qBQQtReI5yaWVPnE7S+0laTWpG4tfvv9xM1gTh3eqesSjHF4qTAMdZMIBYNicxobZrr5bNDfwkIFWDfPB33CnIsa7nti6P3AF6WuXefV6z2EteJF/hmHQqpF/x8iUNe6vwgZNGfWn+Szz8rfrS66KReMP/exiKk3dZ+Nro8TzY309PKIHLk9BoV4Ph+72Fl1hQRRu69ZpP0Ar5/9xe+8HK3muBvOH7nd34HQVLxne98J9atWycGCYImTMJtEyRIkOBiIFsqlTAQbMbf+U4cPHgQv/zLv4wf//Ef7//2hXgBtUmJKl9r8bzq99Qqj8s9j6KsspjUWh+EHvtDv+g/XKdfYN9FphuGXn3H2kt1VxnKmpl6IaV8DdtJXxFixNGLT2cVqW9OulPIpte2G7zYETEy+9KXeVkq2kP/kX6ToV7klG+40Mtz297Pl7731NqLh01SYLhEfho+FYGKpjuroeF+TH11coHn9ljtN077+a0cvU9yd60G8UssWmw2SSrA/nbi93//93Hq1Cl84AMfEKO0gc+GXFRP9/mvcJYJEiRI8J2D5Ns2QYIECS4GUouLi5ifn8f58+f7P//0T/8Un/jEJ/BjP/ZjuP766/8KJ5ogQYIEf01w9OhR/Mqv/Iqoh/C6171OzJJNTEyImoghVBvqYhNumyBBggQXA6ngbb6ysiLWcgfXnNnZWRw/fhy/9mu/Jn5J33rrrbjuuut8sw6IBAkSJPibjqBx/JWvfCX8b1BoCYWzP/RDP4QDBw5gdHRU/EoMryu9pqqcJEuWIEGCBBcTqaBX32w2RYYbYriB54bX4dv9y1/+Mr74xS+K4uTnzp37K5p2ggQJElwMDA0N4S1veUv439CJG4QSA4cdHh4Wo7ThdWC1a2u/En3bBAkSJLh4SAXhjPAzMNxqtYpQqxB+BrnG5eVl1Gq1/pF97ZKkcjtBggR/y9AjpOm0WFSgL1pUqYi0N/QyhJ8huRVYbZA9SnzJEiRIkOBiI/m2TZAgQYKLgexathyKFXp6SJmMSImDC3SIJIQ4Q4gkhAybJJKQIEGCv3VY+00YvhvFL8MQSQgCMkEPIUQY1tZ7vVBsL+G2CRIkSHAx8P8HO8Xjc0SOcOgAAAAASUVORK5CYII=;strokeColor=none;labelBackgroundColor=none;rounded=0;html=1;whiteSpace=wrap;" parent="1" vertex="1">
          <mxGeometry x="185" y="950" width="85" height="36" as="geometry" />
        </mxCell>
        <mxCell id="T1u4JHc62lBeNg_8yhFu-101" value="" style="edgeStyle=orthogonalEdgeStyle;rounded=0;orthogonalLoop=1;jettySize=auto;html=1;startArrow=none;startFill=0;endArrow=classic;endFill=1;entryX=0.693;entryY=1.027;entryDx=0;entryDy=0;entryPerimeter=0;" parent="1" source="T1u4JHc62lBeNg_8yhFu-94" target="T1u4JHc62lBeNg_8yhFu-88" edge="1">
          <mxGeometry relative="1" as="geometry">
            <mxPoint x="291" y="760" as="targetPoint" />
          </mxGeometry>
        </mxCell>
        <mxCell id="T1u4JHc62lBeNg_8yhFu-94" value="&lt;font style=&quot;font-size: 11px ; font-family: &amp;#34;calibri&amp;#34; ; color: #000000 ; direction: ltr ; letter-spacing: 0px ; line-height: 120% ; opacity: 1&quot;&gt;按键&lt;br&gt;&lt;/font&gt;" style="verticalAlign=middle;align=center;vsdxID=3;fillColor=#c9c9c9;gradientColor=#d8d8d8;gradientDirection=north;shape=stencil(nZFLDsIwDERP4y0KyQKxLuUCnCAihliEpEpL+ZyetANS6YJFs7JnXmxpTKZqvW2YtGq7nC58F9d5MjvSWqLnLF2pyNRkqlPKfM7pFh36xhZSq1Fhhz/rgdbK5uNBXgxts9r+PjAYck39sPwBVMF6foYp9HugQeIE/ZqL4D/oQnC2vhRjPAhOQkC6U38eZ5FwClO/AQ==);strokeColor=#404040;shadow=1;labelBackgroundColor=none;rounded=1;html=1;whiteSpace=wrap;arcSize=0;" parent="1" vertex="1">
          <mxGeometry x="286" y="950" width="59" height="36" as="geometry" />
        </mxCell>
        <mxCell id="T1u4JHc62lBeNg_8yhFu-109" value="" style="edgeStyle=orthogonalEdgeStyle;rounded=0;orthogonalLoop=1;jettySize=auto;html=1;startArrow=none;startFill=0;endArrow=classic;endFill=1;" parent="1" source="T1u4JHc62lBeNg_8yhFu-104" target="T1u4JHc62lBeNg_8yhFu-88" edge="1">
          <mxGeometry relative="1" as="geometry">
            <Array as="points">
              <mxPoint x="160" y="800" />
              <mxPoint x="160" y="800" />
            </Array>
          </mxGeometry>
        </mxCell>
        <mxCell id="T1u4JHc62lBeNg_8yhFu-104" value="&lt;font style=&quot;font-size: 11px ; font-family: &amp;#34;calibri&amp;#34; ; color: #000000 ; direction: ltr ; letter-spacing: 0px ; line-height: 120% ; opacity: 1&quot;&gt;LDO&lt;br&gt;3.0V&lt;br&gt;&lt;/font&gt;" style="verticalAlign=middle;align=center;vsdxID=5;fillColor=#c9c9c9;gradientColor=#d8d8d8;gradientDirection=north;shape=stencil(nZFLDsIwDERP4y0KyQKxLuUCnCAihliEpEpL+ZyetANS6YJFs7JnXmxpTKZqvW2YtGq7nC58F9d5MjvSWqLnLF2pyNRkqlPKfM7pFh36xhZSq1Fhhz/rgdbK5uNBXgxts9r+PjAYck39sPwBVMF6foYp9HugQeIE/ZqL4D/oQnC2vhRjPAhOQkC6U38eZ5FwClO/AQ==);strokeColor=#404040;shadow=1;labelBackgroundColor=none;rounded=1;html=1;whiteSpace=wrap;" parent="1" vertex="1">
          <mxGeometry x="70.5" y="785.06" width="63" height="31" as="geometry" />
        </mxCell>
        <mxCell id="T1u4JHc62lBeNg_8yhFu-108" value="&lt;font style=&quot;font-size: 11px ; font-family: &amp;#34;calibri&amp;#34; ; color: #000000 ; direction: ltr ; letter-spacing: 0px ; line-height: 120% ; opacity: 1&quot;&gt;5.0V&lt;br&gt;&lt;/font&gt;" style="verticalAlign=middle;align=center;vsdxID=24;fillColor=none;gradientColor=none;shape=stencil(nZBLDoAgDERP0z3SIyjew0SURgSD+Lu9kMZoXLhwN9O+tukAlrNpJg1SzDH4QW/URgNYgZTkjA4UkwJUgGXng+6DX1zLfmoymdXo17xh5zmRJ6Q42BWCfc2oJfdAr+Yv+AP9Cb7OJ3H/2JG1HNGz/84klThPVCc=);strokeColor=none;labelBackgroundColor=none;rounded=0;html=1;whiteSpace=wrap;" parent="1" vertex="1">
          <mxGeometry x="261" y="690" width="76" height="15" as="geometry" />
        </mxCell>
        <mxCell id="T1u4JHc62lBeNg_8yhFu-110" value="&lt;font style=&quot;font-size: 20px; font-family: simsun; color: rgb(255, 0, 0); direction: ltr; letter-spacing: 0px; line-height: 120%; opacity: 1;&quot;&gt;表盘驱动控制板&lt;br style=&quot;font-size: 20px;&quot;&gt;&lt;/font&gt;" style="verticalAlign=middle;align=center;vsdxID=148;fillColor=none;gradientColor=none;shape=stencil(nZBLDoAgDERP0z3SIyjew0SURgSD+Lu9kMZoXLhwN9O+tukAlrNpJg1SzDH4QW/URgNYgZTkjA4UkwJUgGXng+6DX1zLfmoymdXo17xh5zmRJ6Q42BWCfc2oJfdAr+Yv+AP9Cb7OJ3H/2JG1HNGz/84klThPVCc=);strokeColor=none;labelBackgroundColor=none;rounded=0;html=1;whiteSpace=wrap;fontSize=20;" parent="1" vertex="1">
          <mxGeometry x="514" y="698" width="176" height="28" as="geometry" />
        </mxCell>
        <mxCell id="T1u4JHc62lBeNg_8yhFu-112" value="" style="edgeStyle=orthogonalEdgeStyle;rounded=0;orthogonalLoop=1;jettySize=auto;html=1;startArrow=none;startFill=0;endArrow=classic;endFill=1;fontSize=20;entryX=0.908;entryY=0.005;entryDx=0;entryDy=0;entryPerimeter=0;" parent="1" source="T1u4JHc62lBeNg_8yhFu-111" target="5" edge="1">
          <mxGeometry relative="1" as="geometry">
            <Array as="points">
              <mxPoint x="474" y="230" />
              <mxPoint x="395" y="230" />
            </Array>
          </mxGeometry>
        </mxCell>
        <mxCell id="T1u4JHc62lBeNg_8yhFu-111" value="&lt;font style=&quot;font-size: 11px ; font-family: &amp;#34;calibri&amp;#34; ; color: #000000 ; direction: ltr ; letter-spacing: 0px ; line-height: 120% ; opacity: 1&quot;&gt;COMM USB&lt;br&gt;&lt;/font&gt;" style="verticalAlign=middle;align=center;vsdxID=3;fillColor=#c9c9c9;gradientColor=#d8d8d8;gradientDirection=north;shape=stencil(nZFLDsIwDERP4y0KyQKxLuUCnCAihliEpEpL+ZyetANS6YJFs7JnXmxpTKZqvW2YtGq7nC58F9d5MjvSWqLnLF2pyNRkqlPKfM7pFh36xhZSq1Fhhz/rgdbK5uNBXgxts9r+PjAYck39sPwBVMF6foYp9HugQeIE/ZqL4D/oQnC2vhRjPAhOQkC6U38eZ5FwClO/AQ==);strokeColor=#404040;shadow=1;labelBackgroundColor=none;rounded=1;html=1;whiteSpace=wrap;" parent="1" vertex="1">
          <mxGeometry x="440" y="137" width="68" height="46" as="geometry" />
        </mxCell>
        <mxCell id="s3dmyEiGRFAJhjlHbclL-73" value="" style="edgeStyle=orthogonalEdgeStyle;rounded=0;orthogonalLoop=1;jettySize=auto;html=1;entryX=-0.019;entryY=0.824;entryDx=0;entryDy=0;entryPerimeter=0;" edge="1" parent="1" source="s3dmyEiGRFAJhjlHbclL-72" target="T1u4JHc62lBeNg_8yhFu-88">
          <mxGeometry relative="1" as="geometry" />
        </mxCell>
        <mxCell id="s3dmyEiGRFAJhjlHbclL-72" value="&lt;font style=&quot;font-size: 11px ; font-family: &amp;#34;calibri&amp;#34; ; color: #000000 ; direction: ltr ; letter-spacing: 0px ; line-height: 120% ; opacity: 1&quot;&gt;电位器调试&lt;br&gt;&lt;/font&gt;" style="verticalAlign=middle;align=center;vsdxID=3;fillColor=#c9c9c9;gradientColor=#d8d8d8;gradientDirection=north;shape=stencil(nZFLDsIwDERP4y0KyQKxLuUCnCAihliEpEpL+ZyetANS6YJFs7JnXmxpTKZqvW2YtGq7nC58F9d5MjvSWqLnLF2pyNRkqlPKfM7pFh36xhZSq1Fhhz/rgdbK5uNBXgxts9r+PjAYck39sPwBVMF6foYp9HugQeIE/ZqL4D/oQnC2vhRjPAhOQkC6U38eZ5FwClO/AQ==);strokeColor=#404040;shadow=1;labelBackgroundColor=none;rounded=1;html=1;whiteSpace=wrap;arcSize=0;" vertex="1" parent="1">
          <mxGeometry x="72.5" y="865.94" width="59" height="36" as="geometry" />
        </mxCell>
        <mxCell id="2" value="电气" parent="0" />
      </root>
    </mxGraphModel>
  </diagram>
</mxfile>
